<svg xmlns="http://www.w3.org/2000/svg" width="70mm" height="70mm" viewBox="0 0 70 70"><g style="opacity:1"><path transform="scale(.26458)" d="m132.283 32.945-10.387 36.356 6.297-6.293v62.19L74.336 94.101l8.6-2.309-36.68-9.182 26.293 27.18-2.31-8.605 53.863 31.097-53.864 31.1 2.31-8.608-26.292 27.182 36.68-9.191-8.598-2.303 53.855-31.094v62.19l-6.297-6.293 10.387 36.355 10.387-36.355-6.297 6.293v-62.19l53.861 31.096-8.603 2.308 36.681 9.184-26.294-27.182 2.31 8.606-53.861-31.098 53.861-31.095-2.31 8.603 26.294-27.18-36.681 9.182 8.601 2.309c-44.295 25.573-37.99 21.935-53.859 31.097V63.008l6.297 6.293-10.387-36.356z" style="color:#000;font-style:normal;font-variant:normal;font-weight:400;font-stretch:normal;font-size:medium;line-height:normal;font-family:sans-serif;font-variant-ligatures:normal;font-variant-position:normal;font-variant-caps:normal;font-variant-numeric:normal;font-variant-alternates:normal;font-variant-east-asian:normal;font-feature-settings:normal;font-variation-settings:normal;text-indent:0;text-align:start;text-decoration:none;text-decoration-line:none;text-decoration-style:solid;text-decoration-color:#000;letter-spacing:normal;word-spacing:normal;text-transform:none;writing-mode:lr-tb;direction:ltr;text-orientation:mixed;dominant-baseline:auto;baseline-shift:baseline;text-anchor:start;white-space:normal;shape-padding:0;shape-margin:0;inline-size:0;clip-rule:nonzero;display:inline;overflow:visible;visibility:visible;isolation:auto;mix-blend-mode:normal;color-interpolation:sRGB;color-interpolation-filters:linearRGB;solid-color:#000;solid-opacity:1;vector-effect:none;fill:#000;fill-opacity:1;fill-rule:nonzero;stroke:none;stroke-width:8.18268;stroke-linecap:butt;stroke-linejoin:miter;stroke-miterlimit:4;stroke-dasharray:none;stroke-dashoffset:0;stroke-opacity:1;color-rendering:auto;image-rendering:auto;shape-rendering:auto;text-rendering:auto;enable-background:accumulate;stop-color:#000;stop-opacity:1"/></g><path style="fill:none;stroke:#000;stroke-width:.264583px;stroke-linecap:butt;stroke-linejoin:miter;stroke-opacity:1" d="M130.71 59.642Z"/></svg>