<svg xmlns="http://www.w3.org/2000/svg" width="60mm" height="75mm" viewBox="0 0 60 75"><defs><path id="a" d="M-9.587 92.225h65.765v19.174H-9.587z"/></defs><path style="fill:#c93b1b;fill-opacity:1;stroke-width:1" d="M17.937.805c-.372.212-.901.584-1.79 1.231-2.717 1.98-4.602 3.472-6.034 4.776C8.998 7.826 8.985 7.85 9.115 8.54c.3 1.6 2.12 2.506 5.369 2.67.933.048 1.873.173 2.088.277.513.249.885-.054 1.033-.84.125-.668.583-.944.884-.532.144.197.15.494.022 1.057-.149.649-.128.861.121 1.242.34.518.232 1.15-.194 1.15-.152 0-.46-.2-.685-.442-.225-.242-.57-.44-.77-.44-.302 0-.36.112-.36.69 0 .38.089.721.198.758.33.11.002 1.122-.687 2.123-.53.77-.653 1.129-.744 2.16-.086.968-.27 1.55-.85 2.687-.822 1.613-.925 2.317-.387 2.653.538.337.432.827-.543 2.517-.987 1.71-1.086 2.417-.383 2.725.218.096.396.258.396.361 0 .103-.355.779-.79 1.502-.885 1.47-.913 1.593-.516 2.266.276.466.26.513-.794 2.255-.591.98-1.075 1.857-1.075 1.951 0 .094.199.385.441.647.243.261.442.538.442.614 0 .22.891.958 3.668 3.04a271.015 271.015 0 0 1 2.894 2.187c.79.641 4.033 2.64 6.247 3.853 2.634 1.442 6.91 3.404 9.503 4.36.874.322 1.616.604 1.65.626.034.023-.235 1.456-.597 3.184-.718 3.425-.718 3.4.098 5.583l.374 1H37.88l.318-2.245c.175-1.235.353-2.28.395-2.322.145-.145.268.107 1.11 2.296l.841 2.182h8.53c5.756 0 8.55-.06 8.591-.184.034-.1-1.07-.796-2.454-1.546a610.59 610.59 0 0 1-4.456-2.438c-1.068-.592-2.33-1.224-2.806-1.404-.476-.18-1.388-.676-2.028-1.105-.64-.428-2.397-1.414-3.904-2.19-1.508-.776-3.007-1.572-3.331-1.77-.324-.197-.68-.323-.792-.28-.112.042-.573-.482-1.025-1.165-.85-1.282-1.208-2.536-.909-3.174.128-.271 5.9-6.585 11.151-12.198.698-.745 1.262-1.506 1.262-1.702 0-.214-.232-.49-.588-.7-.524-.31-.588-.431-.588-1.124 0-.9-.389-1.828-.767-1.828-.187 0-.307.315-.419 1.102-.086.607-.246 1.103-.355 1.103-.25 0-5.245-1.377-5.34-1.473-.04-.039.157-.26.438-.49.786-.646 6.034-4.635 6.29-4.78.158-.09.331.146.573.784.191.502.428.94.527.973.346.116.628-.97.506-1.945-.097-.772-.058-1.014.22-1.37.518-.664.61-1.168.383-2.113-.15-.629-.385-1.024-.852-1.434-.355-.311-.726-.727-.824-.924-.098-.197-.696-.757-1.328-1.245-.632-.488-1.167-.959-1.188-1.045-.022-.087 1.198-.14 2.752-.121 2.852.035 4.244-.154 4.641-.633.168-.203.142-.32-.127-.578-.256-.245-.938-.394-2.808-.617a108.547 108.547 0 0 1-3.042-.392c-.63-.109-.787-.412-.213-.412 1.063 0 1.618-1.749.861-2.71-.423-.538-.877-.625-.752-.144.047.176-.022.409-.152.516-.157.13-2.325.232-6.494.305-3.442.06-6.537.165-6.876.233-.34.068 2.597.164 6.526.212 6.997.087 7.144.095 7.144.441 0 .35-.118.353-12.95.353-10.203 0-12.965.046-13.023.22-.178.533-.736.197-1.18-.712-.449-.916-.451-.946-.168-1.777.32-.938.708-1.213 1.05-.744.169.23.179.441.04.838-.194.558.106 1.91.424 1.91.311 0 .35-.545.068-.973-.389-.594-.258-.8 1.613-2.554 3.535-3.312 8.68-5.93 13.366-6.803 3.542-.66 7.83.202 9.781 1.965 1.23 1.111 2.153 3.42 1.563 3.91-.363.3-.591.054-.826-.893-.268-1.084-.93-2.085-1.762-2.66-1.498-1.038-5.043-1.833-7.16-1.605-1.374.149-4.128.83-5.621 1.393-1.819.684-4.843 2.304-6.228 3.336-1.666 1.24-3.593 2.941-3.593 3.17 0 .126 1.93.148 6.13.068 18.309-.345 17.938-.333 18.226-.583.154-.133.71-.37 1.235-.526 2.185-.648 3.85-1.833 4.58-3.26.673-1.317.79-3.725.51-6.037H33.158c-.093.026-.21.02-.367 0zm21.14 3.876c.57-.012 1.138.071 1.497.253 2.167 1.101 2.117 4.295-.081 5.213-.56.234-1.723.288-2.44.114-.57-.139-1.45-.886-1.75-1.487-.649-1.301-.06-3.064 1.263-3.777.367-.197.94-.304 1.51-.316Zm.126.975c-.124-.005-.253 0-.386.012-1.728.166-2.45 2.04-1.23 3.189.257.24.625.48.819.53.63.166 1.75-.066 2.154-.445 1.397-1.312.511-3.221-1.357-3.286zM21.718 16.86c.172.013.392.135.701.347.568.39.704.578.618.853-.283.903-.268 2 .033 2.46.608.927 1.885 1.24 2.906.712.516-.267 1.053-1.066 1.053-1.566 0-.406.308-.507 1.159-.38.621.094.781.19.781.467 0 1.032-1.59 2.818-2.81 3.157-3.148.874-6.111-2.106-5.104-5.133.22-.66.376-.939.663-.917zm18.097 7.814c.452 0 .453.003.349 1.19-.057.656-.138 1.361-.18 1.569-.082.41-.444.628-.733.444-.167-.107-1.286-2.195-1.286-2.4 0-.188 1.418-.803 1.85-.803zm-1.109 4.612a.457.457 0 0 1 .276.084c.302.19 1.135 2.442.966 2.61-.174.175-1.956.112-2.07-.072-.17-.275.28-2.266.565-2.502a.461.461 0 0 1 .263-.12zM10.292 40.496c-.2.014-.652.324-1.267.873-1.39 1.24-2.444 1.906-4.574 2.888-.921.426-1.781.852-1.911.949-.19.142-.221 1.172-.158 5.389.068 4.52.127 5.389.436 6.536.197.727.53 2.116.743 3.086.211.97.417 1.863.456 1.985.056.173 2.573.22 11.806.22 6.454 0 11.735-.04 11.735-.091 0-.246-1.763-3.556-2.993-5.617-3.404-5.71-6.416-9.367-11.244-13.651-1.503-1.334-2.835-2.483-2.96-2.555a.122.122 0 0 0-.07-.012zm25.632 9.014c.014-.007.03.02.047.084.044.171.042.41-.007.529-.048.12-.085-.021-.081-.312.002-.182.019-.289.041-.301zm.756.83a.071.071 0 0 1 .04 0c.014.005.023.018.025.037.007.077.03.357.05.624.043.586.042.586-.286.086-.22-.337-.223-.434-.02-.624a.481.481 0 0 1 .191-.123zm.507 1.323c.1-.01.245.09.313.264.055.146.038.265-.04.265-.184 0-.377-.196-.377-.383 0-.093.044-.14.104-.146zm.71.06a.202.202 0 0 1 .068.028c.097.06.176.144.176.187 0 .042-.079.077-.176.077-.097 0-.176-.084-.176-.186 0-.078.044-.116.107-.106zm-2.27.485c.017.004.026.053.031.149.008.139.181.431.386.649.204.217.343.479.308.58-.034.102-.249-.087-.477-.42-.227-.333-.373-.708-.323-.834.035-.086.059-.127.075-.124zm2.634.206c.028.008.059.058.093.147.067.173-.013.273-.232.29-.183.013-.333-.055-.333-.152 0-.096.072-.13.161-.076.089.055.193.004.232-.112.024-.073.05-.105.079-.097zm.34.723c.013-.004.03 0 .05.013.085.052.193.246.241.43.15.568-.138.787-.368.281-.16-.35-.16-.427 0-.329.14.088.17.032.09-.174-.047-.125-.05-.209-.013-.221zm.528 1.143c.062.018.154.163.288.444.347.728.323.79-.117.303-.17-.187-.28-.476-.248-.643.016-.079.04-.114.077-.104zm-1.693.91c.01-.009.08.044.22.154.17.133.31.273.31.31 0 .144-.146.05-.376-.243-.11-.14-.163-.212-.154-.22zm1.82 2.33c.037.004.09.038.152.102.115.114.168.25.118.3-.117.117-.326-.091-.326-.327 0-.055.02-.08.057-.076zm.759 1.205a.064.064 0 0 1 .03.003c.061.019.173.101.328.256.147.147.24.338.208.425-.032.087-.2-.033-.375-.266-.193-.258-.248-.405-.191-.418zm.814.922c.015-.011.095.066.21.207.153.189.277.407.277.485 0 .254-.184.151-.297-.166a12.05 12.05 0 0 0-.184-.485c-.01-.024-.012-.038-.006-.041zm-38.377.39c-.067.024-.117.394-.117.904 0 .588.094 1.152.211 1.27.252.252.494.276.494.048 0-.379-.424-2.055-.558-2.209-.01-.011-.02-.015-.03-.012zm39.197.798c.097 0 .225.079.285.176.06.097.03.177-.067.177s-.226-.08-.286-.177c-.06-.097-.03-.176.068-.176zm.362.529c.103 0 .187.08.187.176 0 .097-.035.177-.078.177-.042 0-.126-.08-.186-.177-.06-.097-.025-.176.077-.176zm.61.176c.038 0 .114.12.17.265.056.145.025.264-.069.264s-.17-.119-.17-.264c0-.146.03-.265.069-.265zm-30.923.882c-7.799-41.615-3.9-20.807 0 0zm-2.346.026c-6.235-41.632-3.117-20.816 0 0z"/><g style="font-size:12.7px;line-height:1.25;font-family:ARKHAM;-inkscape-font-specification:ARKHAM;white-space:pre;shape-inside:url(#a);fill:#fff" transform="translate(10.756 -28.937)" aria-label="FASCIST"><path style="font-size:12.7px;line-height:1.25;font-family:ARKHAM;-inkscape-font-specification:ARKHAM;white-space:pre;shape-inside:url(#a);fill:#fff" d="M-2.17 92.915q-.355.457-.507.736-.343.838-.305 1.486.025.102-.076.102-.102.025-.114-.076-.267-1.524-1.664-1.524-.902 0-1.32.596-.204.293-.293 1.702-.025.305-.038 1.753l.013.127h2.438v.787q-.699 0-2.451.013v.063q0 2.718.241 3.163.127.33.19.432.128.215.318.342.356.242.534.33.33.178.812.318-1.308-.063-1.562-.101-.127-.039-.457-.115-.419-.076-.85-.076-.255 0-2.338.33.762-.406 1.207-1.105.368-.571.394-1.574.05-2.49 0-5.512-.026-1.372-.674-1.842-.152-.203-.952-.876l.864.38q.749.331 2.946.331 1.397 0 2.362-.241 1.156-.292 2.134-1.016zM5.053 99.442H.925l-.025.293q-.013.901-.026 2.184 0 .546.178.711.178.153.343.305.267.216.584.368-.584-.038-1.41-.114-.406-.05-1.498.025-.47.051-1.308.115.61-.483.864-1.207.177-.52.228-1.918.064-1.536.216-2.476.267-1.588.89-3.607.532-1.765 1.066-2.299l-.089.508q-.064.42 1.118 1.245 1.765 1.22 2.095 1.524 1.245 1.168 1.803 2.057.521.851.737 1.994.254 1.372.254 2.121 0 .14-.025.432-.026.292-.026.432 0 .787.432 1.206-.533-.127-2.108-.165-1.08-.012-2.083.14 1.041-.47 1.499-1.054.457-.597.457-1.905 0-.394-.038-.915zm-.115-.762q-.19-1.003-.571-1.79-.648-1.36-2.21-2.439-.28-.216-.648-.47-.482 2.413-.52 4.7zM14.215 102.795q-.66.457-1.993.457-.674 0-1.753-.304-.584-.165-.85-.165-.852 0-1.792.749-.025.025-.063.025-.089 0-.089-.089 0-.038.038-.076.89-.889 1.067-2.35l.05-1.828q0-.102.077-.114.101 0 .114.088.52 3.302 3.01 3.302.762 0 1.27-.368.584-.419.584-1.156 0-.838-.571-1.295-.394-.317-1.36-.724-.43-.178-1.549-.622-2.159-.876-2.184-2.502-.025-1.486 1.067-2.299.673-.495 1.511-.495.457 0 1.169.165 1.028.241 1.219.267.254.038.457.038.546 0 .99-.318.153-.114.851-.787-.558 1.13-1.003 2.4-.216.61-.584 1.626l-.038-1.283q-.229-.825-1.575-1.295-.8-.19-1.143-.19-.686-.013-1.143.406-.457.419-.457 1.092 0 .8.889 1.244.216.102 1.22.458 1.98.685 2.45.99 1.13.724 1.397 2.108.051.254.051.534 0 1.397-1.334 2.311zM24.052 103.075q-.127-.038-.305-.038-.407 0-1.22.152-.812.152-1.231.152-.724 0-1.524-.216-1.474-.685-2.324-2.032-.851-1.358-.851-2.984 0-3.073 2.4-4.763.902-.495 2.134-.495 1.092 0 2.032.356.19.05.368.05.622 0 1.6-1.168-.635 1.892-.597 3.721.013.75-.101 1.639-.33-1.817-.56-2.325-.342-.762-1.003-1.219-.698-.482-1.51-.482-1.855 0-2.579 2.425-.317 1.067-.317 2.185 0 2.933 1.79 4.254.635.47 1.232.47.546 0 1.22-.419 1.447-.902 2.057-2.934.025-.101.114-.076.089.013.064.102-.204 1.676-.204 2.438 0 .89.458 1.727-.851-.571-1.143-.52zM28.068 102.986q-1.08 0-2.273.33-.089.025-.14-.064-.038-.076.077-.127 1.08-.419 1.27-1.27.177-.774.177-1.689v-6.235q0-.254-.114-.623-.114-.38-.292-.52-.305-.242-.483-.356-.33-.19-.812-.33.914.013 1.828.267.28.076.635.24.305.153.508.191.534.102 1.321-.101-.863.622-.94 1.333 0 .953-.012 1.537v5.944q.012.596.127.825.228.47 1.206 1.105-1.575-.457-2.083-.457zM37.507 102.795q-.66.457-1.994.457-.673 0-1.752-.304-.585-.165-.851-.165-.851 0-1.791.749-.025.025-.064.025-.088 0-.088-.089 0-.038.038-.076.889-.889 1.066-2.35l.051-1.828q0-.102.076-.114.102 0 .115.088.52 3.302 3.01 3.302.762 0 1.27-.368.584-.419.584-1.156 0-.838-.572-1.295-.393-.317-1.359-.724-.431-.178-1.549-.622-2.159-.876-2.184-2.502-.026-1.486 1.066-2.299.674-.495 1.512-.495.457 0 1.168.165 1.029.241 1.22.267.253.038.457.038.546 0 .99-.318.153-.114.851-.787-.559 1.13-1.003 2.4-.216.61-.584 1.626l-.039-1.283q-.228-.825-1.574-1.295-.8-.19-1.143-.19-.686-.013-1.143.406-.458.419-.458 1.092 0 .8.89 1.244.215.102 1.219.458 1.98.685 2.45.99 1.131.724 1.398 2.108.05.254.05.534 0 1.397-1.333 2.311zM47.42 93.245l-.077.203q-.101.42-.216 1.626l-.025.279q-.089-.19-.241-.546-.42-1.168-.953-1.537-.267-.19-.559-.19-.127 0-.368.063-.406.102-.406 1.092v7.417q0 .102-.013.254 0 .381.203.597.28.292 1.6.876-.368-.025-1.41-.14-.888-.1-1.396-.1-.254 0-.902.075-.508.064-1.867.178 1.245-.444 1.69-1.016.24-.317.24-.914v-.56q-.012-.1-.012-.024 0-3.531-.038-6.757v-.457q-.026-.19-.051-.28-.064-.14-.203-.266-.127-.127-.369-.127-.19 0-.406.076-.953.356-1.867 2.438.102-1.054-.013-1.828-.05-.33-.089-.66-.114-.458-.482-1.106.787.483 1.473.572.406.05 1.588.05h1.32q.877.013 1.347.013h1.46q.622-.012 1.067-.216.19-.088.838-.495-.635.864-.864 1.41z"/></g></svg>