<?xml version="1.0" encoding="UTF-8" standalone="no"?>
<svg
   xmlns:dc="http://purl.org/dc/elements/1.1/"
   xmlns:cc="http://creativecommons.org/ns#"
   xmlns:rdf="http://www.w3.org/1999/02/22-rdf-syntax-ns#"
   xmlns:svg="http://www.w3.org/2000/svg"
   xmlns="http://www.w3.org/2000/svg"
   xmlns:sodipodi="http://sodipodi.sourceforge.net/DTD/sodipodi-0.dtd"
   xmlns:inkscape="http://www.inkscape.org/namespaces/inkscape"
   sodipodi:docname="fascist.svg"
   inkscape:version="1.0 (4035a4f, 2020-05-01)"
   id="svg8"
   version="1.1"
   viewBox="0 0 60 75"
   height="75mm"
   width="60mm">
  <defs
     id="defs2" />
  <sodipodi:namedview
     inkscape:window-maximized="0"
     inkscape:window-y="25"
     inkscape:window-x="0"
     inkscape:window-height="781"
     inkscape:window-width="1252"
     showgrid="false"
     inkscape:document-rotation="0"
     inkscape:current-layer="layer1"
     inkscape:document-units="mm"
     inkscape:cy="331.18248"
     inkscape:cx="220.48579"
     inkscape:zoom="0.63047344"
     inkscape:pageshadow="2"
     inkscape:pageopacity="0.0"
     borderopacity="1.0"
     bordercolor="#666666"
     pagecolor="#ffffff"
     id="base" />
  <metadata
     id="metadata5">
    <rdf:RDF>
      <cc:Work
         rdf:about="">
        <dc:format>image/svg+xml</dc:format>
        <dc:type
           rdf:resource="http://purl.org/dc/dcmitype/StillImage" />
        <dc:title></dc:title>
      </cc:Work>
    </rdf:RDF>
  </metadata>
  <g
     id="layer1"
     inkscape:groupmode="layer"
     inkscape:label="Layer 1">
    <path
       d="M 17.93743,0.80482531 C 17.565238,1.0169393 17.035873,1.3888947 16.147358,2.0362747 13.430148,4.0160326 11.545054,5.5081516 10.112584,6.8122106 8.9984211,7.8264995 8.9853714,7.8497858 9.1147124,8.5392367 9.4149753,10.139768 11.23588,11.045246 14.483894,11.209875 c 0.933409,0.04731 1.873273,0.171632 2.088244,0.275952 0.513019,0.248931 0.885154,-0.0538 1.032495,-0.839225 0.125439,-0.6686614 0.583223,-0.9443644 0.884184,-0.532784 0.144108,0.197062 0.150377,0.494504 0.0217,1.056783 -0.148511,0.648991 -0.127723,0.861768 0.121957,1.242818 0.338892,0.517221 0.231985,1.149284 -0.194304,1.149284 -0.15212,0 -0.46046,-0.198787 -0.685229,-0.441317 -0.224771,-0.242541 -0.570804,-0.4408 -0.769462,-0.4408 -0.302499,0 -0.361219,0.112284 -0.361219,0.690914 0,0.379971 0.08928,0.720661 0.198438,0.75706 0.32983,0.109939 0.0026,1.122024 -0.686263,2.123385 -0.530061,0.770591 -0.65326,1.128925 -0.744657,2.160074 -0.08576,0.968092 -0.269912,1.550586 -0.849561,2.687175 -0.82246,1.61268 -0.925502,2.317127 -0.387573,2.653068 0.53866,0.3364 0.432778,0.826611 -0.542603,2.516642 -0.986811,1.70985 -1.086138,2.417126 -0.383439,2.725416 0.218281,0.09576 0.396875,0.258011 0.396875,0.360701 0,0.10269 -0.355706,0.778537 -0.790649,1.501717 -0.884651,1.470901 -0.912934,1.593601 -0.515731,2.266011 0.275524,0.46642 0.259049,0.512937 -0.79375,2.255676 -0.591309,0.978834 -1.07487,1.856885 -1.07487,1.950786 0,0.09395 0.198264,0.384773 0.4408,0.646472 0.242535,0.261689 0.441317,0.537917 0.441317,0.613916 0,0.219781 0.891438,0.958704 3.66851,3.040126 1.42618,1.068916 2.72837,2.053322 2.89388,2.187461 0.790861,0.641 4.033155,2.64038 6.247164,3.852479 2.634009,1.44205 6.910726,3.404089 9.503296,4.359941 0.87312,0.321908 1.615408,0.604033 1.64951,0.626835 0.03411,0.0228 -0.234524,1.455473 -0.596863,3.183784 -0.718007,3.42492 -0.71815,3.400724 0.09819,5.582605 l 0.374137,0.999422 h 1.355474 1.355471 l 0.317812,-2.244307 c 0.174699,-1.234469 0.352422,-2.279439 0.395324,-2.322338 0.144838,-0.14483 0.267139,0.107804 1.110009,2.295983 l 0.840775,2.182812 h 8.529711 c 5.755952,0 8.549809,-0.06 8.591209,-0.183967 0.03372,-0.101032 -1.070843,-0.796798 -2.454632,-1.546159 -1.383792,-0.749361 -3.388908,-1.846522 -4.456057,-2.438612 -1.067149,-0.5921 -2.329823,-1.22397 -2.805515,-1.403532 -0.4757,-0.179568 -1.388329,-0.676492 -2.028298,-1.104842 -0.639961,-0.428358 -2.396776,-1.413897 -3.904155,-2.190046 -1.507381,-0.77615 -3.006249,-1.572697 -3.330546,-1.769917 -0.324292,-0.19725 -0.680802,-0.323821 -0.792202,-0.28112 -0.111411,0.0427 -0.572413,-0.480735 -1.024742,-1.163754 -0.849339,-1.28248 -1.208519,-2.536597 -0.908989,-3.173966 0.127741,-0.271801 5.899266,-6.585412 11.151259,-12.198222 0.697658,-0.745601 1.261938,-1.506461 1.261938,-1.702221 0,-0.214241 -0.232259,-0.490794 -0.588079,-0.700733 -0.524658,-0.309549 -0.588079,-0.430678 -0.588079,-1.122929 0,-0.901329 -0.388927,-1.828313 -0.766876,-1.828313 -0.187309,0 -0.307007,0.314719 -0.419097,1.10226 -0.08629,0.60634 -0.24596,1.102256 -0.355016,1.102256 -0.251034,0 -5.24516,-1.376661 -5.34076,-1.47226 -0.03902,-0.03901 0.158107,-0.259533 0.438216,-0.489892 0.78622,-0.64656 6.034845,-4.635649 6.290056,-4.780588 0.158107,-0.0898 0.331399,0.146492 0.573606,0.783932 0.190802,0.50216 0.427903,0.940482 0.527101,0.973584 0.345522,0.115171 0.627316,-0.969826 0.505396,-1.945618 -0.09648,-0.77217 -0.05781,-1.013719 0.219626,-1.368909 0.519019,-0.664498 0.610684,-1.168435 0.383955,-2.113566 -0.150921,-0.6291 -0.38544,-1.023929 -0.852662,-1.434021 -0.354589,-0.31124 -0.725422,-0.727153 -0.823722,-0.923974 -0.09827,-0.196818 -0.695754,-0.757103 -1.328084,-1.245402 -0.632331,-0.488299 -1.16694,-0.958384 -1.18804,-1.044381 -0.02136,-0.08708 1.198179,-0.141257 2.75177,-0.121956 2.852888,0.03544 4.244366,-0.153899 4.641577,-0.63252 0.168328,-0.20283 0.142346,-0.320801 -0.127124,-0.578259 -0.256051,-0.244653 -0.938282,-0.394109 -2.807581,-0.6165 -1.358199,-0.161581 -2.727407,-0.338541 -3.042709,-0.392741 -0.6302,-0.108379 -0.786712,-0.411861 -0.212391,-0.411861 1.062508,0 1.617742,-1.748298 0.86093,-2.710429 -0.42283,-0.53753 -0.877615,-0.6244 -0.751893,-0.14366 0.04617,0.176561 -0.02232,0.409193 -0.151929,0.516764 -0.15698,0.130278 -2.324976,0.231574 -6.494176,0.304374 -3.442399,0.06009 -6.537032,0.16496 -6.876582,0.233061 -0.33955,0.0681 2.597674,0.163892 6.526734,0.21239 6.996758,0.08638 7.143749,0.09528 7.143749,0.4408 0,0.349779 -0.117967,0.35295 -12.950115,0.35295 -10.202931,0 -12.964975,0.04642 -13.022977,0.220142 -0.178048,0.533112 -0.735699,0.197145 -1.180289,-0.711585 -0.448623,-0.91694 -0.45122,-0.946319 -0.167949,-1.777669 0.319511,-0.9377098 0.707854,-1.21285 1.050582,-0.744141 0.168161,0.22996 0.178193,0.441688 0.03979,0.838709 -0.194239,0.557202 0.105917,1.909961 0.423747,1.909961 0.311158,0 0.349145,-0.544832 0.06821,-0.973584 C 20.392358,11.290329 20.52306,11.083496 22.394,9.3304031 25.928781,6.018314 31.07441,3.3993418 35.76011,2.5272008 c 3.54199,-0.65927 7.830034,0.2018699 9.781315,1.9647378 1.230248,1.1114511 2.152903,3.4200079 1.562695,3.9098389 -0.362659,0.3009792 -0.591323,0.054011 -0.825791,-0.892452 -0.268661,-1.08444 -0.931035,-2.0848404 -1.762165,-2.6608193 -1.49778,-1.0379612 -5.043458,-1.8322445 -7.15977,-1.6040364 -1.374058,0.1481698 -4.128442,0.830222 -5.621362,1.3921628 -1.819079,0.6846991 -4.843165,2.3047396 -6.228044,3.3362305 -1.665531,1.24051 -3.593062,2.9412289 -3.593062,3.1703489 0,0.125601 1.930894,0.147315 6.129341,0.06821 18.30973,-0.345148 17.938435,-0.333646 18.226794,-0.583426 0.15364,-0.133091 0.709617,-0.36956 1.235067,-0.52555 2.185286,-0.6487373 3.849509,-1.8338399 4.579572,-3.2607799 0.673647,-1.316673 0.789966,-3.7249517 0.510561,-6.03684079 H 33.157689 c -0.09238,0.02634 -0.210294,0.01971 -0.366385,0 z M 39.07619,4.6810744 c 0.570715,-0.01203 1.139235,0.071181 1.497584,0.2532145 2.167059,1.1008309 2.117455,4.2944904 -0.08113,5.2131181 -0.559376,0.233722 -1.7225,0.28779 -2.439129,0.113689 C 37.482576,10.122395 36.602934,9.3751245 36.303233,8.7743645 35.654003,7.4729456 36.243402,5.7097141 37.566205,4.9973343 37.932587,4.8000131 38.505479,4.6931024 39.07619,4.6810744 Z m 0.127125,0.9746176 c -0.124542,-0.0043 -0.253646,-3.627e-4 -0.386541,0.012402 -1.727858,0.1660179 -2.450221,2.0395068 -1.229381,3.1884358 0.25627,0.2411809 0.624525,0.4804339 0.818555,0.5312339 0.63006,0.1650499 1.750586,-0.0671 2.153872,-0.4459677 1.396775,-1.3121981 0.511617,-3.2209742 -1.356505,-3.286104 z M 21.718077,16.86121 c 0.172421,0.01326 0.392194,0.134635 0.701249,0.346748 0.567621,0.389559 0.703634,0.577702 0.617534,0.852662 -0.283009,0.903639 -0.268011,2.000004 0.03359,2.460315 0.60718,0.926669 1.884727,1.239584 2.905765,0.711584 0.51544,-0.266541 1.052649,-1.065278 1.052649,-1.565279 0,-0.406189 0.307934,-0.506946 1.159103,-0.379305 0.62134,0.09317 0.781346,0.188552 0.781346,0.466121 0,1.03242 -1.589421,2.817655 -2.81068,3.156914 -3.147591,0.87439 -6.110955,-2.106222 -5.103564,-5.13302 0.219887,-0.660676 0.375642,-0.938843 0.663008,-0.91674 z m 18.097087,7.813993 c 0.451831,0 0.452556,0.0028 0.348816,1.190625 -0.05719,0.654839 -0.138134,1.360284 -0.179835,1.567863 -0.08234,0.410009 -0.443666,0.628714 -0.733287,0.4439 -0.16705,-0.106598 -1.285711,-2.19505 -1.285711,-2.40037 0,-0.18761 1.417468,-0.802018 1.850017,-0.802018 z m -1.108978,4.612122 c 0.08788,-0.0058 0.177782,0.02212 0.275437,0.08371 0.301972,0.190482 1.135279,2.441766 0.966348,2.610694 -0.173879,0.173882 -1.955908,0.111165 -2.069639,-0.07286 -0.169781,-0.274698 0.279513,-2.265391 0.564822,-2.502172 0.0892,-0.07402 0.175148,-0.113527 0.263032,-0.119372 z M 10.291902,40.495943 c -0.199653,0.01394 -0.6523206,0.324249 -1.2671067,0.872815 -1.388986,1.239369 -2.4442271,1.90622 -4.5733641,2.888713 -0.921631,0.425289 -1.7817992,0.85186 -1.9115112,0.948261 -0.190741,0.141812 -0.2211951,1.172398 -0.1576132,5.388819 0.06815,4.51956 0.1265361,5.389145 0.4361491,6.536034 0.196424,0.727602 0.5302006,2.116505 0.7420736,3.086634 0.211873,0.97014 0.4173639,1.863106 0.4563029,1.984375 0.0557,0.17349 2.5730287,0.220658 11.8059976,0.220658 6.45447,0 11.735201,-0.04107 11.735201,-0.09147 0,-0.245409 -1.76341,-3.555608 -2.992582,-5.617228 -3.404399,-5.71 -6.416562,-9.366655 -11.244792,-13.650846 -1.502823,-1.33349 -2.834334,-2.482866 -2.958992,-2.554367 -0.01793,-0.01028 -0.04124,-0.01439 -0.06976,-0.0124 z m 25.632543,9.01392 c 0.01369,-0.007 0.02975,0.01941 0.04651,0.08372 0.0443,0.171619 0.04156,0.409744 -0.0067,0.529166 -0.0483,0.11942 -0.08565,-0.02111 -0.08165,-0.312126 0.0023,-0.181901 0.01905,-0.288449 0.04186,-0.300757 z m 0.756025,0.829924 c 0.01585,-0.0035 0.02932,-0.0034 0.03979,5.16e-4 0.01396,0.005 0.02229,0.01749 0.02429,0.03669 0.0079,0.0766 0.03053,0.357463 0.05013,0.624253 0.04297,0.58566 0.04225,0.585613 -0.285253,0.08578 -0.220868,-0.337082 -0.223879,-0.433951 -0.02015,-0.624252 0.07461,-0.06968 0.143658,-0.112515 0.191201,-0.122989 z m 0.506431,1.323432 c 0.100023,-0.0107 0.24555,0.08921 0.312643,0.264068 0.0559,0.145518 0.03801,0.264583 -0.03979,0.264583 -0.183841,0 -0.376722,-0.195866 -0.376722,-0.382405 0,-0.0935 0.04386,-0.139806 0.103869,-0.146246 z m 0.709518,0.05994 c 0.02108,0.004 0.04448,0.01239 0.06873,0.02739 0.09699,0.06 0.176218,0.144269 0.176218,0.187068 0,0.0428 -0.07922,0.07751 -0.176218,0.07751 -0.09699,0 -0.176215,-0.0838 -0.176215,-0.186552 0,-0.0771 0.04424,-0.11607 0.107487,-0.105421 z m -2.269115,0.485243 c 0.01645,0.004 0.02576,0.05309 0.03101,0.14831 0.0077,0.139261 0.181083,0.431456 0.385506,0.649057 0.204427,0.217599 0.343109,0.478983 0.308509,0.580843 -0.03465,0.10187 -0.249163,-0.08751 -0.476975,-0.420646 -0.227801,-0.333121 -0.373375,-0.708448 -0.322977,-0.834059 0.03446,-0.0859 0.05848,-0.127375 0.07493,-0.123505 z m 2.633433,0.205672 c 0.02837,0.008 0.05907,0.05751 0.09354,0.147277 0.06638,0.172972 -0.01332,0.272381 -0.232029,0.288872 -0.183369,0.0138 -0.333311,-0.0542 -0.333311,-0.150894 0,-0.0967 0.07253,-0.130726 0.161229,-0.07597 0.08873,0.0548 0.193026,0.004 0.232029,-0.112654 0.02414,-0.0724 0.05018,-0.105077 0.07855,-0.09664 z m 0.340547,0.722952 c 0.0124,-0.004 0.02907,-6e-5 0.05013,0.01292 0.08419,0.052 0.192513,0.245666 0.240813,0.430464 h 5.16e-4 c 0.148471,0.567772 -0.13865,0.786093 -0.36897,0.280604 -0.159538,-0.349949 -0.159506,-0.426961 -5.16e-4,-0.328663 0.1415,0.0875 0.170665,0.0321 0.09147,-0.174149 -0.04793,-0.124849 -0.05062,-0.208984 -0.01344,-0.221176 z m 0.528133,1.143085 c 0.06111,0.0176 0.154045,0.16279 0.287837,0.443899 0.346432,0.727851 0.322855,0.789184 -0.117306,0.302824 -0.169021,-0.186809 -0.280847,-0.475737 -0.248046,-0.642337 0.01563,-0.0795 0.04086,-0.114956 0.07751,-0.104386 z m -1.693437,0.910021 c 0.0091,-0.009 0.08078,0.0443 0.22066,0.153996 0.16977,0.133148 0.308507,0.272425 0.308507,0.309025 0,0.145179 -0.144741,0.0515 -0.375172,-0.242364 -0.109698,-0.13988 -0.163099,-0.211547 -0.153995,-0.220657 z m 1.820561,2.329056 c 0.03636,0.005 0.08865,0.039 0.151929,0.102319 0.114591,0.1148 0.16792,0.249624 0.117822,0.299723 -0.117722,0.117721 -0.326594,-0.0906 -0.326594,-0.326078 0,-0.0552 0.02048,-0.08056 0.05684,-0.07596 z m 0.758095,1.206129 c 0.0081,-0.0018 0.01837,-6.69e-4 0.031,0.0031 0.06062,0.0181 0.1725,0.100666 0.327628,0.255797 0.146388,0.14638 0.239741,0.337582 0.20774,0.42478 -0.03205,0.0872 -0.200861,-0.03259 -0.375171,-0.266133 -0.192601,-0.25808 -0.248013,-0.40507 -0.191201,-0.417545 z m 0.813903,0.921391 c 0.01574,-0.0111 0.09579,0.0665 0.210323,0.207737 0.15272,0.188323 0.277502,0.406226 0.277502,0.484727 0,0.25413 -0.184269,0.151257 -0.29714,-0.165883 -0.06042,-0.16978 -0.143266,-0.388241 -0.183967,-0.48524 -0.01018,-0.0242 -0.01198,-0.03764 -0.0067,-0.04134 z M 2.45207,60.037901 c -0.06675,0.0229 -0.1173055,0.393467 -0.1173055,0.902787 0,0.58796 0.09376,1.152618 0.2113566,1.270209 0.251984,0.251958 0.4940267,0.275685 0.4940267,0.04857 0,-0.37919 -0.4238382,-2.055357 -0.5586222,-2.209168 -0.0101,-0.0115 -0.019916,-0.0157 -0.029456,-0.0124 z m 39.196574,0.796851 c 0.09701,0 0.225253,0.0792 0.285253,0.176217 0.05993,0.097 0.02982,0.176734 -0.06718,0.176734 -0.09701,0 -0.225772,-0.0797 -0.285771,-0.176734 -0.05994,-0.097 -0.02931,-0.176217 0.0677,-0.176217 z m 0.362768,0.529166 c 0.1027,0 0.187068,0.07921 0.187068,0.176218 0,0.097 -0.03523,0.176734 -0.07803,0.176734 -0.04278,0 -0.12655,-0.0797 -0.186552,-0.176734 -0.05994,-0.097 -0.02523,-0.176218 0.07751,-0.176218 z m 0.609266,0.176218 c 0.03813,0 0.114732,0.119063 0.170532,0.264583 0.05586,0.145529 0.02475,0.264584 -0.06925,0.264584 -0.09396,0 -0.170531,-0.119055 -0.170531,-0.264584 0,-0.14552 0.03115,-0.264583 0.06925,-0.264583 z m -30.923177,0.882116 c -0.355601,0.3556 -0.711002,1.121701 -1.066602,2.298567 -0.414867,1.3462 -0.7115514,2.548684 -0.8893514,3.607017 -0.1016003,0.626534 -0.1736743,1.451867 -0.2160077,2.476333 -0.033867,0.931334 -0.1098764,1.57058 -0.2284097,1.917714 -0.1693334,0.4826 -0.4571133,0.884909 -0.8635132,1.206643 0.5587999,-0.04233 0.9946639,-0.08034 1.3079306,-0.114205 0.7281334,-0.0508 1.2276834,-0.05919 1.4986164,-0.02532 0.550334,0.0508 1.020267,0.08881 1.409733,0.114205 -0.211667,-0.1016 -0.406144,-0.22452 -0.583944,-0.368454 -0.110066,-0.1016 -0.224598,-0.20329 -0.343131,-0.30489 -0.118533,-0.110066 -0.177767,-0.347001 -0.177767,-0.711067 0.0085,-0.855134 0.01685,-1.58323 0.02532,-2.184363 l 0.02532,-0.291973 h 4.127913 c 0.0254,0.347133 0.03772,0.65169 0.03772,0.914156 0,0.872067 -0.15202,1.507377 -0.45682,1.90531 -0.3048,0.389467 -0.804349,0.740418 -1.498616,1.053685 0.668867,-0.1016 1.362893,-0.147995 2.08256,-0.139528 1.049867,0.0254 1.752798,0.08018 2.108398,0.164848 -0.287866,-0.2794 -0.432015,-0.681193 -0.432015,-1.206127 0,-0.09313 0.0084,-0.237283 0.02532,-0.432017 0.01693,-0.194733 0.02532,-0.338365 0.02532,-0.431498 0,-0.499533 -0.0844,-1.206915 -0.253731,-2.121315 -0.143933,-0.762 -0.389773,-1.426411 -0.736906,-1.993678 -0.372533,-0.592667 -0.973257,-1.278305 -1.802991,-2.057239 -0.220133,-0.2032 -0.918612,-0.711139 -2.095479,-1.523939 -0.787399,-0.550333 -1.160094,-0.965483 -1.117761,-1.244886 z m 47.256028,0.01292 c -0.4318,0.270934 -0.711189,0.435795 -0.838189,0.495059 -0.296334,0.13547 -0.651735,0.207542 -1.066602,0.216009 h -1.460894 c -0.313267,0 -0.761971,-0.0045 -1.346171,-0.01292 h -1.320332 c -0.7874,0 -1.316566,-0.01677 -1.5875,-0.05064 -0.4572,-0.05927 -0.948362,-0.249809 -1.473295,-0.571542 0.245533,0.4318 0.406458,0.800041 0.482658,1.104841 0.0254,0.220134 0.05501,0.440294 0.08888,0.660427 0.0762,0.516467 0.08014,1.126093 0.0124,1.828826 0.6096,-1.388533 1.23207,-2.201026 1.86707,-2.438093 0.143933,-0.0508 0.279175,-0.07648 0.406177,-0.07648 0.160864,0 0.283785,0.04246 0.368451,0.127124 0.09313,0.08467 0.160756,0.173517 0.203089,0.26665 0.01693,0.05927 0.03423,0.152569 0.05116,0.279569 v 0.456819 c 0.0254,2.150534 0.03772,4.402961 0.03772,6.756694 0,-0.0508 0.0045,-0.04241 0.01292,0.02532 v 0.279569 0.279051 c 0,0.397934 -0.08046,0.703006 -0.241329,0.914675 -0.296334,0.380998 -0.859571,0.719625 -1.689304,1.015958 0.905933,-0.0762 1.528403,-0.135435 1.867069,-0.177768 0.4318,-0.0508 0.732423,-0.07648 0.901756,-0.07648 0.338667,0 0.804145,0.03407 1.396812,0.101804 0.694267,0.0762 1.164201,0.122592 1.409734,0.139525 -0.880533,-0.389466 -1.413637,-0.681699 -1.599903,-0.876432 -0.135467,-0.143933 -0.203605,-0.342863 -0.203605,-0.596863 0.0085,-0.1016 0.01292,-0.185997 0.01292,-0.25373 v -7.41712 c 0,-0.6604 0.135244,-1.024189 0.406177,-1.091922 0.160867,-0.04233 0.283784,-0.06356 0.368451,-0.06356 0.194733,0 0.380823,0.06368 0.558623,0.190685 0.3556,0.245534 0.673513,0.757407 0.952913,1.53634 0.1016,0.237067 0.182062,0.419219 0.241329,0.546219 l 0.02532,-0.27905 c 0.0762,-0.804334 0.147756,-1.346343 0.21549,-1.625743 l 0.07648,-0.203086 c 0.1524,-0.364067 0.44018,-0.834001 0.863513,-1.409735 z m -49.6011052,0.0124 c -0.6519333,0.4826 -1.3632531,0.821224 -2.1337198,1.015958 -0.6434666,0.160866 -1.4307963,0.241329 -2.3621296,0.241329 -1.4647333,0 -2.4470568,-0.11008 -2.9465902,-0.330214 L 1.0464711,62.993794 c 0.5334,0.448733 0.8507966,0.740966 0.9523966,0.876432 0.4318,0.313267 0.6564106,0.92683 0.6733439,1.84123 0.033867,2.015067 0.033867,3.852344 0,5.511811 -0.016933,0.668866 -0.148241,1.194096 -0.3937744,1.575096 -0.2963333,0.465667 -0.6986447,0.833909 -1.2066447,1.104842 1.3885333,-0.220133 2.1674749,-0.330213 2.3368083,-0.330213 0.2878666,0 0.5717108,0.02516 0.8511109,0.07596 0.2201331,0.0508 0.3726696,0.0888 0.4573363,0.114205 0.1693333,0.0254 0.6895952,0.05947 1.5616618,0.101804 C 5.9569765,73.771831 5.6864895,73.666204 5.4663562,73.547671 5.3478229,73.488404 5.1696053,73.378324 4.9325387,73.217458 4.8055387,73.132791 4.6999123,73.018261 4.6152456,72.874328 4.572912,72.806594 4.509226,72.662963 4.4245593,72.442829 4.2636927,72.146496 4.1832305,71.0921 4.1832305,69.28023 v -0.06356 c 1.1684,-0.0085 1.9858632,-0.0124 2.4515299,-0.0124 V 68.41672 H 4.1961496 l -0.012919,-0.127127 c 0.00847,-0.9652 0.021307,-1.549146 0.038241,-1.752346 0.059267,-0.9398 0.1565053,-1.50749 0.2919719,-1.702223 0.2794,-0.397933 0.7197162,-0.596863 1.3208495,-0.596863 0.9313333,0 1.4861812,0.508455 1.6639812,1.524455 0.00847,0.06773 0.046471,0.0929 0.1142048,0.07596 0.067733,0 0.092898,-0.03407 0.075965,-0.101801 -0.0254,-0.4318 0.076291,-0.926899 0.304891,-1.485699 0.1016,-0.186267 0.2709124,-0.431589 0.5079793,-0.736389 z m 26.4490322,0.241329 c -0.651934,0.778933 -1.185037,1.168403 -1.599904,1.168403 -0.118533,0 -0.241451,-0.01677 -0.368451,-0.05064 -0.626533,-0.237067 -1.303784,-0.355532 -2.031918,-0.355532 -0.821266,0 -1.532588,0.16486 -2.133721,0.49506 -1.6002,1.126066 -2.400369,2.713566 -2.400369,4.7625 0,1.083733 0.283844,2.078897 0.851111,2.98483 0.567267,0.897467 1.341755,1.574718 2.323889,2.031918 0.5334,0.143934 1.041336,0.21549 1.523936,0.21549 0.2794,0 0.6901,-0.05033 1.231966,-0.151929 0.541867,-0.1016 0.948632,-0.152445 1.219566,-0.152445 0.118533,0 0.219707,0.01232 0.304374,0.03772 0.194733,-0.03387 0.575818,0.139899 1.143082,0.520899 -0.3048,-0.5588 -0.456819,-1.134361 -0.456819,-1.727028 0,-0.508 0.06762,-1.321009 0.203088,-2.438609 0.01693,-0.05927 -0.0043,-0.09334 -0.06356,-0.101804 -0.05927,-0.01693 -0.09727,0.0087 -0.114205,0.07648 -0.406397,1.354666 -1.092554,2.332537 -2.057754,2.933671 -0.448734,0.279399 -0.85498,0.419097 -1.219047,0.419097 -0.397933,0 -0.808633,-0.156472 -1.231966,-0.469739 -1.1938,-0.880533 -1.790589,-2.298721 -1.790589,-4.254521 0,-0.745067 0.105627,-1.473163 0.317294,-2.184363 0.4826,-1.617133 1.342003,-2.425692 2.578137,-2.425692 0.541866,0 1.045869,0.160925 1.511535,0.482658 0.440267,0.3048 0.774438,0.711047 1.003041,1.219047 0.1524,0.338667 0.339005,1.113155 0.559139,2.323891 0.0762,-0.592669 0.109751,-1.138611 0.101285,-1.638144 -0.0254,-1.2192 0.173529,-2.459686 0.596863,-3.721219 z m 0.346749,0.01292 c 0.321734,0.09313 0.592736,0.203213 0.812869,0.330213 0.118533,0.0762 0.279458,0.194667 0.482658,0.355534 0.118534,0.09313 0.215771,0.266382 0.291973,0.520382 0.0762,0.245534 0.114205,0.453367 0.114205,0.6227 v 6.235279 c 0,0.6096 -0.05924,1.172837 -0.177768,1.689301 -0.127,0.56727 -0.55054,0.990809 -1.270207,1.270209 -0.0762,0.03387 -0.101364,0.07581 -0.07596,0.126606 0.03387,0.05927 0.08026,0.0805 0.139525,0.06356 0.795867,-0.220134 1.553581,-0.330214 2.273247,-0.330214 0.338667,0 1.033212,0.152538 2.083078,0.457335 -0.651933,-0.423333 -1.054245,-0.791575 -1.206645,-1.104841 -0.0762,-0.1524 -0.118658,-0.42734 -0.127125,-0.825273 V 66.16879 c 0.0085,-0.389467 0.01292,-0.901856 0.01292,-1.536856 0.0508,-0.474134 0.36426,-0.918387 0.939993,-1.333254 -0.524933,0.135467 -0.965248,0.169021 -1.320848,0.101288 -0.135466,-0.0254 -0.304778,-0.08857 -0.507978,-0.19017 -0.23707,-0.110066 -0.44884,-0.190529 -0.635106,-0.241329 -0.6096,-0.169333 -1.219227,-0.258185 -1.828827,-0.266652 z m -9.992156,0.291973 c -0.465666,0.448733 -0.749511,0.711348 -0.851111,0.787548 -0.296333,0.211667 -0.62657,0.317294 -0.990637,0.317294 -0.135467,0 -0.287486,-0.01284 -0.456819,-0.03824 -0.127,-0.01693 -0.533764,-0.105783 -1.219564,-0.266649 -0.474134,-0.110067 -0.863604,-0.164849 -1.168404,-0.164849 -0.5588,0 -1.062286,0.164859 -1.511019,0.495059 -0.728134,0.541867 -1.084052,1.307968 -1.067118,2.298568 0.01693,1.083733 0.745546,1.917972 2.184879,2.502175 0.745067,0.296333 1.261393,0.50365 1.549259,0.622184 0.643467,0.270933 1.096107,0.51232 1.358574,0.723987 0.381,0.3048 0.571541,0.736727 0.571541,1.295527 0,0.491067 -0.194477,0.876086 -0.583943,1.155486 -0.338667,0.245533 -0.762207,0.368453 -1.270207,0.368453 -1.659467,0 -2.662502,-1.100791 -3.009636,-3.302124 -0.0085,-0.05927 -0.04647,-0.08888 -0.114204,-0.08888 -0.0508,0.0085 -0.07648,0.04647 -0.07648,0.114204 l -0.05064,1.82883 c -0.118533,0.973666 -0.474451,1.75706 -1.067118,2.349727 -0.0254,0.0254 -0.03772,0.05057 -0.03772,0.07596 0,0.05927 0.02962,0.08888 0.08888,0.08888 0.0254,0 0.04663,-0.0084 0.06356,-0.02532 0.626533,-0.499533 1.223322,-0.749308 1.790588,-0.749308 0.1778,0 0.461128,0.0553 0.850594,0.165365 0.719667,0.2032 1.304131,0.304374 1.752865,0.304374 0.889,0 1.55341,-0.152019 1.993677,-0.456819 0.889,-0.6096 1.333768,-1.380154 1.333768,-2.311487 0,-0.186267 -0.01678,-0.363966 -0.05064,-0.5333 -0.1778,-0.922866 -0.643797,-1.625798 -1.39733,-2.108398 -0.313267,-0.2032 -1.130214,-0.533437 -2.451014,-0.990637 -0.668866,-0.237067 -1.075113,-0.389604 -1.219047,-0.457338 -0.592666,-0.296333 -0.889351,-0.710969 -0.889351,-1.244367 0,-0.448736 0.152537,-0.813041 0.457337,-1.092441 0.304799,-0.2794 0.685882,-0.414644 1.143082,-0.406177 0.2286,0 0.609683,0.06369 1.143083,0.190688 0.897466,0.313266 1.422181,0.744677 1.574581,1.295011 l 0.03824,1.283126 c 0.245534,-0.677334 0.440011,-1.219341 0.583944,-1.625743 0.296333,-0.846664 0.631023,-1.646836 1.003556,-2.400369 z m 23.291601,0 c -0.465666,0.448733 -0.749511,0.711348 -0.851111,0.787548 -0.296333,0.211667 -0.626571,0.317294 -0.990637,0.317294 -0.135467,0 -0.287486,-0.01284 -0.456819,-0.03824 -0.127,-0.01693 -0.533763,-0.105783 -1.219565,-0.266649 -0.474131,-0.110067 -0.863603,-0.164849 -1.168403,-0.164849 -0.5588,0 -1.062286,0.164859 -1.511019,0.495059 -0.728134,0.541867 -1.084051,1.307968 -1.067118,2.298568 0.01693,1.083733 0.745546,1.917972 2.184879,2.502175 0.745067,0.296333 1.261393,0.50365 1.54926,0.622184 0.643466,0.270933 1.096108,0.51232 1.358574,0.723987 0.381,0.3048 0.57154,0.736727 0.57154,1.295527 0,0.491067 -0.194477,0.876086 -0.583943,1.155486 -0.338667,0.245533 -0.762207,0.368453 -1.270207,0.368453 -1.659466,0 -2.662502,-1.100791 -3.009635,-3.302124 -0.0085,-0.05927 -0.04647,-0.08888 -0.114205,-0.08888 -0.0508,0.0085 -0.07648,0.04647 -0.07648,0.114204 l -0.05064,1.82883 c -0.118534,0.973666 -0.474451,1.75706 -1.067118,2.349727 -0.0254,0.0254 -0.03772,0.05057 -0.03772,0.07596 0,0.05927 0.02962,0.08888 0.08888,0.08888 0.0254,0 0.04663,-0.0084 0.06356,-0.02532 0.626533,-0.499533 1.223322,-0.749308 1.790589,-0.749308 0.1778,0 0.461126,0.0553 0.850593,0.165365 0.719666,0.2032 1.304131,0.304374 1.752864,0.304374 0.889,0 1.553411,-0.152019 1.993678,-0.456819 0.889,-0.6096 1.333767,-1.380154 1.333767,-2.311487 0,-0.186267 -0.01677,-0.363966 -0.05064,-0.5333 -0.1778,-0.922866 -0.643797,-1.625798 -1.397331,-2.108398 -0.313266,-0.2032 -1.130212,-0.533437 -2.451012,-0.990637 -0.668867,-0.237067 -1.075116,-0.389604 -1.219049,-0.457338 -0.592667,-0.296333 -0.88935,-0.710969 -0.88935,-1.244367 0,-0.448736 0.152535,-0.813041 0.457335,-1.092441 0.3048,-0.2794 0.685882,-0.414644 1.143082,-0.406177 0.2286,0 0.609685,0.06369 1.143085,0.190688 0.897467,0.313266 1.42218,0.744677 1.57458,1.295011 l 0.03824,1.283126 c 0.245533,-0.677334 0.44001,-1.219341 0.583943,-1.625743 0.296333,-0.846664 0.631023,-1.646836 1.003556,-2.400369 z m -37.267492,1.5875 c 0.245533,0.169333 0.461239,0.325805 0.647506,0.469738 1.0414,0.719667 1.777884,1.532679 2.209684,2.438612 0.254,0.524933 0.444542,1.121722 0.571542,1.790586 h -3.94963 c 0.0254,-1.524 0.199165,-3.090269 0.520898,-4.698936 z"
       style="fill:#c93b1b;fill-opacity:1;stroke-width:1"
       id="path74" />
    <g
       style="font-size:12.7px;line-height:1.25;font-family:'Latin Modern Sans';-inkscape-font-specification:'Latin Modern Sans';fill:#c93b1b;fill-opacity:1;stroke-width:0.264583"
       id="text954"
       aria-label="FASCIST" />
  </g>
</svg>
