<?xml version="1.0" encoding="UTF-8" standalone="no"?>
<svg
   xmlns:dc="http://purl.org/dc/elements/1.1/"
   xmlns:cc="http://creativecommons.org/ns#"
   xmlns:rdf="http://www.w3.org/1999/02/22-rdf-syntax-ns#"
   xmlns:svg="http://www.w3.org/2000/svg"
   xmlns="http://www.w3.org/2000/svg"
   xmlns:sodipodi="http://sodipodi.sourceforge.net/DTD/sodipodi-0.dtd"
   xmlns:inkscape="http://www.inkscape.org/namespaces/inkscape"
   sodipodi:docname="gear.svg"
   inkscape:version="1.0 (4035a4f, 2020-05-01)"
   id="svg8"
   version="1.1"
   viewBox="0 0 13 13"
   height="13mm"
   width="13mm">
  <defs
     id="defs2">
    <inkscape:path-effect
       min_radius="5"
       phi="20"
       teeth="8"
       lpeversion="1"
       is_visible="true"
       id="path-effect835"
       effect="gears" />
  </defs>
  <sodipodi:namedview
     inkscape:window-maximized="0"
     inkscape:window-y="25"
     inkscape:window-x="0"
     inkscape:window-height="785"
     inkscape:window-width="1252"
     showgrid="false"
     inkscape:document-rotation="0"
     inkscape:current-layer="layer1"
     inkscape:document-units="mm"
     inkscape:cy="33.927863"
     inkscape:cx="21.025263"
     inkscape:zoom="6.6425594"
     inkscape:pageshadow="2"
     inkscape:pageopacity="0.0"
     borderopacity="1.0"
     bordercolor="#666666"
     pagecolor="#ffffff"
     id="base" />
  <metadata
     id="metadata5">
    <rdf:RDF>
      <cc:Work
         rdf:about="">
        <dc:format>image/svg+xml</dc:format>
        <dc:type
           rdf:resource="http://purl.org/dc/dcmitype/StillImage" />
        <dc:title></dc:title>
      </cc:Work>
    </rdf:RDF>
  </metadata>
  <g
     id="layer1"
     inkscape:groupmode="layer"
     inkscape:label="Layer 1">
    <path
       d="m 6.5346289,0.2511349 c -0.112747,-5.3e-4 -0.225306,0.0021 -0.337963,0.0072 -0.78396,0.98648 -0.656291,1.643311 -0.656291,1.643311 l 0.193786,0.928108 c -0.445272,0.0929 -0.869857,0.26616 -1.253151,0.51108 l -0.51108,-0.798918 c 0,0 -0.367768,-0.559144 -1.6179904,-0.716235 -0.168738,0.14971 -0.3290146,0.308364 -0.4805918,0.475422 0.1432084,1.251892 0.6976322,1.626259 0.6976322,1.626259 l 0.79375,0.519348 c -0.249158,0.38055 -0.427188,0.803248 -0.525031,1.247468 L 1.911657,5.4900799 c 0,0 -0.6554205,-0.134755 -1.65054484,0.638204 -0.013441,0.225179 -0.014605,0.450618 -0.00362,0.675929 0.98648304,0.783957 1.64330844,0.656288 1.64330844,0.656288 l 0.9281063,-0.193786 c 0.09291,0.44527 0.26616,0.869855 0.511079,1.253154 l -0.798917,0.51108 c 0,0 -0.5591465,0.367771 -0.7162376,1.6179901 0.1497119,0.168738 0.3083587,0.32901 0.4754245,0.480589 1.2518891,-0.143208 1.6262561,-0.697632 1.6262561,-0.697632 l 0.519348,-0.7937501 c 0.38055,0.249161 0.803259,0.4271831 1.247471,0.5250341 l -0.204124,0.926042 c 0,0 -0.134757,0.655426 0.638204,1.650545 0.225177,0.01349 0.450615,0.01421 0.675929,0.0036 0.783958,-0.98648 0.656291,-1.643311 0.656291,-1.643311 l -0.193786,-0.928108 c 0.44527,-0.0929 0.86986,-0.2661601 1.253151,-0.5110801 l 0.511082,0.7994361 c 0,0 0.367763,0.558628 1.6179881,0.715717 0.168738,-0.149709 0.329015,-0.308361 0.480592,-0.475422 C 10.985455,9.4487099 10.431026,9.0743399 10.431026,9.0743399 L 9.6372759,8.5549919 c 0.249161,-0.38055 0.4271861,-0.803248 0.5250311,-1.247468 l 0.926042,0.204121 c 0,0 0.655423,0.134757 1.650545,-0.638202 0.01344,-0.225171 0.0146,-0.450609 0.0036,-0.675928 -0.986457,-0.78395 -1.643312,-0.656291 -1.643312,-0.656291 l -0.928108,0.193786 c -0.09291,-0.44527 -0.2661601,-0.869863 -0.5110821,-1.253154 l 0.7994361,-0.51108 c 0,0 0.558628,-0.367768 0.715719,-1.617987 -0.149709,-0.168741 -0.308359,-0.329023 -0.475425,-0.480592 -1.2518891,0.1432 -1.6262561,0.697632 -1.6262561,0.697632 l -0.519348,0.79375 c -0.38055,-0.249161 -0.803256,-0.427194 -1.24747,-0.525031 l 0.204123,-0.926042 c 0,0 0.134755,-0.655426 -0.638204,-1.650548 -0.112591,-0.007 -0.225219,-0.01024 -0.337966,-0.01085 z m -0.03462,4.139281 a 2.1103532,2.1103532 0 0 1 2.110465,2.110465 2.1103532,2.1103532 0 0 1 -2.110465,2.110465 2.1103532,2.1103532 0 0 1 -2.110467,-2.110465 2.1103532,2.1103532 0 0 1 2.110467,-2.110465 z"
       style="fill:#ffffff;stroke:#ffffff;stroke-width:0.26458300000000001px;stroke-linecap:butt;stroke-linejoin:miter;stroke-opacity:0"
       id="path833" />
  </g>
</svg>
