<?xml version="1.0" encoding="UTF-8" standalone="no"?>
<svg
   xmlns:dc="http://purl.org/dc/elements/1.1/"
   xmlns:cc="http://creativecommons.org/ns#"
   xmlns:rdf="http://www.w3.org/1999/02/22-rdf-syntax-ns#"
   xmlns:svg="http://www.w3.org/2000/svg"
   xmlns="http://www.w3.org/2000/svg"
   xmlns:sodipodi="http://sodipodi.sourceforge.net/DTD/sodipodi-0.dtd"
   xmlns:inkscape="http://www.inkscape.org/namespaces/inkscape"
   inkscape:version="1.0 (4035a4f, 2020-05-01)"
   sodipodi:docname="gear.svg"
   xml:space="preserve"
   style="enable-background:new 0 0 25 25.001;"
   viewBox="0 0 25 25.001"
   height="25.001px"
   width="25px"
   y="0px"
   x="0px"
   id="Capa_1"
   version="1.1"><metadata
   id="metadata872"><rdf:RDF><cc:Work
       rdf:about=""><dc:format>image/svg+xml</dc:format><dc:type
         rdf:resource="http://purl.org/dc/dcmitype/StillImage" /></cc:Work></rdf:RDF></metadata><defs
   id="defs870" /><sodipodi:namedview
   inkscape:current-layer="Capa_1"
   inkscape:window-maximized="1"
   inkscape:window-y="25"
   inkscape:window-x="0"
   inkscape:cy="12.704865"
   inkscape:cx="13.009593"
   inkscape:zoom="19.071242"
   showgrid="false"
   id="namedview868"
   inkscape:window-height="785"
   inkscape:window-width="1440"
   inkscape:pageshadow="2"
   inkscape:pageopacity="0"
   guidetolerance="10"
   gridtolerance="10"
   objecttolerance="10"
   borderopacity="1"
   bordercolor="#666666"
   pagecolor="#ffffff" />
<g
   style="fill:#ffffff"
   id="g835">
	<path
   style="fill:#ffffff"
   id="path833"
   d="M24.38,10.175l-2.231-0.268c-0.228-0.851-0.562-1.655-0.992-2.401l1.387-1.763c0.212-0.271,0.188-0.69-0.057-0.934   l-2.299-2.3c-0.242-0.243-0.662-0.269-0.934-0.057l-1.766,1.389c-0.743-0.43-1.547-0.764-2.396-0.99L14.825,0.62   C14.784,0.279,14.469,0,14.125,0h-3.252c-0.344,0-0.659,0.279-0.699,0.62L9.906,2.851c-0.85,0.227-1.655,0.562-2.398,0.991   L5.743,2.455c-0.27-0.212-0.69-0.187-0.933,0.056L2.51,4.812C2.268,5.054,2.243,5.474,2.456,5.746L3.842,7.51   c-0.43,0.744-0.764,1.549-0.991,2.4l-2.23,0.267C0.28,10.217,0,10.532,0,10.877v3.252c0,0.344,0.279,0.657,0.621,0.699l2.231,0.268   c0.228,0.848,0.561,1.652,0.991,2.396l-1.386,1.766c-0.211,0.271-0.187,0.69,0.057,0.934l2.296,2.301   c0.243,0.242,0.663,0.269,0.933,0.057l1.766-1.39c0.744,0.43,1.548,0.765,2.398,0.991l0.268,2.23   c0.041,0.342,0.355,0.62,0.699,0.62h3.252c0.345,0,0.659-0.278,0.699-0.62l0.268-2.23c0.851-0.228,1.655-0.562,2.398-0.991   l1.766,1.387c0.271,0.212,0.69,0.187,0.933-0.056l2.299-2.301c0.244-0.242,0.269-0.662,0.056-0.935l-1.388-1.764   c0.431-0.744,0.764-1.548,0.992-2.397l2.23-0.268C24.721,14.785,25,14.473,25,14.127v-3.252   C25.001,10.529,24.723,10.216,24.38,10.175z M12.501,18.75c-3.452,0-6.25-2.798-6.25-6.25s2.798-6.25,6.25-6.25   s6.25,2.798,6.25,6.25S15.954,18.75,12.501,18.75z" />
</g>
<g
   id="g837">
</g>
<g
   id="g839">
</g>
<g
   id="g841">
</g>
<g
   id="g843">
</g>
<g
   id="g845">
</g>
<g
   id="g847">
</g>
<g
   id="g849">
</g>
<g
   id="g851">
</g>
<g
   id="g853">
</g>
<g
   id="g855">
</g>
<g
   id="g857">
</g>
<g
   id="g859">
</g>
<g
   id="g861">
</g>
<g
   id="g863">
</g>
<g
   id="g865">
</g>
</svg>
