<svg xmlns="http://www.w3.org/2000/svg" xml:space="preserve" style="enable-background:new 0 0 25 25.001" height="25.001" width="25"><path style="fill:#fff" d="m24.38 10.175-2.231-.268a9.962 9.962 0 0 0-.992-2.401l1.387-1.763a.723.723 0 0 0-.057-.934l-2.299-2.3a.726.726 0 0 0-.934-.057l-1.766 1.389a9.825 9.825 0 0 0-2.396-.99L14.825.62a.724.724 0 0 0-.7-.62h-3.252a.723.723 0 0 0-.699.62l-.268 2.231a9.904 9.904 0 0 0-2.398.991L5.743 2.455a.724.724 0 0 0-.933.056l-2.3 2.301a.725.725 0 0 0-.054.934L3.842 7.51a9.879 9.879 0 0 0-.991 2.4l-2.23.267a.724.724 0 0 0-.621.7v3.252c0 .344.279.657.621.699l2.231.268a9.94 9.94 0 0 0 .991 2.396l-1.386 1.766a.726.726 0 0 0 .057.934l2.296 2.301a.726.726 0 0 0 .933.057l1.766-1.39c.744.43 1.548.765 2.398.991l.268 2.23c.041.342.355.62.699.62h3.252a.721.721 0 0 0 .699-.62l.268-2.23a9.928 9.928 0 0 0 2.398-.991l1.766 1.387c.271.212.69.187.933-.056l2.299-2.301a.724.724 0 0 0 .056-.935l-1.388-1.764a9.893 9.893 0 0 0 .992-2.397l2.23-.268a.722.722 0 0 0 .621-.699v-3.252a.72.72 0 0 0-.62-.7zM12.501 18.75a6.25 6.25 0 1 1 0-12.5 6.25 6.25 0 0 1 0 12.5z"/></svg>