<?xml version="1.0" encoding="UTF-8" standalone="no"?>
<svg
   xmlns:dc="http://purl.org/dc/elements/1.1/"
   xmlns:cc="http://creativecommons.org/ns#"
   xmlns:rdf="http://www.w3.org/1999/02/22-rdf-syntax-ns#"
   xmlns:svg="http://www.w3.org/2000/svg"
   xmlns="http://www.w3.org/2000/svg"
   xmlns:sodipodi="http://sodipodi.sourceforge.net/DTD/sodipodi-0.dtd"
   xmlns:inkscape="http://www.inkscape.org/namespaces/inkscape"
   sodipodi:docname="hitler.svg"
   inkscape:version="1.0 (4035a4f, 2020-05-01)"
   id="svg8"
   version="1.1"
   viewBox="0 0 55 75"
   height="75mm"
   width="55mm">
  <defs
     id="defs2" />
  <sodipodi:namedview
     inkscape:window-maximized="0"
     inkscape:window-y="25"
     inkscape:window-x="0"
     inkscape:window-height="781"
     inkscape:window-width="1252"
     showgrid="false"
     inkscape:document-rotation="0"
     inkscape:current-layer="layer1"
     inkscape:document-units="mm"
     inkscape:cy="275.27513"
     inkscape:cx="196.67915"
     inkscape:zoom="0.90600565"
     inkscape:pageshadow="2"
     inkscape:pageopacity="0.0"
     borderopacity="1.0"
     bordercolor="#666666"
     pagecolor="#ffffff"
     id="base" />
  <metadata
     id="metadata5">
    <rdf:RDF>
      <cc:Work
         rdf:about="">
        <dc:format>image/svg+xml</dc:format>
        <dc:type
           rdf:resource="http://purl.org/dc/dcmitype/StillImage" />
        <dc:title></dc:title>
      </cc:Work>
    </rdf:RDF>
  </metadata>
  <g
     id="layer1"
     inkscape:groupmode="layer"
     inkscape:label="Layer 1">
    <path
       d="m 11.101001,0.47900354 -1.1270627,5.1594e-4 c 0.03898,0.09401 0.064079,0.20651123 0.064079,0.31522625 0,0.64172707 2.030732,2.40488977 3.75636,3.26129967 1.51002,0.7494299 1.97515,1.0970906 1.467611,1.0970906 -0.314801,0 -0.523882,0.2857315 -0.379822,0.5188315 0.116649,0.1887498 0.946227,-0.5358664 0.845426,-0.7384563 -0.03606,-0.0725 0.149341,-0.050191 0.411861,0.049609 0.411551,0.15647 0.447385,0.1453819 0.261483,-0.078548 -0.1817,-0.2189401 -0.109493,-0.278692 0.458887,-0.381372 0.37093,-0.067 0.800985,-0.1871604 0.955497,-0.2666505 0.590439,-0.30376 4.809872,-0.8977215 5.568652,-0.7839313 0.49381,0.074 0.764811,0.048453 0.764811,-0.072347 0,-0.1256001 1.131724,-0.1870686 3.439583,-0.1870686 1.891768,0 3.439583,0.064304 3.439583,0.1431436 0,0.0789 0.456581,0.1398756 1.01441,0.1348755 1.294759,-0.010901 4.011625,0.3932246 4.784203,0.7115845 0.327142,0.1348099 0.77774,0.2449462 1.001491,0.2449462 0.22376,0 0.529791,0.1230985 0.680061,0.2733686 0.15027,0.1502899 0.374195,0.2595959 0.497644,0.243396 0.123441,-0.016301 0.343329,-0.018902 0.488857,-0.0062 0.235183,0.021 0.235183,0.042697 0,0.1968873 -0.190328,0.1247 -0.1115,0.1442863 0.280088,0.069246 0.37378,-0.0716 0.632444,-0.016105 0.825273,0.1767334 0.154471,0.1544701 0.465185,0.2812733 0.690396,0.2821533 0.438549,0.00201 2.175435,0.7549343 2.613794,1.1332644 0.145841,0.1258699 0.463371,0.2802146 0.705901,0.3426145 0.673571,0.17326 2.805784,1.9412643 2.429825,2.0148642 -0.243491,0.0477 -0.261295,0.1069425 -0.08837,0.2950723 0.179771,0.1955001 0.225968,0.1931578 0.273368,-0.012401 0.04121,-0.17864 0.35956,-0.2481474 1.146701,-0.2511475 1.36439,-0.005 2.341698,-0.2273088 2.927985,-0.6645587 0.359421,-0.2680401 0.464045,-0.5129546 0.500745,-1.1699544 0.02564,-0.4591 -0.02455,-0.7869719 -0.112138,-0.732772 -0.08725,0.0539 -0.206386,-0.079899 -0.264583,-0.2971396 -0.155861,-0.5815697 -0.137597,-0.6593911 0.153995,-0.6593911 0.145526,0 0.264583,0.092502 0.264583,0.2056723 0,0.1131898 0.0417,0.164488 0.0925,0.113688 0.212889,-0.21288 -0.133339,-0.6284696 -0.453718,-0.5446697 -0.246009,0.0643 -0.423309,-0.0655 -0.650089,-0.4759399 -0.33682,-0.6096097 -2.632493,-3.0029173 -2.880445,-3.0029173 -0.08306,0 -0.484227,-0.3264071 -0.891418,-0.7255371 C 46.773385,0.97210993 46.365122,0.68458752 45.988795,0.47900352 H 11.449817 c -0.04472,0.05351 -0.07586,0.08785 -0.0832,0.08785 -0.009,0 -0.193431,-0.0649599 -0.265617,-0.0878499 z m -1.5420246,5.1594e-4 c 0.03422,0.05294 0.082072,0.08785 0.1364258,0.08785 0.06244,0 0.093095,-0.0361199 0.095085,-0.08785 z M 47.432115,0.7534054 c -0.04262,0 -0.08496,0.0162258 -0.117303,0.0485758 -0.06467,0.0647 -0.01204,0.11782226 0.117303,0.11782226 0.129389,0 0.182526,-0.0531203 0.117825,-0.11782226 -0.03234,-0.03235 -0.0752,-0.0485758 -0.117825,-0.0485758 z m 0.638723,0.5720581 c -0.0287,-3.307e-4 -0.0524,0.00697 -0.06873,0.023771 -0.06533,0.0653 -0.0016,0.1924701 0.141076,0.2826701 0.416708,0.26354 0.573913,0.1946048 0.263551,-0.1157552 -0.117803,-0.11759 -0.249801,-0.189706 -0.335896,-0.1906861 z m 0.58601,0.6526733 c -0.102698,0 -0.138031,0.079197 -0.07803,0.1762167 0.05996,0.097 0.144269,0.1762166 0.187068,0.1762166 0.0428,0 0.07752,-0.079207 0.07752,-0.1762166 0,-0.097 -0.08381,-0.1762167 -0.186552,-0.1762167 z m 0.478007,0.093018 c -0.06538,0.0282 -0.04624,0.2641957 0.06201,0.6123658 0.01534,0.0474 0.06985,-0.018595 0.121438,-0.1477946 0.05176,-0.12976 0.0113,-0.3184127 -0.08992,-0.4196127 -0.0403,-0.0403 -0.07174,-0.054258 -0.09353,-0.044958 z m 0.741039,0.7048666 c -0.05375,0.006 -0.09147,0.073904 -0.09147,0.179834 0,0.2973999 0.05529,0.3232807 0.197921,0.092501 0.0558,-0.0903 0.03434,-0.2059319 -0.04806,-0.2568319 -0.02061,-0.0127 -0.04049,-0.017503 -0.0584,-0.015503 z m 0.195855,0.6133991 c -0.100441,0 -0.0011,0.184531 0.220658,0.410311 0.22171,0.2257798 0.512886,0.4113411 0.646988,0.411861 0.164338,7.409e-4 0.135419,-0.078195 -0.08837,-0.2418455 -0.18261,-0.13353 -0.331763,-0.3190613 -0.331763,-0.4118613 0,-0.0928 -0.05949,-0.1684652 -0.132292,-0.1684652 z m -28.458728,0.3514 v 5.291e-4 c -0.161538,0 -0.286287,0.143242 -0.286287,0.328662 0,0.2685201 -0.185329,0.3503179 -1.014409,0.4475178 -0.557832,0.0654 -1.314123,0.2085668 -1.681034,0.3183269 -0.503028,0.1509201 -0.717992,0.1494488 -0.873332,-0.0062 -0.281329,-0.2813701 -0.546735,-0.2602767 -0.433565,0.034623 0.09786,0.25502 -1.158342,0.7427063 -1.449524,0.5627563 -0.08402,-0.0519 -0.252515,0.026493 -0.374654,0.1736329 -0.26969,0.3249601 -0.01835,4.066727 0.270268,4.0235271 0.09701,-0.014499 0.573264,-0.0771 1.058333,-0.1390097 0.485071,-0.0619 1.001179,-0.1462587 1.1467,-0.1870686 0.145518,-0.0408 0.581908,-0.1142976 0.969967,-0.1632977 0.388062,-0.049 0.983365,-0.1258487 1.322916,-0.1710488 3.611261,-0.4813401 7.854249,-0.4875266 11.553299,-0.016536 0.388048,0.0494 2.232094,0.115361 4.097425,0.1467609 l 3.391524,0.056844 -0.103352,-0.4097941 c -0.132558,-0.52817 0.323274,-0.7247522 0.929143,-0.4004924 0.24293,0.12998 0.667353,0.2194375 0.943094,0.1984375 0.3599,-0.0274 0.659961,0.1204492 1.063501,0.5239991 0.448061,0.4480499 0.622379,0.5244013 0.858861,0.3767212 0.584779,-0.36521 1.362324,-0.4380016 1.601454,-0.1498616 0.191392,0.2306198 0.170828,0.2723348 -0.135908,0.2723348 -0.4849,0 -1.042147,0.8322488 -1.037149,1.5492588 0.0043,0.619701 0.616742,1.449524 1.070221,1.449524 0.143122,0 0.416418,-0.198786 0.607198,-0.441316 0.452739,-0.57584 0.574895,-0.556817 0.449585,0.06976 -0.09673,0.48368 -0.06376,0.517056 0.6227,0.633036 0.434387,0.0734 0.679333,0.195845 0.611333,0.305925 -0.06423,0.10364 -0.0074,0.147262 0.131257,0.100252 0.317939,-0.10769 0.346308,-2.758524 0.03359,-3.142444 C 46.839777,9.9432807 46.474181,9.508915 46.143822,9.1208649 45.813471,8.7328048 45.580977,8.2964182 45.627575,8.1508982 c 0.06661,-0.20808 0.03721,-0.2195767 -0.139525,-0.053227 -0.17511,0.1648201 -0.335635,0.1541442 -0.727605,-0.048576 -0.276608,-0.1430502 -0.50333,-0.3199577 -0.50333,-0.3932579 0,-0.0733 -0.374396,-0.2440448 -0.832506,-0.3793048 -0.45811,-0.1352701 -0.736092,-0.2783102 -0.617532,-0.3178101 0.24923,-0.0831 0.295116,-0.5720583 0.05374,-0.572058 -0.08893,0 -0.189992,0.085789 -0.224792,0.1901693 -0.03771,0.1130898 -0.25267,0.14205 -0.532268,0.07183 -0.314632,-0.079 -0.436301,-0.2024808 -0.370004,-0.3751709 0.07493,-0.19524 -0.0024,-0.23378 -0.320392,-0.15968 C 40.921503,6.2284833 37.71089,5.1717531 37.230671,4.7371531 36.884183,4.4235832 36.228535,4.3325983 36.407984,4.6229483 c 0.143851,0.23276 0.04017,0.2254475 -1.411285,-0.1018027 -0.679061,-0.15309 -1.492343,-0.2700155 -1.807641,-0.2594155 -0.315291,0.010599 -0.573609,-0.066799 -0.573609,-0.1725993 0,-0.1058 0.0721,-0.1479645 0.160197,-0.093534 0.08805,0.0544 0.346369,0.024336 0.573609,-0.066663 0.318368,-0.1275699 0.149664,-0.1630627 -0.733806,-0.1560629 -0.884881,0.007 -1.025427,0.040804 -0.617016,0.144694 0.526647,0.13403 0.526026,0.1347462 -0.132292,0.1555462 -0.36381,0.011499 -0.661458,-0.063101 -0.661458,-0.1658813 0,-0.1026002 -0.0667,-0.1458016 -0.147794,-0.095601 -0.08115,0.0501 -1.886768,0.1300567 -4.012675,0.1777669 -2.125922,0.0477 -4.247598,0.1251823 -4.714958,0.1720824 -0.723458,0.0727 -0.818435,0.047898 -0.639754,-0.1674315 0.16758,-0.2018901 0.152018,-0.2532145 -0.07648,-0.2532145 z m 1.124996,0.021704 c -0.143867,0 -0.287737,0.010522 -0.396875,0.031522 -0.218292,0.042 -0.03968,0.075964 0.396875,0.075964 0.436578,0 0.615154,-0.033964 0.396875,-0.075964 -0.109146,-0.021 -0.25301,-0.031522 -0.396875,-0.031522 z M 18.32795,4.4704912 c -0.07993,0 -0.159507,0.012189 -0.220141,0.03669 -0.121273,0.049 -0.0224,0.088883 0.220141,0.088883 0.24248,0 0.341931,-0.039983 0.220659,-0.088883 -0.06063,-0.0245 -0.140734,-0.03669 -0.220659,-0.03669 z M 36.848782,4.810522 c 0.04262,0 0.08547,0.016177 0.117824,0.048576 0.06467,0.0647 0.01154,0.1173054 -0.117824,0.1173054 -0.129392,0 -0.182004,-0.052595 -0.117303,-0.1173054 0.03234,-0.0324 0.07468,-0.048576 0.117303,-0.048576 z m 14.504024,0.019637 c -0.02228,0.00788 -0.0123,0.04837 0.03152,0.1193726 0.125669,0.20336 0.28112,0.2732204 0.28112,0.1260903 0,-0.0428 -0.09161,-0.1349316 -0.203605,-0.2041218 -0.03155,-0.0195 -0.05666,-0.03204 -0.07596,-0.03824 -0.01447,-0.00468 -0.02564,-0.00573 -0.03307,-0.0031 z m 0.886251,1.7342609 c -0.07279,0 -0.132291,0.2381268 -0.132291,0.5291667 0,0.29104 0.05949,0.5291669 0.132291,0.5291666 0.07279,0 0.132292,-0.2381266 0.132292,-0.5291666 0,-0.2910399 -0.05949,-0.5291667 -0.132292,-0.5291667 z m -7.236251,3.028239 c 0.0074,-0.00265 0.01857,-0.00156 0.03307,0.0031 0.01929,0.006 0.04442,0.01874 0.07596,0.03824 0.112038,0.0692 0.203605,0.160805 0.203605,0.2036051 0,0.14713 -0.155451,0.077796 -0.28112,-0.1255736 -0.04386,-0.07095 -0.05383,-0.111469 -0.03152,-0.1193729 z M 28.504073,9.7420042 c -0.12623,0.00201 -0.104199,0.070903 0.05478,0.1736328 0.338889,0.21899 0.399923,0.21899 0.264584,0 -0.05996,-0.097 -0.203822,-0.1746327 -0.31936,-0.1736328 z m -4.796089,0.0031 c -0.09701,0 -0.295283,0.076999 -0.440801,0.1710489 -0.145502,0.0941 -0.185363,0.1710489 -0.08837,0.1710489 0.09702,0 0.295268,-0.077 0.4408,-0.1710489 0.145499,-0.0941 0.185364,-0.1710489 0.08837,-0.1710489 z m 1.885672,0.00775 c -0.515051,-0.008 -0.896827,0.049997 -0.848526,0.1281575 v 5.292e-4 c 0.04834,0.0784 0.390471,0.1116608 0.76016,0.074931 1.06721,-0.1061 1.102933,-0.188505 0.08837,-0.2036051 z m 1.49655,0.029456 c -0.269404,0.006 -0.439327,0.042418 -0.406177,0.096118 0.08945,0.1447298 1.265927,0.1754598 1.403015,0.03669 0.04792,-0.0485 -0.266128,-0.1059407 -0.698148,-0.1276408 -0.108003,-0.005 -0.208888,-0.00717 -0.29869,-0.00517 z m 2.165244,0.045992 c -0.0837,-0.005 -0.100875,0.056305 -0.05168,0.1844848 0.05395,0.14058 0.169201,0.255281 0.255799,0.255281 0.253561,0 0.180822,-0.305834 -0.09818,-0.4128942 -0.04271,-0.016399 -0.07804,-0.025172 -0.105936,-0.026872 z m -6.625954,0.024805 c -0.04734,0.00201 -0.101846,0.00895 -0.161747,0.020153 -0.239599,0.0458 -0.435632,0.1136952 -0.435632,0.1508948 0,0.13646 0.687947,0.063 0.778247,-0.083199 0.03847,-0.0623 -0.03886,-0.09465 -0.180868,-0.087849 z m -1.292427,0.062528 c -0.102698,0 -0.186552,0.079207 -0.186552,0.1762168 0,0.097 0.03471,0.176216 0.07751,0.176216 0.04279,0 0.127066,-0.0792 0.187068,-0.176216 0.05994,-0.097 0.02471,-0.1762168 -0.07803,-0.1762168 z m 8.975163,0 c -0.199734,0 -0.316198,0.075705 -0.2589,0.1684648 0.05734,0.0927 0.220867,0.123796 0.363286,0.06925 0.36461,-0.13991 0.321522,-0.2377113 -0.104386,-0.2377118 z m 5.322671,0.1756998 c -0.09702,0 -0.225253,0.07921 -0.285253,0.176216 -0.05993,0.097 -0.02982,0.176733 0.06718,0.176733 0.09702,0 0.225769,-0.07969 0.285771,-0.176733 0.05993,-0.097 0.02931,-0.176216 -0.0677,-0.176216 z m -3.989419,5.29e-4 c -0.0485,0 -0.08837,0.03987 -0.08837,0.08837 0,0.0485 0.03986,0.08785 0.08837,0.08785 0.0485,0 0.08836,-0.03935 0.08836,-0.08785 0,-0.0485 -0.03986,-0.08837 -0.08836,-0.08837 z m 1.234548,0 c -0.0485,0 -0.08785,0.03987 -0.08785,0.08837 0,0.0485 0.03935,0.08785 0.08785,0.08785 0.0485,0 0.08837,-0.03935 0.08837,-0.08785 0,-0.0485 -0.03987,-0.08837 -0.08837,-0.08837 z m 0.705901,0 c -0.0485,0 -0.08837,0.03987 -0.08837,0.08837 0,0.0485 0.03987,0.08785 0.08837,0.08785 0.0485,0 0.08785,-0.03935 0.08785,-0.08785 0,-0.0485 -0.03935,-0.08837 -0.08785,-0.08837 z m -1.322917,0.01034 c -0.04262,0 -0.08547,0.01618 -0.117822,0.04858 -0.06468,0.0647 -0.01154,0.117306 0.117822,0.117306 0.129389,0 0.182004,-0.05261 0.117306,-0.117306 -0.03234,-0.0323 -0.07468,-0.04858 -0.117306,-0.04858 z m 4.855519,0.0041 c -0.757158,0.01 -1.151352,0.0617 -1.151352,0.152962 0,0.11947 0.724561,0.186035 2.028301,0.186035 1.11566,0 2.028298,-0.067 2.028298,-0.148828 0,-0.0818 -0.912638,-0.165534 -2.028298,-0.186035 -0.33182,-0.006 -0.624563,-0.0071 -0.876949,-0.0041 z m -16.864604,0.0077 c -0.06128,-0.003 -0.131156,0.009 -0.19482,0.03411 -0.140711,0.0563 -0.09903,0.09841 0.106453,0.106454 0.18591,0.008 0.29011,-0.0339 0.231511,-0.0925 -0.02931,-0.0293 -0.08187,-0.04546 -0.143144,-0.04806 z m -1.661398,0.153996 c -0.0485,0 -0.08785,0.03987 -0.08785,0.08837 0,0.0485 0.03935,0.08837 0.08785,0.08837 0.0485,0 0.08837,-0.03987 0.08837,-0.08837 0,-0.0485 -0.03987,-0.08837 -0.08837,-0.08837 z m 0.529167,0 c -0.0485,0 -0.08785,0.03987 -0.08785,0.08837 0,0.0485 0.03935,0.08837 0.08785,0.08837 0.0485,0 0.08837,-0.03987 0.08837,-0.08837 0,-0.0485 -0.03987,-0.08837 -0.08837,-0.08837 z m 12.170832,0 c -0.0485,0 -0.08785,0.03987 -0.08785,0.08837 0,0.0485 0.03935,0.08837 0.08785,0.08837 0.0485,0 0.08837,-0.03987 0.08837,-0.08837 0,-0.0485 -0.03987,-0.08837 -0.08837,-0.08837 z m -0.617016,0.01033 c -0.04262,0 -0.08547,0.01618 -0.117822,0.04858 -0.06468,0.0647 -0.01154,0.117822 0.117822,0.117822 0.129389,0 0.182004,-0.0531 0.117306,-0.117822 -0.03234,-0.0324 -0.07468,-0.04858 -0.117306,-0.04858 z m 3.351218,0 c -0.04262,0 -0.08496,0.01618 -0.117306,0.04858 -0.06468,0.0647 -0.01204,0.117822 0.117306,0.117822 0.129389,0 0.182522,-0.0531 0.117821,-0.117822 -0.03233,-0.0324 -0.0752,-0.04858 -0.117821,-0.04858 z m -16.3158,0.166398 c -0.0485,0 -0.08837,0.03925 -0.08837,0.08785 0,0.0485 0.03987,0.08837 0.08837,0.08837 0.0485,0 0.08785,-0.03987 0.08785,-0.08837 0,-0.0485 -0.03935,-0.08785 -0.08785,-0.08785 z m 27.869098,0 c 0.0485,0 0.08837,0.03925 0.08837,0.08785 0,0.0485 -0.03987,0.08837 -0.08837,0.08837 -0.0485,0 -0.08785,-0.03987 -0.08785,-0.08837 0,-0.0485 0.03935,-0.08785 0.08785,-0.08785 z m -0.02376,0.413929 c 0.01603,0.002 0.03522,0.02937 0.05633,0.08216 0.051,0.12733 0.04465,0.279364 -0.01394,0.337964 -0.0586,0.0586 -0.100505,-0.0456 -0.0925,-0.23151 0.0053,-0.12842 0.02339,-0.192669 0.05013,-0.188619 z m -21.581628,0.462504 c -2.908268,10e-4 -4.408697,0.0856 -5.880261,0.272851 -0.30805,0.0392 -0.883402,0.111731 -1.278991,0.161231 -0.395589,0.0495 -1.164166,0.357809 -1.707907,0.685229 -0.543728,0.32741 -1.787976,0.9785 -2.764688,1.44694 -0.9767,0.46844 -1.775603,0.919306 -1.775603,1.002006 0,0.21571 0.809527,0.493295 1.466577,0.502295 0.598049,0.008 1.836848,0.482046 1.326018,0.506946 -0.274939,0.0134 -1.612157,0.605049 -2.616378,1.158069 -0.614929,0.33864 -0.657373,0.75713 -0.09147,0.89917 0.620219,0.15566 0.51292,0.222061 -0.9823694,0.606681 L 8.3874824,18.892364 7.7839017,18.36268 C 7.283119,17.922996 7.0858388,17.853155 6.6247885,17.952355 c -1.3361217,0.28756 -2.9116781,1.476569 -3.4307981,2.588989 -0.46205,0.99016 -0.6732872,3.278412 -0.3152262,3.415812 0.4275289,0.16406 3.5111887,-1.775704 4.2436686,-2.669604 0.364019,-0.44423 0.685583,-0.783559 0.714685,-0.753959 0.02912,0.0296 -0.061589,0.502538 -0.2015381,1.051098 l -0.2542479,0.997355 0.563273,0.834575 c 0.4391179,0.65065 1.1251401,1.201088 3.1114382,2.496488 1.401461,0.91399 2.580062,1.630016 2.618961,1.591117 0.13398,-0.133979 1.665621,-3.348724 1.615922,-3.391524 -0.02738,-0.0236 -0.525861,-0.17504 -1.107942,-0.33693 -0.582081,-0.1619 -1.167277,-0.332155 -1.300696,-0.377755 -0.13466,-0.046 0.571608,-0.572017 1.5875,-1.182357 l 1.829862,-1.099157 0.0217,-1.310514 0.0217,-1.310515 2.844787,-0.0124 c 1.564478,-0.007 2.844281,0.02511 2.844271,0.07131 -1.1e-5,0.0462 -0.544759,0.641537 -1.210779,1.322917 -0.8722,0.8923 -1.466045,1.726353 -2.123384,2.981213 -0.501962,0.95824 -0.884677,1.770458 -0.850077,1.805058 0.0346,0.0346 0.970328,0.231926 2.079459,0.438216 1.358059,0.25257 2.31804,0.541441 2.939872,0.884701 1.0478,0.57841 1.103943,0.593268 1.107943,0.289388 0.0069,-0.56313 0.280311,-0.68536 0.82889,-0.37052 0.50714,0.2909 0.560178,0.291394 0.998389,0.0041 l 0.46302,-0.303341 v 1.120862 c 0,0.61666 0.04158,1.162447 0.09199,1.212845 0.101591,0.101592 2.113746,-0.41566 2.285648,-0.58756 0.05959,-0.0596 -0.423812,-0.488185 -1.074351,-0.952397 l -1.182876,-0.843876 0.479041,-0.411861 c 0.263422,-0.22658 0.545985,-0.411861 0.628386,-0.411861 0.08242,0 0.473776,0.270704 0.869715,0.601514 0.791911,0.66161 0.969031,0.702754 4.252452,0.989603 l 2.205035,0.192754 1.421101,-0.759644 c 0.781499,-0.41778 1.958805,-1.037627 2.616377,-1.377177 1.40979,-0.72798 2.133803,-1.371797 3.613734,-3.213757 l 1.094508,-1.362191 -0.457854,-0.114722 c -0.69075,-0.17337 -1.516224,0.0167 -2.757456,0.634587 -1.747041,0.86969 -3.135733,1.39853 -3.238045,1.233 -0.05126,-0.083 -0.0074,-0.204118 0.09715,-0.268718 0.104579,-0.0646 0.264866,-0.314788 0.356566,-0.556038 0.213198,-0.56075 -0.205246,-1.498935 -0.813904,-1.824695 -0.238151,-0.12745 -0.433049,-0.28529 -0.433049,-0.3514 0,-0.15681 2.0403,-0.99858 2.776059,-1.145149 0.314182,-0.0626 0.607224,-0.17178 0.651124,-0.24288 0.04393,-0.0711 -0.229487,-0.481826 -0.607716,-0.912606 -0.378222,-0.430789 -0.691047,-0.862431 -0.695048,-0.959631 -0.0041,-0.0972 0.478407,-0.40635 1.072288,-0.68678 l 1.079518,-0.509529 1.489316,0.23151 c 1.29757,0.20185 1.599158,0.196075 2.349728,-0.04392 l 0.861446,-0.275435 0.362251,1.073319 c 0.199351,0.5903 0.362768,1.333076 0.362768,1.650546 0,0.722489 -1.20908,9.970818 -1.317749,10.079488 -0.04387,0.0439 -0.435502,-0.01 -0.870231,-0.119372 -1.610492,-0.405531 -3.703566,-0.156401 -5.633246,0.670759 -0.94239,0.40396 -2.787385,0.596669 -10.258806,1.071768 -8.737619,0.555612 -12.140427,0.846289 -14.773259,1.260391 l -2.426209,0.38137 -2.3362911,-0.931725 C 6.1533791,28.249359 6.0404658,28.223602 5.2770667,28.425103 c -1.3385908,0.353309 -1.6849209,0.583703 -1.6159219,1.074354 0.03374,0.23998 0.095029,0.470863 0.1364259,0.513662 0.04135,0.0428 0.5323885,-0.0864 1.0908892,-0.287321 l 1.015442,-0.36535 2.1993489,0.885732 c 2.4723302,0.995461 2.4971642,0.997284 5.7459022,0.478526 1.174602,-0.187561 3.873179,-0.460275 5.99705,-0.606166 8.531891,-0.58605 11.879894,-0.824712 13.562996,-0.965832 0.970142,-0.0812 1.797015,-0.116825 1.837616,-0.07907 0.04057,0.0377 -0.276762,0.384143 -0.705385,0.769461 l -0.77928,0.700733 -2.38125,-0.08785 c -1.30969,-0.0482 -2.875176,-0.122547 -3.478858,-0.164849 l -1.097607,-0.077 -0.729155,0.93431 -0.729671,0.933794 -1.524455,0.206703 c -1.595972,0.216521 -2.596583,0.508442 -3.738273,1.09089 -0.675119,0.34444 -0.696737,0.34449 -2.127519,0.01138 l -1.445389,-0.336412 -1.326017,0.531233 -1.326018,0.530717 -1.128096,-0.305409 c -0.808828,-0.21894 -1.41198,-0.53803 -2.130619,-1.12758 -0.6699014,-0.54955 -1.5779836,-1.046824 -2.7383345,-1.499132 -1.529199,-0.59614 -1.8452711,-0.662217 -2.6463503,-0.552939 -0.5002609,0.0682 -1.0083876,0.131561 -1.1296467,0.14056 -0.2737509,0.02 -0.2939944,-0.223817 0.2180746,2.677874 0.238393,1.350838 0.5254162,2.51287 0.6376871,2.58227 0.1122701,0.0694 1.5632208,0.526312 3.2240926,1.015442 2.6968502,0.79421 5.7743602,1.530289 14.2203202,3.401861 2.552952,0.565709 2.558928,0.568452 3.351217,1.393712 1.211149,1.261551 1.330778,1.564743 0.941028,2.392103 l -0.323495,0.686779 -6.261633,2.515092 c -3.444002,1.38345 -6.913487,2.835754 -7.709607,3.227194 -3.3830386,1.66338 -5.9994571,3.944784 -9.4583371,8.246525 -1.03405,1.286029 -1.8797239,2.381174 -1.8815389,2.436543 0.0055,0.0533 1.9269787,0.05589 4.2762248,0.0057 2.352579,-0.0501 5.5188112,-0.0953 7.0362632,-0.100251 l 2.759004,-0.0088 0.11989,-0.475938 c 0.09651,-0.384511 0.154071,-0.426503 0.30024,-0.220141 0.149802,0.211489 0.164738,0.204837 0.08733,-0.03824 -0.104479,-0.328039 0.493868,-2.058257 0.624768,-1.806607 0.0457,0.088 0.05949,0.06151 0.03049,-0.05839 -0.06722,-0.277572 0.980766,-2.339393 1.189075,-2.339393 0.0859,0 0.156063,-0.120158 0.156063,-0.267169 0,-0.39883 2.538032,-4.124438 3.663342,-5.377449 0.64547,-0.71872 4.350413,-4.392205 4.389913,-4.352706 0.07106,0.0711 -0.559282,2.033096 -0.697632,2.171443 -0.06797,0.068 -0.123507,0.267248 -0.123507,0.442868 0,0.17562 -0.218453,0.457242 -0.485241,0.625803 -2.33172,1.473309 -5.244269,5.009885 -6.284888,7.631576 -0.330319,0.832178 -1.19166,3.922754 -1.114661,3.999753 0.02496,0.0249 8.196392,0.07901 18.158583,0.119891 15.46975,0.0635 18.165521,0.0378 18.471739,-0.176734 0.35356,-0.24757 0.358635,-0.39638 0.358635,-10.457759 V 40.458493 l -0.5271,-0.115755 c -0.289931,-0.0637 -0.572469,-0.188936 -0.627867,-0.278537 -0.13484,-0.218149 -0.913059,-0.208214 -1.050065,0.01344 -0.05996,0.097 -0.22747,0.176733 -0.372589,0.176733 -0.145121,0 -0.597091,0.147932 -1.004073,0.329179 -0.40699,0.18125 -2.684864,1.101598 -5.061706,2.044838 -2.37684,0.94325 -4.559308,1.818521 -4.85035,1.9451 -0.291039,0.12659 -0.926213,0.385585 -1.411282,0.575675 -0.485071,0.190082 -1.318503,0.524528 -1.852083,0.743109 -1.287262,0.527338 -3.433451,1.383935 -4.371311,1.744596 -0.57612,0.221559 -1.623333,1.168747 -4.416785,3.994587 l -3.661792,3.704166 0.819071,-2.116667 c 1.329582,-3.437008 1.54212,-3.855637 3.985287,-7.844998 l 0.59118,-0.965314 6.834724,-1.716175 c 3.75896,-0.94383 6.895317,-1.719442 6.970117,-1.724443 0.07484,-0.005 0.233683,-0.226719 0.352433,-0.493511 0.118761,-0.26679 0.553607,-1.036881 0.966349,-1.711521 0.412739,-0.674632 0.750342,-1.300848 0.750342,-1.391648 0,-0.0907 0.237249,-0.550582 0.5271,-1.021643 1.125961,-1.82984 1.568046,-4.50804 1.051616,-6.367568 -0.182449,-0.656953 -0.17716,-0.666438 1.761649,-3.263369 l 1.944068,-2.603975 0.0041,-1.875855 c 0.0035,-1.857009 -0.0011,-1.876353 -0.433564,-1.959053 -0.24025,-0.0458 -0.478367,-0.04221 -0.529167,0.0088 -0.0507,0.0508 -0.09199,0.842336 -0.09199,1.759066 v 1.667082 l -0.845942,1.082104 c -0.465169,0.59507 -1.225883,1.617363 -1.690854,2.272214 -0.464981,0.654841 -0.945663,1.190625 -1.067633,1.190625 -0.121971,0 -0.359871,-0.152487 -0.528651,-0.338997 -0.292388,-0.323081 -0.271634,-0.601237 0.432014,-5.903517 l 0.738458,-5.565035 -0.371039,-1.097607 c -0.487971,-1.444881 -0.483081,-1.729477 0.02635,-1.604037 0.218249,0.0538 0.352041,0.04766 0.29714,-0.01344 -0.0549,-0.0611 -0.394446,-0.149238 -0.754475,-0.195338 -0.360029,-0.0461 -0.740437,-0.136638 -0.845426,-0.201537 -0.104981,-0.0649 -0.689512,-0.107302 -1.29863,-0.09405 -1.059961,0.023 -1.130869,-0.003 -1.656229,-0.600997 -0.30191,-0.34386 -0.549322,-0.555772 -0.549322,-0.470772 0,0.085 -0.331288,0.253801 -0.736389,0.375171 -0.686458,0.20567 -0.756232,0.194182 -1.029393,-0.167948 -0.256204,-0.33965 -0.339487,-0.359594 -0.660426,-0.159164 -0.301623,0.18855 -0.416835,0.18854 -0.645954,-0.0016 -0.1534,-0.12731 -0.279053,-0.34075 -0.279053,-0.47439 0,-0.17599 -0.255381,-0.242261 -0.926042,-0.239262 -0.50932,0.002 -3.585284,-0.0442 -6.835243,-0.102319 -3.056885,-0.05461 -5.308346,-0.08391 -7.053307,-0.08321 z M 1.0427005,61.347638 c -8e-6,-6.8e-5 -0.00103,8e-5 -0.00103,0 l 5.168e-4,0.0011 c 0,-6.1e-5 5.137e-4,-0.0011 5.167e-4,-0.0011 z M 45.227599,12.913903 c -0.0485,0 -0.08836,0.03987 -0.08836,0.08837 0,0.0485 0.03987,0.08837 0.08836,0.08837 0.0485,0 0.08785,-0.03987 0.08785,-0.08837 0,-0.0485 -0.03935,-0.08837 -0.08785,-0.08837 z m 2.276864,0.384472 c -0.04217,-0.006 -0.07235,0.0477 -0.07235,0.144694 0,0.1294 0.05312,0.182523 0.117825,0.117823 0.0647,-0.0647 0.0647,-0.170428 0,-0.235128 -0.01617,-0.0162 -0.03143,-0.02529 -0.04548,-0.02739 z M 28.327857,17.8366 c 0.15544,0.002 0.228891,0.03395 0.227891,0.09715 -0.0016,0.10114 -0.472545,0.699562 -1.046445,1.330152 l -1.043348,1.1467 0.295072,-0.837675 c 0.226891,-0.64384 0.249148,-0.911489 0.09612,-1.156519 -0.179171,-0.2869 -0.103806,-0.335816 0.751377,-0.492476 0.326554,-0.0597 0.563893,-0.08903 0.719335,-0.08733 z m 6.152079,1.427303 c 0.153921,0 0.220974,0.299992 0.214974,0.965832 -0.0055,0.60879 0.09766,1.128242 0.279053,1.405082 0.158261,0.24153 0.287319,0.481401 0.287319,0.533301 0,0.1007 -2.611924,0.107102 -2.910417,0.0078 -0.09702,-0.0323 -0.394668,-0.107082 -0.661458,-0.165882 -0.26679,-0.0588 -0.484724,-0.182328 -0.484724,-0.274919 0,-0.21961 2.984113,-2.471167 3.275253,-2.471167 z M 6.351937,23.221801 c -0.1924047,-0.0274 -0.6075296,0.184286 -1.2743407,0.649056 l -1.1249959,0.784448 -0.051676,1.567863 c -0.0283,0.862339 -0.0086,1.67873 0.043408,1.81436 0.06253,0.162939 0.223283,0.206106 0.473873,0.126606 0.4521089,-0.14351 3.630894,-0.131233 3.867464,0.01498 0.2395001,0.14801 0.465953,-0.565714 0.5922121,-1.868103 L 8.9879519,25.173092 7.8138633,24.290975 c -0.645973,-0.48507 -1.2731765,-0.95413 -1.3931966,-1.04283 -0.018481,-0.0136 -0.041239,-0.02236 -0.06873,-0.02636 z m 23.16086,22.708691 c -0.04217,-0.006 -0.07235,0.0477 -0.07235,0.144693 0,0.129392 0.05312,0.182523 0.117824,0.117824 0.0647,-0.0647 0.0647,-0.170439 0,-0.23513 -0.01617,-0.01619 -0.03143,-0.02529 -0.04548,-0.02739 z m -0.705901,1.234549 c -0.04217,-0.006 -0.07183,0.0477 -0.07183,0.144695 0,0.129299 0.05312,0.182523 0.117822,0.117821 0.0647,-0.0647 0.0647,-0.170418 0,-0.235127 -0.01617,-0.01619 -0.03193,-0.02529 -0.04599,-0.02739 z m -0.881599,1.235067 c -0.04217,-0.006 -0.07235,0.04769 -0.07235,0.144695 0,0.129389 0.05312,0.182004 0.117824,0.117306 0.0647,-0.0647 0.0647,-0.170429 0,-0.235128 -0.01617,-0.01619 -0.03143,-0.02476 -0.04548,-0.02687 z m -1.92443,4.378028 c -0.0485,0 -0.08785,0.03935 -0.08785,0.08785 0,0.0485 0.03935,0.08837 0.08785,0.08837 0.0485,0 0.08837,-0.03986 0.08837,-0.08837 0,-0.0485 -0.03987,-0.08785 -0.08837,-0.08785 z M 3.028109,61.389495 c 0.7196666,0.745067 1.1426901,1.223389 1.2696901,1.435055 0.1439333,0.237067 0.237236,0.596922 0.2795693,1.079522 0.016933,0.2032 0.033709,0.834056 0.050643,1.89239 0.016933,1.439333 0.021386,2.950307 0.01292,4.533574 0,0.194733 -0.00445,0.452895 -0.01292,0.774629 v 0.507978 c 0,0.54187 -0.1184675,0.97825 -0.3555339,1.30845 -0.1778,0.245533 -0.5248134,0.546153 -1.0412802,0.901753 1.1006665,-0.1778 1.7611411,-0.267166 1.9812744,-0.267166 0.5164667,-0.0085 1.2574032,0.06361 2.2226032,0.216006 C 6.7746753,73.331419 6.4103686,73.064867 6.3426353,72.971734 6.1902353,72.777001 6.1142255,72.484768 6.1142255,72.095302 V 67.56173 c 0.1016,-0.143934 0.1776098,-0.241689 0.2284098,-0.292489 l 0.2160074,-0.22841 c 0.1100667,-0.110066 0.2245982,-0.207306 0.3431318,-0.291973 0.3979333,-0.2794 0.8550256,-0.419094 1.3714923,-0.419094 0.3048,0 0.6177444,0.10169 0.9394774,0.30489 0.1439336,0.09313 0.2668532,0.194307 0.3684532,0.304374 0.0508,0.05927 0.1357146,0.169346 0.2542479,0.330213 0.4402667,0.618067 0.6431317,1.524381 0.6092647,2.718181 -0.04233,1.236133 -0.4781967,2.455391 -1.30793,3.657658 -0.016933,0.01693 -0.025321,0.03764 -0.025321,0.06305 0,0.06773 0.025165,0.101801 0.075964,0.101801 0.042333,0 0.1015669,-0.02122 0.1777669,-0.06356 0.016933,0 0.1230768,-0.08885 0.3178101,-0.26665 0.381,-0.389466 0.660391,-0.681699 0.838191,-0.876432 0.567267,-0.6096 0.998678,-1.418159 1.295012,-2.425692 v -0.01241 c 0.09313,-0.491067 0.140043,-0.927446 0.140043,-1.308446 0,-0.770467 -0.148084,-1.418101 -0.444417,-1.943034 -0.2794,-0.491067 -0.719716,-0.867699 -1.32085,-1.130163 -0.4402663,-0.194733 -0.8638062,-0.291973 -1.2702062,-0.291973 -1.1006667,0 -2.0276923,0.30062 -2.7812257,0.901753 v -0.711583 c 0,-1.286934 0.01284,-1.977025 0.038241,-2.070159 0.127,-0.448733 0.3427058,-0.761677 0.6475058,-0.939477 0.4064,-0.237066 0.6393987,-0.385151 0.6986654,-0.444418 0.00847,-0.0085 -0.2496963,0.07593 -0.7746296,0.253733 -0.3471334,0.118533 -0.6522064,0.177766 -0.9146731,0.177766 -0.4233333,0 -0.9100425,-0.148085 -1.4603759,-0.444418 -0.1354666,-0.0762 -0.5841711,-0.35114 -1.3461717,-0.825273 z m 23.382552,0.964801 c -0.4318,0.270933 -0.711192,0.436308 -0.838192,0.495575 -0.296333,0.135467 -0.652251,0.207542 -1.067118,0.216009 h -1.460376 c -0.313267,0 -0.761971,-0.0044 -1.346171,-0.01291 h -1.32085 c -0.7874,0 -1.316567,-0.01678 -1.5875,-0.05064 -0.4572,-0.05927 -0.948361,-0.249809 -1.473295,-0.571543 0.245534,0.4318 0.406458,0.800042 0.482658,1.104842 0.0254,0.220133 0.05502,0.440293 0.08888,0.660427 0.0762,0.516464 0.08065,1.126093 0.01292,1.828826 0.6096,-1.388533 1.231553,-2.201542 1.866553,-2.438609 0.143933,-0.0508 0.279693,-0.07596 0.406693,-0.07596 0.160867,0 0.283787,0.04246 0.368453,0.127125 0.09313,0.08467 0.160755,0.173516 0.203089,0.26665 0.01693,0.05927 0.03371,0.152053 0.05064,0.279053 v 0.457335 c 0.0254,2.150533 0.03824,4.40296 0.03824,6.756693 0,-0.0508 0.0039,-0.04241 0.0124,0.02532 v 0.279051 0.279569 c 0,0.397934 -0.07994,0.703006 -0.240812,0.914673 -0.296333,0.381 -0.859569,0.719627 -1.689303,1.01596 0.905934,-0.0762 1.528403,-0.135435 1.86707,-0.177768 0.4318,-0.0508 0.731904,-0.07648 0.901237,-0.07648 0.338667,0 0.804664,0.03407 1.397331,0.101804 0.694266,0.0762 1.164199,0.122592 1.409733,0.139525 -0.880534,-0.389466 -1.414153,-0.681699 -1.600419,-0.876432 -0.135467,-0.143933 -0.203089,-0.342863 -0.203089,-0.596863 0.0085,-0.1016 0.01292,-0.185997 0.01292,-0.25373 v -7.417125 c 0,-0.6604 0.135243,-1.024189 0.406176,-1.091922 0.160867,-0.04233 0.283787,-0.06356 0.368453,-0.06356 0.194734,0 0.380823,0.06368 0.558623,0.190685 0.355599,0.245533 0.672996,0.757407 0.952396,1.53634 0.1016,0.237067 0.182062,0.419219 0.241329,0.546219 l 0.02532,-0.279569 c 0.0762,-0.804334 0.148274,-1.345825 0.216007,-1.625225 l 0.07648,-0.203604 c 0.1524,-0.364067 0.44018,-0.833999 0.863513,-1.409732 z m -14.074076,0.267166 c 0.321733,0.09313 0.59222,0.203213 0.812353,0.330213 0.118534,0.0762 0.279458,0.194667 0.482658,0.355534 0.118533,0.09313 0.216289,0.266382 0.292489,0.520382 0.0762,0.245533 0.114205,0.45285 0.114205,0.622184 v 6.235795 c 0,0.6096 -0.05923,1.172834 -0.177767,1.689301 -0.127,0.567267 -0.550541,0.990809 -1.270207,1.270209 -0.0762,0.03387 -0.101364,0.07581 -0.07596,0.126606 0.03387,0.05927 0.08026,0.0805 0.139526,0.06356 0.795867,-0.220133 1.55358,-0.330213 2.273246,-0.330213 0.338667,0 1.033211,0.152535 2.083077,0.457335 -0.651933,-0.423333 -1.054244,-0.791575 -1.206644,-1.104842 -0.0762,-0.1524 -0.118658,-0.427855 -0.127125,-0.825788 v -5.943306 c 0.0085,-0.389467 0.01292,-0.901857 0.01292,-1.536859 0.0508,-0.474131 0.363744,-0.918385 0.939478,-1.333251 -0.524934,0.135466 -0.96525,0.169018 -1.32085,0.101287 -0.135467,-0.0254 -0.304779,-0.08857 -0.507979,-0.190172 -0.237067,-0.110064 -0.448838,-0.190526 -0.635104,-0.241326 -0.6096,-0.169333 -1.218712,-0.258186 -1.828312,-0.266652 z m 30.088084,0.164848 c -0.6604,0.745067 -1.185113,1.117762 -1.57458,1.117762 -0.135467,0 -0.271227,-0.0173 -0.406694,-0.05116 -0.7112,-0.262467 -1.418066,-0.393258 -2.120799,-0.393258 -0.821267,0 -1.506905,0.177702 -2.057239,0.533302 -1.6256,1.058333 -2.438611,2.590535 -2.438611,4.597135 0,1.083733 0.258162,2.053214 0.774628,2.908348 0.5334,0.897466 1.28718,1.549553 2.260846,1.955953 0.4826,0.2032 1.024089,0.304893 1.625222,0.304893 0.3048,0 0.753504,-0.06369 1.346171,-0.190688 0.592666,-0.135467 1.016209,-0.203089 1.270209,-0.203089 0.110066,0 0.190529,0.0039 0.241329,0.01241 0.220131,-0.04233 0.614055,0.123044 1.181322,0.495578 -0.321733,-0.516467 -0.482658,-1.083638 -0.482658,-1.701705 0,-0.516467 0.06762,-1.283086 0.203089,-2.299086 0.0085,-0.06773 -0.01723,-0.105738 -0.07648,-0.114205 -0.05927,-0.01693 -0.09727,0.0088 -0.114204,0.07648 -0.41487,1.312331 -1.100508,2.256134 -2.057242,2.831867 -0.440266,0.262467 -0.859353,0.393774 -1.257286,0.393774 -0.414867,0 -0.830019,-0.148084 -1.244886,-0.444418 -1.1938,-0.855133 -1.790586,-2.049227 -1.790586,-3.581693 v -0.02532 h 3.492809 v -0.761709 l -3.505213,-0.01292 c 0.04233,-0.728133 0.160801,-1.375767 0.355534,-1.943034 0.508,-1.481666 1.371341,-2.222603 2.590541,-2.222603 0.5334,0 1.032949,0.152535 1.498615,0.457335 0.465667,0.296334 0.812679,0.690258 1.041281,1.181325 0.143931,0.313267 0.330539,1.058138 0.559139,2.235004 0.0762,-0.5588 0.109752,-1.079579 0.101285,-1.562179 -0.0254,-1.236133 0.169593,-2.434161 0.584459,-3.594095 z m -11.945522,0.165365 c -1.007533,0.389466 -1.951852,0.630335 -2.832385,0.723469 l -1.77767,0.190687 0.76171,0.152445 c 0.364067,0.118534 0.54622,0.562785 0.54622,1.333252 0.0085,3.2258 0.0085,4.911055 0,5.054989 -0.0254,0.626533 -0.04218,1.062397 -0.05064,1.30793 -0.06773,1.024467 -0.4192,1.710105 -1.0542,2.057239 -0.0254,0.01693 -0.03824,0.04261 -0.03824,0.07648 0,0.09313 0.04691,0.118298 0.140043,0.07596 0.567266,-0.237067 1.227224,-0.355534 1.980758,-0.355534 0.237066,0 0.694676,0.04639 1.37201,0.139528 0.567266,0.0762 1.019905,0.10188 1.358572,0.07648 0.110066,-0.0085 0.423529,-0.04647 0.939995,-0.114204 0.127,-0.01693 0.398002,-0.02532 0.812869,-0.02532 0.09313,0 0.528997,0.05923 1.307931,0.177766 -0.338667,-0.372534 -0.567214,-0.842466 -0.685747,-1.409732 -0.03387,-0.160867 -0.04225,-0.393867 -0.02532,-0.698667 0.04233,-0.414867 0.08479,-0.753491 0.127124,-1.015957 0.05927,-0.440267 0.08888,-0.647587 0.08888,-0.622187 0,-0.09313 -0.0173,-0.140041 -0.05116,-0.140041 -0.03387,0 -0.08026,0.03407 -0.139528,0.101801 -0.296334,1.397 -0.850662,2.404488 -1.663465,3.022555 -0.1778,0.135467 -0.432025,0.203089 -0.762225,0.203089 -0.448733,0 -0.804135,-0.0844 -1.066601,-0.25373 -0.440267,-0.2794 -0.724112,-0.995175 -0.851112,-2.146641 -0.06773,-0.592667 -0.101804,-1.61693 -0.101804,-3.073197 0,-0.982133 0.01283,-1.646544 0.03824,-1.993677 0.0762,-0.956734 0.245514,-1.583656 0.507981,-1.879989 l 0.01291,-0.01241 c 0.1778,-0.2032 0.546044,-0.520597 1.104844,-0.952397 z m 12.691732,0.08888 c -0.0762,0 -0.114207,0.04639 -0.114207,0.139525 0,0.06773 0.04639,0.143743 0.139528,0.22841 0.4318,0.389466 0.660347,1.05833 0.685747,2.006597 0.04233,1.651 0.04233,3.712885 0,6.185151 -0.0085,0.6096 -0.114094,1.071145 -0.317294,1.384412 -0.194733,0.313266 -0.482515,0.563041 -0.863513,0.749307 0.804331,-0.1016 1.430737,-0.152445 1.879471,-0.152445 0.313266,0 1.130212,0.05084 2.451012,0.152445 l 0.165365,0.01241 c -0.618067,-0.270933 -0.944367,-0.423471 -0.978233,-0.457337 -0.4318,-0.220134 -0.647507,-0.63922 -0.647507,-1.257287 0,-0.110067 0.0044,-0.503473 0.01291,-1.180806 0.0085,-0.6858 0.01241,-1.100953 0.01241,-1.244886 v -0.367935 c 0.601134,0.0085 1.168308,0.232558 1.701708,0.672825 0.169333,0.143933 0.359873,0.364093 0.571539,0.660426 0.211667,0.287867 0.355815,0.520864 0.432015,0.698664 0.2286,0.651934 0.389525,1.159873 0.482658,1.52394 0.127,0.270933 0.317542,0.507867 0.571542,0.711067 0.143934,0.118534 0.380868,0.266618 0.711068,0.444418 0.135467,0.0762 0.347237,0.152726 0.635103,0.228926 0.795867,0.211666 1.218891,0.325681 1.269691,0.342614 -0.508,-0.262467 -0.820944,-0.435713 -0.939478,-0.52038 -0.2032,-0.127 -0.36019,-0.275603 -0.470257,-0.444934 -0.09313,-0.143933 -0.181983,-0.37248 -0.266649,-0.685747 -0.04233,-0.169333 -0.09318,-0.419108 -0.152445,-0.749308 -0.2032,-1.769533 -0.803924,-2.793799 -1.80299,-3.073199 h -0.01291 c 0.668867,-0.135466 1.270106,-0.643403 1.803506,-1.523936 0.127,-0.211667 0.190169,-0.537454 0.190169,-0.97772 0,-0.719667 -0.152019,-1.261674 -0.456819,-1.62574 -0.270933,-0.3302 -0.635241,-0.626886 -1.092441,-0.88935 -0.4572,-0.270933 -0.893064,-0.440248 -1.307928,-0.507981 -0.4064,-0.06773 -0.902015,-0.0465 -1.486214,0.06356 -0.6096,0.110067 -1.015847,0.152525 -1.219047,0.127125 -0.372533,-0.04233 -0.808397,-0.216099 -1.307931,-0.520899 -0.160866,-0.1016 -0.254169,-0.151929 -0.279569,-0.151929 z m 3.568774,0.990121 c 0.5588,-3e-6 0.994664,0.21622 1.307931,0.64802 0.143933,0.237067 0.271303,0.448837 0.38137,0.635103 0.169333,0.4064 0.253733,0.850654 0.253733,1.333254 0,0.381 -0.06369,0.719625 -0.190688,1.015958 -0.423333,0.592667 -0.82119,0.893286 -1.193723,0.901753 -0.06774,0.0085 -0.35945,0.01291 -0.875917,0.01291 -0.465666,0 -0.745058,-0.0044 -0.838192,-0.01291 l 0.01241,-0.241329 c 0.01693,-0.364067 0.02532,-0.727856 0.02532,-1.091922 0,-0.3302 -0.0084,-0.698442 -0.02532,-1.104842 -0.01693,-0.4064 -0.02532,-0.656175 -0.02532,-0.749308 0,-0.1778 0.01283,-0.309108 0.03824,-0.393774 0.0762,-0.270934 0.219832,-0.495544 0.431498,-0.673344 0.220134,-0.186266 0.453134,-0.279569 0.698667,-0.279569 z"
       style="fill:#c93b1b;fill-opacity:1;stroke-width:1"
       id="path158" />
    <path
       d=""
       id="path132"
       style="fill:#000000;stroke-width:1" />
    <path
       d=""
       id="path130"
       style="fill:#000000;stroke-width:1" />
    <path
       d=""
       id="path128"
       style="fill:#000000;stroke-width:1" />
    <g
       style="font-size:12.7px;line-height:1.25;font-family:'Latin Modern Sans';-inkscape-font-specification:'Latin Modern Sans';stroke-width:0.264583"
       id="text1007"
       aria-label="HITLER" />
  </g>
</svg>
