<svg xmlns="http://www.w3.org/2000/svg" width="55mm" height="75mm" viewBox="0 0 55 75"><defs><path id="a" d="M-58.407 51.69h13.141v7.009h-13.141z"/></defs><path style="fill:#c93b1b;fill-opacity:1;stroke-width:1" d="M11.101.479H9.974a.846.846 0 0 1 .064.316c0 .641 2.03 2.405 3.756 3.261 1.51.75 1.976 1.097 1.468 1.097-.315 0-.524.286-.38.519.117.189.946-.536.846-.738-.036-.073.149-.05.411.05.412.156.448.145.262-.08-.182-.218-.11-.278.459-.38.37-.068.8-.188.955-.267.59-.304 4.81-.898 5.569-.784.494.074.765.048.765-.073 0-.125 1.132-.187 3.44-.187 1.891 0 3.439.065 3.439.143 0 .08.457.14 1.014.135 1.295-.01 4.012.393 4.785.712.327.135.777.245 1.001.245.224 0 .53.123.68.273.15.15.374.26.498.244.123-.017.343-.02.489-.007.235.021.235.043 0 .197-.19.125-.112.144.28.07.373-.072.632-.017.825.176.154.155.465.281.69.282.439.002 2.176.755 2.614 1.134.146.125.464.28.706.342.674.173 2.806 1.941 2.43 2.015-.244.048-.261.107-.088.295.18.196.225.193.273-.012.041-.179.36-.248 1.147-.251 1.364-.005 2.341-.228 2.928-.665.359-.268.464-.513.5-1.17.026-.459-.024-.787-.112-.733-.087.054-.206-.08-.264-.297-.156-.581-.138-.66.154-.66.145 0 .264.093.264.206 0 .114.042.165.093.114.213-.213-.134-.628-.454-.545-.246.065-.423-.065-.65-.475-.337-.61-2.633-3.003-2.88-3.003-.084 0-.485-.327-.892-.726a5.143 5.143 0 0 0-1.07-.773h-34.54a.427.427 0 0 1-.082.088c-.01 0-.194-.065-.266-.088zm-1.542 0c.034.053.082.088.136.088.063 0 .093-.036.095-.087zm37.873.274a.165.165 0 0 0-.117.049c-.065.065-.012.118.117.118.13 0 .183-.053.118-.118a.166.166 0 0 0-.118-.049zm.639.572c-.029 0-.053.007-.069.024-.065.066-.001.193.141.283.417.263.574.195.264-.116-.118-.117-.25-.19-.336-.19zm.586.653c-.103 0-.138.08-.078.176.06.097.144.177.187.177.043 0 .077-.08.077-.177 0-.097-.083-.176-.186-.176zm.478.093c-.066.028-.046.264.062.613.015.047.07-.02.121-.148a.424.424 0 0 0-.09-.42c-.04-.04-.071-.054-.093-.045zm.74.705c-.053.006-.09.074-.09.18 0 .297.055.323.197.092.056-.09.035-.206-.048-.256a.092.092 0 0 0-.058-.016zm.197.613c-.1 0-.001.185.22.41.222.227.513.412.647.413.165 0 .136-.079-.088-.242-.183-.134-.332-.32-.332-.412 0-.093-.06-.169-.132-.169zm-28.459.352c-.162 0-.286.144-.286.329 0 .269-.186.35-1.015.448-.558.065-1.314.208-1.68.318-.504.15-.719.15-.874-.006-.281-.282-.547-.26-.434.034.098.255-1.158.743-1.45.563-.083-.052-.252.027-.374.174-.27.325-.018 4.066.27 4.023.097-.014.574-.077 1.059-.139.485-.062 1.001-.146 1.147-.187.145-.04.581-.114.97-.163.388-.05.983-.126 1.322-.171 3.612-.482 7.855-.488 11.554-.017.388.05 2.232.116 4.097.147l3.392.057-.104-.41c-.132-.528.324-.725.93-.4.242.13.667.219.943.198.36-.027.66.12 1.063.524.448.448.622.524.859.377.585-.365 1.362-.438 1.601-.15.192.23.171.272-.136.272-.484 0-1.042.832-1.037 1.55.005.62.617 1.449 1.07 1.449.144 0 .417-.199.608-.441.452-.576.575-.557.45.07-.097.483-.064.516.622.632.434.074.68.196.611.306-.064.104-.007.148.132.1.318-.107.346-2.758.033-3.142a87.201 87.201 0 0 0-.812-.965c-.33-.388-.563-.825-.516-.97.066-.208.037-.22-.14-.053-.175.164-.336.154-.728-.049-.276-.143-.503-.32-.503-.393 0-.073-.374-.244-.832-.38-.459-.135-.736-.278-.618-.317.25-.083.295-.572.054-.572-.09 0-.19.085-.225.19-.038.113-.253.142-.532.072-.315-.08-.437-.203-.37-.376.075-.195-.003-.233-.32-.16-.492.115-3.703-.941-4.183-1.376-.347-.313-1.002-.404-.823-.114.144.233.04.225-1.411-.102-.68-.153-1.493-.27-1.808-.26-.315.011-.574-.066-.574-.172 0-.106.073-.148.16-.093.089.054.347.024.574-.067.319-.128.15-.163-.734-.156-.884.007-1.025.04-.617.145.527.134.526.134-.132.155-.364.012-.661-.063-.661-.166 0-.102-.067-.146-.148-.095-.081.05-1.887.13-4.013.177-2.126.048-4.247.126-4.715.172-.723.073-.818.048-.64-.167.168-.202.153-.253-.076-.253zm1.125.022c-.144 0-.288.01-.397.031-.218.042-.04.076.397.076s.615-.034.397-.076a2.227 2.227 0 0 0-.397-.031zm-4.41.707a.61.61 0 0 0-.22.037c-.121.05-.023.09.22.09.242 0 .342-.04.22-.09a.614.614 0 0 0-.22-.037zm18.52.34c.043 0 .086.017.119.05.064.064.011.116-.118.116-.13 0-.182-.052-.118-.117a.165.165 0 0 1 .118-.048zm14.505.02c-.022.008-.012.049.031.12.126.203.281.273.281.126 0-.043-.091-.135-.203-.204a.371.371 0 0 0-.076-.039c-.015-.004-.026-.005-.033-.003zm.886 1.734c-.073 0-.132.239-.132.53 0 .29.06.529.132.529.073 0 .132-.238.132-.53 0-.29-.06-.529-.132-.529zm-7.236 3.029c.007-.003.018-.002.033.003.02.006.044.018.076.038.112.07.203.16.203.204 0 .147-.155.077-.28-.126-.045-.07-.055-.111-.032-.12zm-16.499.149c-.126.002-.104.07.055.174.339.219.4.219.264 0a.412.412 0 0 0-.319-.174zm-4.796.003c-.097 0-.295.077-.44.171-.146.094-.186.171-.09.171.098 0 .296-.077.442-.17.145-.095.185-.172.088-.172zm1.886.008c-.515-.008-.897.05-.849.128.048.079.39.112.76.075 1.068-.106 1.103-.188.089-.203zm1.496.03c-.27.005-.44.042-.406.095.09.145 1.266.176 1.403.037.048-.048-.266-.106-.698-.128a4.442 4.442 0 0 0-.299-.005zm2.165.045c-.083-.005-.1.057-.051.185.054.14.169.255.256.255.253 0 .18-.306-.099-.413a.372.372 0 0 0-.106-.027zm-6.626.025a1.167 1.167 0 0 0-.161.02c-.24.046-.436.114-.436.151 0 .137.688.063.778-.083.039-.062-.038-.095-.18-.088zm-1.292.063c-.103 0-.186.079-.186.176 0 .097.034.176.077.176s.127-.08.187-.176c.06-.097.025-.176-.078-.176zm8.975 0c-.2 0-.316.075-.259.168.058.093.221.124.364.07.364-.14.321-.238-.105-.238zm5.323.175c-.097 0-.225.08-.285.177-.06.097-.03.176.067.176s.226-.08.286-.176c.06-.097.029-.177-.068-.177zm-3.99 0a.089.089 0 0 0-.088.09.088.088 0 1 0 .088-.09zm1.235 0a.088.088 0 0 0 0 .177c.049 0 .088-.04.088-.088a.089.089 0 0 0-.088-.088zm.706 0a.089.089 0 0 0-.088.09.088.088 0 0 0 .176 0 .088.088 0 0 0-.088-.09zm-1.323.011a.166.166 0 0 0-.118.049c-.064.064-.011.117.118.117.13 0 .182-.053.117-.117a.165.165 0 0 0-.117-.049zm4.856.004c-.758.01-1.152.062-1.152.153 0 .12.725.186 2.028.186 1.116 0 2.029-.067 2.029-.149 0-.081-.913-.165-2.029-.186a29.574 29.574 0 0 0-.876-.004zm-16.865.008a.483.483 0 0 0-.195.034c-.14.056-.099.099.107.107.185.008.29-.034.231-.093-.03-.03-.082-.045-.143-.048zm-1.661.154a.088.088 0 1 0 .088.088.089.089 0 0 0-.088-.088zm.529 0a.088.088 0 1 0 .088.088.089.089 0 0 0-.088-.088zm12.17 0a.088.088 0 1 0 .089.088.089.089 0 0 0-.088-.088zm-.616.01a.166.166 0 0 0-.118.049c-.065.065-.012.118.118.118.129 0 .182-.053.117-.118a.165.165 0 0 0-.117-.049zm3.35 0a.165.165 0 0 0-.117.049c-.064.065-.012.118.118.118s.182-.053.118-.118a.166.166 0 0 0-.118-.049zm-16.315.167a.088.088 0 1 0 0 .176.088.088 0 0 0 0-.176zm27.869 0a.088.088 0 1 1 0 .176.088.088 0 0 1 0-.176zm-.024.414c.016.002.035.029.057.082.05.127.044.28-.014.338-.059.058-.1-.046-.093-.232.005-.128.024-.192.05-.188zm-21.581.462c-2.909.001-4.41.086-5.88.273-.309.04-.884.112-1.28.161-.395.05-1.164.358-1.708.685-.543.328-1.787.979-2.764 1.447-.977.469-1.776.92-1.776 1.002 0 .216.81.494 1.467.503.598.008 1.837.482 1.326.507-.275.013-1.612.605-2.617 1.158-.615.338-.657.757-.091.899.62.156.513.222-.982.607l-1.283.33-.603-.53c-.5-.44-.698-.51-1.16-.41-1.335.287-2.91 1.476-3.43 2.588-.462.99-.673 3.279-.315 3.416.427.164 3.511-1.776 4.243-2.67.364-.444.686-.783.715-.753.03.03-.061.502-.201 1.05l-.255.998.564.835c.439.65 1.125 1.2 3.111 2.496 1.402.914 2.58 1.63 2.619 1.591.134-.134 1.666-3.348 1.616-3.391-.027-.024-.526-.175-1.108-.337a42.485 42.485 0 0 1-1.3-.378c-.135-.046.57-.572 1.587-1.182l1.83-1.1.021-1.31.022-1.31 2.845-.013c1.564-.007 2.844.025 2.844.071 0 .047-.545.642-1.21 1.323-.873.893-1.467 1.727-2.124 2.982-.502.958-.885 1.77-.85 1.805.034.034.97.231 2.08.438 1.357.252 2.317.541 2.94.884 1.047.579 1.103.594 1.107.29.007-.563.28-.685.829-.37.507.29.56.29.998.003l.463-.303v1.121c0 .617.042 1.162.092 1.213.102.101 2.114-.416 2.286-.588.06-.06-.424-.488-1.074-.952l-1.183-.844.479-.412c.263-.226.546-.412.628-.412.083 0 .474.271.87.602.792.661.969.703 4.252.99l2.205.192 1.422-.76c.781-.417 1.958-1.037 2.616-1.377 1.41-.728 2.134-1.371 3.614-3.213l1.094-1.363-.458-.114c-.69-.174-1.516.016-2.757.634-1.747.87-3.136 1.399-3.238 1.233-.051-.083-.008-.204.097-.268.105-.065.265-.315.357-.557.213-.56-.206-1.498-.814-1.824-.238-.128-.433-.286-.433-.352 0-.156 2.04-.998 2.776-1.145.314-.062.607-.172.65-.243.045-.07-.229-.481-.607-.912-.378-.431-.691-.863-.695-.96-.004-.097.478-.406 1.072-.687l1.08-.51 1.49.232c1.297.202 1.598.196 2.349-.044l.861-.275.363 1.073c.199.59.362 1.333.362 1.65 0 .723-1.209 9.972-1.317 10.08-.044.044-.436-.01-.87-.12-1.611-.405-3.704-.155-5.634.672-.942.404-2.787.596-10.259 1.071-8.737.556-12.14.847-14.773 1.26l-2.426.382-2.336-.931c-2.253-.899-2.366-.924-3.129-.723-1.339.353-1.685.584-1.616 1.074.034.24.095.471.137.514.04.043.532-.086 1.09-.287l1.016-.366 2.2.886c2.472.996 2.496.997 5.745.479 1.175-.188 3.873-.46 5.997-.606 8.532-.587 11.88-.825 13.563-.966.97-.081 1.797-.117 1.838-.08.04.038-.277.385-.706.77l-.779.7-2.381-.087c-1.31-.048-2.875-.123-3.479-.165l-1.098-.077-.729.934-.73.934-1.524.207c-1.596.216-2.596.508-3.738 1.09-.675.345-.697.345-2.128.012l-1.445-.336-1.326.531-1.326.53-1.128-.305c-.809-.219-1.412-.538-2.13-1.127-.67-.55-1.579-1.047-2.74-1.5-1.528-.596-1.844-.662-2.645-.552-.5.068-1.009.131-1.13.14-.274.02-.294-.224.218 2.678.238 1.351.525 2.513.638 2.582.112.07 1.563.527 3.224 1.016 2.697.794 5.774 1.53 14.22 3.402 2.553.565 2.559.568 3.351 1.393 1.211 1.262 1.331 1.565.941 2.393l-.323.686-6.262 2.515c-3.444 1.384-6.913 2.836-7.71 3.228C9 52.328 6.384 54.609 2.925 58.91c-1.034 1.286-1.88 2.381-1.881 2.437.005.053 1.927.056 4.276.005 2.353-.05 5.519-.095 7.036-.1l2.76-.009.12-.476c.096-.384.153-.426.3-.22.15.212.164.205.087-.038-.105-.328.494-2.058.624-1.807.046.088.06.062.03-.058-.066-.278.982-2.34 1.19-2.34.086 0 .156-.12.156-.267 0-.398 2.538-4.124 3.663-5.377.646-.719 4.35-4.392 4.39-4.353.071.071-.559 2.033-.697 2.172-.068.068-.124.267-.124.443 0 .175-.218.457-.485.625-2.332 1.474-5.244 5.01-6.285 7.632-.33.832-1.192 3.923-1.115 4 .025.025 8.197.079 18.159.12 15.47.063 18.165.037 18.472-.177.353-.248.358-.397.358-10.458V40.458l-.527-.115c-.29-.064-.572-.19-.628-.279-.134-.218-.913-.208-1.05.014-.06.097-.227.176-.372.176s-.597.148-1.004.33c-.407.18-2.685 1.101-5.062 2.044-2.377.944-4.56 1.819-4.85 1.945-.291.127-.927.386-1.412.576-.485.19-1.318.525-1.852.743a290.866 290.866 0 0 1-4.371 1.745c-.576.221-1.623 1.169-4.417 3.994l-3.662 3.705.82-2.117c1.329-3.437 1.542-3.856 3.985-7.845l.59-.965 6.836-1.717c3.759-.943 6.895-1.719 6.97-1.724.075-.005.233-.227.352-.493.119-.267.554-1.037.966-1.712.413-.675.75-1.3.75-1.392 0-.09.238-.55.528-1.021 1.126-1.83 1.568-4.508 1.052-6.368-.183-.657-.178-.666 1.761-3.263l1.944-2.604.004-1.876c.004-1.857 0-1.876-.433-1.96-.24-.045-.479-.041-.53.01-.05.05-.091.842-.091 1.759v1.667l-.846 1.082a74.588 74.588 0 0 0-1.691 2.272c-.465.655-.946 1.19-1.068 1.19-.122 0-.36-.152-.528-.338-.293-.323-.272-.601.432-5.904l.738-5.565-.371-1.097c-.488-1.445-.483-1.73.026-1.604.219.053.352.047.297-.014-.054-.061-.394-.15-.754-.195-.36-.046-.74-.137-.845-.202-.105-.065-.69-.107-1.299-.094-1.06.023-1.13-.003-1.656-.6-.302-.345-.55-.557-.55-.472 0 .085-.33.254-.736.376-.686.205-.756.194-1.03-.168-.256-.34-.339-.36-.66-.16-.301.19-.417.189-.646-.001-.153-.127-.279-.34-.279-.474 0-.176-.255-.243-.926-.24-.51.002-3.585-.044-6.835-.102a408.301 408.301 0 0 0-7.053-.083zM1.043 61.348h-.001zm44.185-48.434a.089.089 0 0 0-.089.088.088.088 0 1 0 .088-.088zm2.276.384c-.042-.006-.072.048-.072.145 0 .13.053.183.118.118a.167.167 0 0 0 0-.235.086.086 0 0 0-.046-.028zm-19.176 4.539c.155.002.229.034.228.097-.002.1-.473.7-1.047 1.33l-1.043 1.147.295-.838c.227-.644.25-.912.096-1.157-.179-.286-.104-.335.752-.492.326-.06.563-.09.719-.087zm6.152 1.427c.154 0 .22.3.215.966-.006.609.098 1.128.279 1.405.158.241.287.481.287.533 0 .1-2.612.107-2.91.008a9.593 9.593 0 0 0-.662-.166c-.266-.059-.484-.182-.484-.275 0-.22 2.984-2.471 3.275-2.471zM6.352 23.222c-.192-.028-.608.184-1.274.649l-1.125.784-.052 1.568c-.028.863-.009 1.679.043 1.815.063.162.224.206.474.126.452-.143 3.631-.131 3.868.015.24.148.466-.566.592-1.868l.11-1.138-1.174-.882c-.646-.485-1.273-.954-1.393-1.043a.15.15 0 0 0-.07-.026zm23.16 22.708c-.041-.006-.072.048-.072.145 0 .13.054.183.118.118a.167.167 0 0 0 0-.235.086.086 0 0 0-.045-.028zm-.705 1.235c-.042-.006-.072.048-.072.145 0 .129.053.182.118.118a.167.167 0 0 0 0-.236.087.087 0 0 0-.046-.027zm-.882 1.235c-.042-.006-.072.048-.072.145 0 .13.053.182.118.117a.167.167 0 0 0 0-.235.085.085 0 0 0-.046-.027zm-1.924 4.378a.088.088 0 0 0 0 .176c.048 0 .088-.04.088-.088a.088.088 0 0 0-.088-.088zM3.028 61.39c-2.019-40.926-1.01-20.463 0 0z"/><g style="font-size:12.7px;line-height:1.25;font-family:ARKHAM;-inkscape-font-specification:ARKHAM;fill:#fff;stroke-width:.264583" aria-label="HITLER"><path style="font-size:12.7px;fill:#fff;stroke-width:.264583" d="M9.393 73.834q-.114.063-.178.063-.076 0-.076-.101 0-.039.025-.064 1.245-1.803 1.308-3.658.051-1.79-.61-2.717-.177-.242-.253-.33-.153-.166-.368-.305-.483-.305-.94-.305-.775 0-1.372.419-.178.127-.343.292l-.216.229q-.076.076-.228.292v4.534q0 .584.228.876.102.14 1.093.8-1.448-.229-2.223-.216-.33 0-1.981.267.775-.534 1.041-.902.356-.495.356-1.308v-.508q.013-.483.013-.775.012-2.375-.013-4.534-.026-1.587-.05-1.892-.064-.724-.28-1.08-.19-.317-1.27-1.434 1.143.71 1.346.825.825.445 1.46.445.394 0 .915-.178.787-.267.774-.254-.088.089-.698.444-.457.267-.648.94-.038.14-.038 2.07v.711q1.13-.901 2.781-.901.61 0 1.27.292.902.393 1.321 1.13.445.787.445 1.943 0 .572-.14 1.308v.013q-.444 1.511-1.295 2.426-.267.292-.839.876-.292.267-.317.267zM14.955 73.592q-1.08 0-2.274.33-.088.026-.14-.063-.037-.076.077-.127 1.08-.42 1.27-1.27.178-.775.178-1.69v-6.235q0-.254-.115-.622-.114-.381-.292-.52-.304-.242-.482-.356-.33-.19-.813-.33.914.012 1.829.266.28.076.635.241.305.153.508.19.533.103 1.32-.1-.863.622-.94 1.333 0 .952-.012 1.537v5.943q.013.597.127.826.229.47 1.207 1.105-1.575-.458-2.083-.458zM25.575 63.851l-.077.204q-.101.419-.216 1.625l-.025.28q-.089-.19-.241-.546-.42-1.169-.953-1.537-.266-.19-.559-.19-.127 0-.368.063-.406.101-.406 1.092v7.417q0 .101-.013.254 0 .38.203.597.28.292 1.6.876-.368-.025-1.41-.14-.888-.101-1.396-.101-.254 0-.902.076-.508.063-1.867.178 1.245-.445 1.69-1.016.24-.318.24-.915v-.558q-.012-.102-.012-.026 0-3.53-.038-6.756v-.457q-.026-.191-.051-.28-.064-.14-.203-.267-.127-.127-.369-.127-.19 0-.406.077-.952.355-1.867 2.438.102-1.054-.013-1.829-.05-.33-.088-.66-.115-.457-.483-1.105.787.483 1.473.571.407.051 1.588.051h1.32q.877.013 1.347.013h1.46q.622-.013 1.067-.216.19-.089.838-.495-.635.863-.863 1.41z"/><path style="font-size:12.7px;fill:#fff;stroke-width:.264583" d="M32.666 73.732q-.623 0-.813.025-.775.102-.94.115-.508.038-1.359-.076-1.016-.14-1.371-.14-1.13 0-1.982.355-.14.064-.14-.076 0-.05.039-.076.952-.52 1.054-2.057.013-.369.05-1.308.013-.216 0-5.055 0-1.156-.545-1.334l-.762-.152 1.778-.19q1.32-.14 2.832-.724-.838.647-1.105.952l-.013.013q-.394.444-.508 1.88-.038.52-.038 1.993 0 2.185.102 3.074.19 1.727.85 2.146.394.254 1.067.254.496 0 .762-.203 1.22-.927 1.664-3.023.089-.101.14-.101.05 0 .05.14 0-.039-.088.622-.064.393-.127 1.016-.026.457.025.698.178.851.686 1.41-1.169-.178-1.308-.178zM35.734 69.097v.025q0 2.299 1.79 3.581.623.445 1.245.445.597 0 1.258-.394 1.435-.863 2.057-2.832.025-.102.114-.076.09.013.076.114-.203 1.524-.203 2.299 0 .927.483 1.702-.851-.56-1.181-.496-.076-.012-.242-.012-.38 0-1.27.203-.889.19-1.346.19-.901 0-1.625-.304-1.46-.61-2.26-1.956-.776-1.283-.776-2.909 0-3.01 2.439-4.597.825-.533 2.057-.533 1.054 0 2.121.393.203.051.406.051.585 0 1.575-1.117-.622 1.74-.584 3.594.013.724-.102 1.562-.342-1.766-.558-2.235-.343-.737-1.042-1.182-.698-.457-1.498-.457-1.83 0-2.591 2.223-.292.85-.356 1.943l3.505.013v.762zM50.59 73.643q.165.254.47.445.178.127.94.52-.077-.025-1.27-.343-.432-.114-.635-.228-.496-.267-.712-.445-.38-.304-.571-.71-.14-.547-.483-1.525-.114-.267-.431-.698-.318-.445-.572-.66-.8-.661-1.702-.674v.368q0 .216-.012 1.245-.013 1.016-.013 1.181 0 .927.648 1.257.05.051.977.458l-.165-.013q-1.98-.152-2.45-.152-.674 0-1.88.152.571-.28.863-.75.305-.47.318-1.384.063-3.708 0-6.185-.038-1.422-.686-2.006-.14-.127-.14-.229 0-.14.115-.14.038 0 .279.153.75.457 1.308.52.305.039 1.22-.126.876-.165 1.485-.064.622.102 1.308.508.686.394 1.092.89.458.545.458 1.625 0 .66-.19.978-.8 1.32-1.804 1.524h.012q1.5.419 1.804 3.073.089.495.152.75.127.47.267.685zm-2.134-8.242q-.165-.28-.38-.635-.47-.648-1.309-.648-.368 0-.698.28-.318.266-.432.673-.038.127-.038.393 0 .14.025.75.026.61.026 1.105 0 .546-.026 1.092l-.012.241q.14.013.838.013.774 0 .876-.013.559-.013 1.194-.902.19-.444.19-1.016 0-.724-.254-1.333z"/></g></svg>