<?xml version="1.0" encoding="UTF-8" standalone="no"?>
<svg
   xmlns:dc="http://purl.org/dc/elements/1.1/"
   xmlns:cc="http://creativecommons.org/ns#"
   xmlns:rdf="http://www.w3.org/1999/02/22-rdf-syntax-ns#"
   xmlns:svg="http://www.w3.org/2000/svg"
   xmlns="http://www.w3.org/2000/svg"
   xmlns:sodipodi="http://sodipodi.sourceforge.net/DTD/sodipodi-0.dtd"
   xmlns:inkscape="http://www.inkscape.org/namespaces/inkscape"
   width="85mm"
   height="115mm"
   viewBox="0 0 85 115"
   version="1.1"
   id="svg848"
   inkscape:export-filename="/Users/leewayleaf/Desktop/test.png"
   inkscape:export-xdpi="96"
   inkscape:export-ydpi="96"
   inkscape:version="1.0 (4035a4f, 2020-05-01)"
   sodipodi:docname="liberal.svg">
  <defs
     id="defs842">
    <rect
       x="0.44911981"
       y="94.189529"
       width="83.706909"
       height="19.758965"
       id="rect1639" />
  </defs>
  <sodipodi:namedview
     id="base"
     pagecolor="#ffffff"
     bordercolor="#666666"
     borderopacity="1.0"
     inkscape:pageopacity="0.0"
     inkscape:pageshadow="2"
     inkscape:zoom="0.93545297"
     inkscape:cx="44.015001"
     inkscape:cy="267.81062"
     inkscape:document-units="mm"
     inkscape:current-layer="layer1"
     inkscape:document-rotation="0"
     showgrid="false"
     inkscape:window-width="1252"
     inkscape:window-height="777"
     inkscape:window-x="3"
     inkscape:window-y="25"
     inkscape:window-maximized="0" />
  <metadata
     id="metadata845">
    <rdf:RDF>
      <cc:Work
         rdf:about="">
        <dc:format>image/svg+xml</dc:format>
        <dc:type
           rdf:resource="http://purl.org/dc/dcmitype/StillImage" />
        <dc:title></dc:title>
      </cc:Work>
    </rdf:RDF>
  </metadata>
  <g
     inkscape:label="Layer 1"
     inkscape:groupmode="layer"
     id="layer1">
    <path
       id="path1623"
       style="fill:#3a5077;fill-opacity:1;stroke-width:1"
       d="M 37.142256,0.84180906 26.875937,9.796818 c -10.430845,9.098886 -12.721803,11.06049 -14.818096,12.689148 -1.624495,1.2621 -2.6200472,3.039298 -2.7713888,4.945952 -0.093045,1.172247 0.01834,1.873691 0.7589338,4.774901 1.213975,4.75561 1.850903,7.125544 1.933881,7.195944 0.03901,0.0331 0.34773,-0.142555 0.685843,-0.390673 2.181242,-1.600571 6.07512,-2.092442 9.028026,-1.1405 0.618946,0.19953 1.393188,0.619908 1.730443,0.939477 2.049301,1.941791 4.83566,4.194059 5.188282,4.194059 0.622764,0 1.62749,0.693007 1.947891,1.343588 0.215485,0.437679 0.288102,1.543915 0.288102,4.383194 v 3.798218 l 0.467787,-0.01034 c 1.249818,-0.0279 4.972547,-0.479317 5.126763,-0.621668 0.134299,-0.12397 0.871395,-8.384701 0.853953,-9.570992 -0.0025,-0.17961 0.236017,-0.212609 0.9843,-0.135909 1.165613,0.119481 1.78034,0.174594 7.119119,0.638205 2.229178,0.193579 4.26715,0.351917 4.52863,0.351917 0.261458,0 0.507461,0.0994 0.546359,0.220657 0.0028,0.0088 0.0051,0.0155 0.0079,0.02429 l 6.871218,0.421164 -0.02985,0.352949 0.117558,-0.03565 3.744115,5.647198 c 0.03488,0.02196 0.06997,0.03855 0.104763,0.06201 1.248873,0.842031 2.391184,1.131594 3.906134,0.989602 0.718616,-0.0674 1.606384,-0.130876 1.972255,-0.141076 0.365858,-0.01021 0.61826,-0.0832 0.560978,-0.161747 -0.05725,-0.0786 0.10126,-0.322557 0.352667,-0.542084 0.374179,-0.326731 0.433148,-0.34027 0.322822,-0.07545 -0.09005,0.216091 -0.04889,0.299096 0.124865,0.249598 0.143008,-0.0407 0.262029,-0.186325 0.265565,-0.323496 0.0094,-0.42573 0.290639,-0.661109 0.685232,-0.573608 0.20799,0.0461 0.499739,-0.0405 0.648688,-0.192752 0.18181,-0.185851 0.194396,-0.276987 0.03777,-0.276987 -0.377329,0 -0.270496,-0.493384 0.292366,-1.348753 0.289235,-0.439531 0.62581,-1.194179 0.747968,-1.677419 0.166691,-0.659389 0.298921,-0.853752 0.529306,-0.778764 0.168833,0.055 0.444971,-0.0173 0.613969,-0.160713 0.24502,-0.207849 0.263881,-0.394356 0.09319,-0.918808 -0.168185,-0.516877 -0.148158,-0.742701 0.09319,-1.055232 0.356668,-0.46182 0.394852,-0.653656 0.09928,-0.498676 -0.127993,0.0671 -0.207703,-0.229524 -0.207703,-0.772563 0,-0.485071 0.103078,-0.936125 0.229629,-1.002524 0.160407,-0.0841 0.144861,-0.166624 -0.05177,-0.272333 -0.164071,-0.0881 -0.184252,-0.152514 -0.04873,-0.154514 0.128192,-0.0021 0.295173,-0.40245 0.37155,-0.890903 0.110195,-0.704739 0.212306,-0.877572 0.494587,-0.837673 0.232976,0.0329 0.345551,-0.0584 0.325866,-0.264584 -0.02389,-0.250097 0.02916,-0.272769 0.259475,-0.110587 0.33069,0.232825 0.399146,0.5916 0.08101,0.42478 -0.115157,-0.0604 -0.272657,0.0294 -0.349623,0.199472 -0.0769,0.170098 -0.05018,0.334452 0.05908,0.365353 0.109219,0.03089 0.169722,0.353253 0.134613,0.716235 -0.07796,0.805688 0.250313,1.337791 0.570113,0.924491 0.144256,-0.186481 0.205342,-0.198051 0.207703,-0.03824 0.0025,0.172958 0.103356,0.181726 0.425149,0.03566 0.231891,-0.105291 0.360273,-0.275762 0.285664,-0.378272 -0.08996,-0.123518 -0.193342,-0.107151 -0.306374,0.04806 -0.09385,0.128831 -0.233669,0.180538 -0.310638,0.115239 -0.077,-0.0653 0.0056,-0.241861 0.183337,-0.39274 0.199433,-0.169201 0.37276,-0.206285 0.452558,-0.09664 0.0712,0.0977 0.301311,0.177758 0.511032,0.177768 0.209708,0 0.44342,0.138727 0.51956,0.308507 0.111053,0.24751 0.08687,0.265128 -0.123037,0.08837 -0.574875,-0.48414 -0.780894,-0.17998 -0.268004,0.395841 0.258517,0.29024 0.345691,0.307882 0.495803,0.101804 0.268619,-0.368761 0.88367,0.931142 0.930701,1.966803 0.0208,0.458251 0.102913,0.888297 0.182119,0.955498 0.334588,0.283858 0.19274,-1.254119 -0.186993,-2.028301 -0.406394,-0.828551 -0.182555,-1.965253 0.386778,-1.965253 0.384177,0 0.408012,-0.0816 0.296629,-0.996839 -0.15014,-1.234155 0.341475,-2.190102 1.298593,-2.526462 0.537286,-0.18883 0.712167,-0.17876 1.151801,0.06563 2.167109,1.204699 2.685862,7.665384 0.840555,10.466544 -0.384342,0.58338 -0.468188,0.862237 -0.308205,1.025779 0.156986,0.160448 0.127802,0.411755 -0.102327,0.879014 -0.379377,0.770322 -0.381685,0.788067 -0.121209,0.788067 0.486026,0 1.720888,-1.186643 2.292029,-2.201934 2.026955,-3.603289 1.506125,-9.51294 -1.056784,-11.989448 -1.51007,-1.459161 -3.725576,-1.530366 -5.327156,-0.171566 -0.376846,0.319788 -0.608191,0.319127 -0.753451,-0.0021 -0.111408,-0.246311 0.0028,-1.098195 0.179683,-1.341003 0.04811,-0.06607 1.001433,-0.176898 2.118437,-0.246497 1.117008,-0.06956 2.148732,-0.209256 2.292638,-0.310576 0.282609,-0.198969 0.361608,-2.030341 0.10233,-2.369881 -0.08402,-0.110011 -1.340899,-0.534453 -2.793319,-0.943612 l -2.641041,-0.744141 -0.872833,0.414962 c -0.719508,0.341871 -1.295009,0.936681 -1.690853,1.747181 -0.03016,0.06175 -0.3123,0.165593 -0.626758,0.230992 -0.529425,0.110054 -0.571943,0.07923 -0.571943,-0.419094 0,-0.296011 -0.139267,-0.822183 -0.31003,-1.168922 -0.170792,-0.346739 -0.256278,-0.704818 -0.190037,-0.795816 0.16821,-0.23092 -0.312574,-0.680344 -0.720562,-0.673343 -0.300359,0.005 -0.297368,0.03179 0.02557,0.239778 0.569473,0.366771 0.433497,0.437486 -0.467786,0.243396 -0.63836,-0.13747 -2.003272,-0.07044 -5.873515,0.288353 -9.833367,0.911611 -9.345345,0.818475 -9.751635,1.862937 -0.131467,0.33796 -0.454118,0.757896 -0.716904,0.933275 -0.05188,0.03462 -0.145694,0.14465 -0.255823,0.284221 l 8.037028,0.06253 -5.208994,8.74055 -0.256427,-0.396875 -13.437886,-1.413865 0.16994,-0.187587 c -1.608276,-0.137631 -3.023132,-0.25528 -3.152684,-0.25528 -0.109203,0 -0.08606,-0.0954 0.05116,-0.211873 0.39125,-0.331941 0.292871,-0.977294 -0.193084,-1.266074 -0.42609,-0.253201 -0.401039,-0.273238 0.675489,-0.532267 0.61508,-0.148 1.569017,-0.362458 2.119654,-0.476457 0.648352,-0.134241 1.115745,-0.355859 1.326613,-0.628901 0.298996,-0.387149 0.295419,-0.449691 -0.04568,-0.769464 -0.295057,-0.276656 -0.653519,-0.3507 -1.742624,-0.360701 -2.395891,-0.02167 -2.437381,-0.238646 -0.135219,-0.709517 2.394803,-0.489821 2.942106,-0.775092 2.747635,-1.43247 -0.160344,-0.542021 -0.608265,-0.662591 -2.475979,-0.665594 -0.771853,-0.0013 -1.403966,-0.06627 -1.403966,-0.144177 0,-0.07792 0.912189,-0.325927 2.027073,-0.551386 1.114893,-0.22547 2.144222,-0.4889 2.287158,-0.585494 0.358823,-0.242382 0.327332,-1.131078 -0.04446,-1.252122 -0.167502,-0.05453 -1.015186,-0.153959 -1.883328,-0.220657 -0.868124,-0.06675 -1.502956,-0.178782 -1.410665,-0.249082 0.09227,-0.07028 1.010118,-0.305287 2.039253,-0.522449 2.036395,-0.429686 2.390705,-0.588954 2.390705,-1.072285 0,-0.603779 -0.581305,-0.872815 -1.885764,-0.872815 -1.800708,0 -1.662,-0.403457 0.274703,-0.798917 2.020941,-0.41266 2.234776,-0.522937 2.234776,-1.151868 0,-0.667302 -0.562759,-0.871267 -2.404105,-0.871264 -0.735812,-3e-6 -1.338183,-0.06652 -1.338183,-0.147795 0,-0.08127 1.063627,-0.364239 2.363292,-0.628902 1.29965,-0.264665 2.468716,-0.571588 2.598405,-0.681612 0.313915,-0.266383 0.300484,-0.924506 -0.02376,-1.14515 -0.315203,-0.214508 -6.331184,-0.748275 -8.433548,-0.748275 -1.136044,0 -1.727556,0.09449 -2.385831,0.379822 -0.481429,0.208677 -1.670912,0.527725 -2.642869,0.709518 -6.263776,1.171569 -8.331682,1.439 -5.710278,0.737939 0.806872,-0.215792 1.255489,-0.444512 1.400313,-0.714168 0.397475,-0.740134 -0.06576,-0.919367 -2.518613,-0.974618 l -2.215284,-0.05013 1.247429,-0.397908 c 0.686093,-0.218728 1.387765,-0.464517 1.559287,-0.546737 0.461872,-0.221429 0.517601,-0.937152 0.09319,-1.200443 -0.335418,-0.208088 -0.325659,-0.236989 0.135828,-0.38654 0.274207,-0.08886 3.398919,-1.154552 6.943698,-2.368331 3.544789,-1.213779 7.209081,-2.380665 8.142402,-2.593123 l 1.69694,-0.38654 2.045348,0.361735 c 1.124938,0.198964 3.822722,0.677251 5.995335,1.062984 2.570204,0.456324 4.712617,0.955878 6.13299,1.429887 1.200653,0.400682 2.697977,0.883323 3.326884,1.072286 0.628917,0.188962 1.423947,0.453883 1.76699,0.589111 0.34304,0.135229 1.746398,0.603695 3.118573,1.040764 1.372173,0.43707 3.00779,0.966601 3.634476,1.176672 l 1.139012,0.381889 -0.411751,-0.411345 c -0.226471,-0.226385 -0.458131,-0.451719 -0.515294,-0.500228 -0.05717,-0.04851 -0.61793,-0.603958 -1.24621,-1.23455 -1.465094,-1.470513 -2.16972,-2.038439 -4.523151,-3.645772 -1.057708,-0.722392 -1.921051,-1.36839 -1.919872,-1.435571 0.0092,-0.351229 0.495142,-0.508427 2.408368,-0.779281 4.073082,-0.576622 8.39877,-2.021366 10.759078,-3.5930619 2.154685,-1.434788 3.692332,-3.4593304 4.495739,-5.9190185 0.231585,-0.70903 0.420885,-1.30692785 0.420885,-1.32911785 0,-0.0222001 -9.997881,-0.0453597 -22.217399,-0.0511597 z M 13.071986,24.66051 c 0.171522,0 0.311858,0.11445 0.311858,0.254248 0,0.29469 -0.296911,0.49379 -0.490932,0.329179 -0.248476,-0.210809 -0.134074,-0.583427 0.179074,-0.583427 z m 0.318558,1.453658 c 0.246477,0.006 0.476806,0.250705 0.316121,0.471289 -0.07683,0.105461 -0.221926,0.19172 -0.322821,0.19172 -0.32107,0 -0.471363,-0.37628 -0.231457,-0.57981 0.0717,-0.06083 0.155995,-0.0852 0.238157,-0.0832 z m 57.859888,6.743774 c 0.06017,-0.0067 0.05166,0.07411 -0.0055,0.259416 -0.123489,0.400659 -0.190953,0.439047 -0.360588,0.20619 -0.06264,-0.08602 0.01781,-0.249219 0.179075,-0.36277 0.08985,-0.06326 0.150892,-0.09879 0.186993,-0.102836 z m 0.294194,0.692981 c 0.01622,0.0019 0.03345,0.0076 0.05238,0.01757 0.114321,0.05996 0.208312,0.307298 0.208312,0.549836 0,0.249061 0.09031,0.393364 0.207703,0.331764 0.114317,-0.05993 0.2077,-0.02931 0.2077,0.0677 0,0.298048 -0.297727,0.348885 -0.571332,0.09767 -0.289744,-0.266044 -0.348148,-1.093018 -0.104765,-1.064536 z m -0.532958,0.95808 c 0.11399,0.03034 0.150243,0.299096 0.0536,0.625803 -0.07513,0.253979 -0.230419,0.461987 -0.344749,0.461987 -0.189494,0 -0.05338,-0.857494 0.165674,-1.043348 0.02551,-0.02164 0.04982,-0.03561 0.07187,-0.04237 0.0193,-0.0059 0.03732,-0.0064 0.0536,-0.0021 z m -6.002038,1.491382 c 0.784231,0.0053 1.587195,0.304795 2.337714,0.941547 1.535377,1.302625 2.270396,3.411415 2.113563,6.063194 -0.156081,2.638912 -1.313084,4.711303 -3.050354,5.463233 -0.454367,0.196659 -1.086773,0.354883 -1.405794,0.350882 -2.881636,-0.0343 -5.13096,-3.989983 -4.441531,-7.810891 0.561817,-3.113704 2.442267,-5.021551 4.446402,-5.007965 z m 8.270921,2.776059 c -0.0155,0.0011 0.01154,0.07789 0.06822,0.230994 0.06585,0.17771 0.130547,0.455166 0.143748,0.617017 0.02177,0.264959 0.03365,0.263998 0.118162,-0.0093 0.0516,-0.16673 -0.01369,-0.444711 -0.144355,-0.617532 -0.112297,-0.148463 -0.170081,-0.221954 -0.185774,-0.221176 z m 1.012317,0.628901 c 0.07792,0.01701 0.144209,0.232191 0.153493,0.524 0.0112,0.333491 -0.06387,0.606165 -0.166893,0.606165 -0.232056,0 -0.249994,-1.004467 -0.02011,-1.124997 0.01144,-0.006 0.02236,-0.0082 0.0335,-0.0052 z m -55.536795,0.978236 c -1.545299,-0.0338 -2.682313,0.337656 -3.738633,1.201478 -1.137902,0.930519 -1.312497,1.599407 -0.599351,2.297018 0.379874,0.37161 0.481008,0.387114 1.340012,0.203604 1.587579,-0.33915 1.640366,-0.315613 2.402885,1.080038 1.363502,2.49565 2.129837,3.92998 2.308475,4.321698 0.09955,0.218282 0.229307,0.396875 0.288712,0.396875 0.235932,0 0.919591,-1.550069 1.050082,-2.38125 0.142183,-0.90569 0.374065,-1.260948 1.946063,-2.978628 l 0.910599,-0.994773 -1.430158,-1.241266 c -1.717976,-1.49035 -2.193323,-1.724417 -3.790407,-1.866038 -0.238394,-0.02109 -0.467522,-0.03386 -0.688279,-0.03876 z m 57.911664,1.10226 c -0.02486,-0.0011 -0.05243,0.006 -0.08101,0.02066 -0.114321,0.06 -0.207701,0.183618 -0.207701,0.274918 0,0.0913 0.09337,0.165883 0.207701,0.165883 0.114308,0 0.208311,-0.123669 0.208311,-0.274921 0,-0.113459 -0.05276,-0.183772 -0.1273,-0.18655 z m -4.488432,0.54932 0.01765,0.440798 c 0.0097,0.242541 -0.07315,0.559864 -0.183946,0.705385 -0.179286,0.23518 -0.199507,0.23518 -0.183949,0 0.0097,-0.145521 0.09236,-0.462844 0.183949,-0.705385 z m 6.198165,1.567346 c -0.07455,0.003 -0.127301,0.0731 -0.127301,0.18655 0,0.151241 0.09337,0.274921 0.207701,0.274921 0.114308,0 0.208311,-0.0746 0.208311,-0.165884 0,-0.0913 -0.09398,-0.214918 -0.208311,-0.274917 -0.0286,-0.015 -0.05555,-0.02156 -0.0804,-0.02066 z m -6.435713,0.163814 c 0.07724,0.0021 0.156615,0.0736 0.216838,0.226859 0.03727,0.0949 -0.061,0.322464 -0.218665,0.505394 -0.265051,0.307451 -0.284682,0.290044 -0.262522,-0.227375 0.01378,-0.321339 0.135618,-0.508928 0.264349,-0.504878 z m 6.801169,0.473872 c -0.06096,0 0.08358,0.267549 0.321603,0.594278 0.49575,0.68055 0.583881,1.053557 0.127911,0.542086 -0.293361,-0.329028 -0.305966,-0.324511 -0.311857,0.123508 -0.0036,0.25641 0.133634,0.512024 0.305158,0.567922 0.171522,0.0559 0.311858,0.02476 0.311858,-0.06924 0,-0.341352 0.322336,-0.152529 0.793652,0.464572 l 0.481794,0.630451 -0.447686,-0.120406 c -0.402119,-0.108292 -0.423746,-0.0828 -0.214402,0.249081 0.31447,0.49852 0.820478,0.4801 0.752234,-0.02739 -0.05166,-0.384169 -1.89627,-2.954858 -2.120265,-2.954858 z m -7.374328,2.358511 c -0.08303,-0.01201 -0.190395,0.128686 -0.402614,0.464056 -0.214873,0.33955 -0.394852,0.760878 -0.399567,0.936376 -0.0048,0.17548 0.08484,0.269806 0.199177,0.209807 0.114317,-0.06 0.2077,-0.258871 0.2077,-0.442349 0,-0.183481 0.154952,-0.407329 0.34414,-0.497128 0.232849,-0.11057 0.294509,-0.26973 0.191256,-0.493509 -0.0497,-0.107723 -0.09029,-0.170072 -0.140092,-0.177253 z m 0.02071,1.16944 c -0.114321,0 -0.207703,0.123659 -0.207703,0.274918 0,0.151281 0.09338,0.22588 0.207703,0.165881 0.114318,-0.06 0.2077,-0.183618 0.2077,-0.274918 0,-0.0913 -0.09337,-0.165881 -0.2077,-0.165881 z m 8.84225,0 c -0.185477,0 -0.258143,0.10345 -0.185773,0.263549 0.06557,0.144981 0.202847,0.21958 0.305155,0.165881 0.293551,-0.153909 0.216881,-0.42943 -0.119382,-0.42943 z m -2.605103,1.234033 c -0.114321,0 -0.207704,0.123669 -0.207704,0.274918 0,0.151281 0.09338,0.226398 0.207704,0.166399 0.114317,-0.06 0.2077,-0.183618 0.2077,-0.274921 0,-0.0913 -0.09337,-0.166396 -0.2077,-0.166396 z m 2.650787,5.29e-4 c -0.162001,0 -0.294805,0.121531 -0.294805,0.269751 0,0.30495 0.381124,0.259815 0.506768,-0.05994 0.04526,-0.11516 -0.04996,-0.209807 -0.211963,-0.209807 z m -5.509278,0.01241 c -1.255466,0.007 -2.057644,0.0713 -1.830334,0.146759 0.386254,0.128241 0.383478,0.138946 -0.05238,0.235646 -0.310416,0.0689 -0.456213,0.02191 -0.456213,-0.146762 0,-0.326271 -0.194477,-0.313206 -0.65965,0.04393 -0.586429,0.45021 -0.454844,0.615977 0.399567,0.503328 l 0.779644,-0.102836 -0.831418,0.267166 c -0.457386,0.14705 -0.972365,0.23137 -1.143883,0.187071 -0.448592,-0.115782 -1.963623,0.363543 -2.036819,0.644403 -0.036,0.13812 -0.304968,0.307134 -0.65965,0.459404 h 0.670615 c 0.115921,-0.241139 1.833247,-1.061548 1.975298,-0.941028 0.04912,0.0417 -0.183709,0.195303 -0.517121,0.341583 -0.33341,0.146277 -0.727286,0.390165 -0.87588,0.542083 -0.02096,0.02141 -0.04257,0.03836 -0.06396,0.05736 h 6.182329 c -0.04347,-0.01921 -0.02757,-0.04553 0.06822,-0.07803 0.150081,-0.051 0.329283,-0.04516 0.398347,0.01344 v 5.29e-4 c 0.03044,0.0258 0.01884,0.04758 -0.01706,0.06408 h 1.24073 c -0.01026,-0.087 0.0041,-0.310449 0.04081,-0.57671 0.06774,-0.492228 0.02189,-0.599049 -0.222931,-0.519348 -0.172722,0.0562 -0.362188,-0.02011 -0.431848,-0.174149 -0.08149,-0.180131 -0.389307,-0.274918 -0.893546,-0.274918 -1.035556,0 -0.783647,-0.168955 0.305767,-0.205155 0.567119,-0.01889 0.866137,-0.110273 0.866137,-0.264583 0,-0.182772 -0.501314,-0.233244 -2.234776,-0.223243 z m -0.975773,0.340029 c 0.164766,0 0.299676,0.0792 0.299676,0.176218 0,0.097 -0.192753,0.176734 -0.428196,0.176734 -0.235465,0 -0.369788,-0.0797 -0.299065,-0.176734 0.07067,-0.097 0.262809,-0.176218 0.427585,-0.176218 z m 6.692143,0.43615 c -0.05954,-0.004 -0.181707,0.0378 -0.363021,0.133842 -0.2287,0.121169 -0.416014,0.2808 -0.416014,0.354499 0,0.205701 0.207067,0.159713 0.534785,-0.118337 0.268263,-0.227592 0.34347,-0.362964 0.24425,-0.370004 z m -1.688414,0.456819 c -0.0852,0.014 -0.07894,0.0938 0.05725,0.233061 0.191938,0.196231 0.07462,0.299336 -0.602397,0.529166 -0.345391,0.117251 -0.603175,0.199091 -0.752842,0.24288 h 0.826544 c 0.02685,-0.10038 0.0839,-0.137766 0.167501,-0.139525 0.152979,-0.003 0.464397,-0.125042 0.692542,-0.271301 0.355823,-0.228132 0.370801,-0.290029 0.104154,-0.433049 -0.230625,-0.12369 -0.407563,-0.175252 -0.492756,-0.161232 z m -1.816326,0.264583 c 0.04886,0.0021 0.09105,0.02795 0.127908,0.07855 0.08015,0.109278 0.111951,0.215678 0.07187,0.236677 -0.04004,0.02101 -0.236619,0.144452 -0.436722,0.274403 -0.431336,0.280109 -0.468001,0.06011 -0.06517,-0.390674 0.121147,-0.13553 0.220683,-0.201514 0.302112,-0.198956 z m -56.243955,3.251981 c -1.367248,0 -1.946062,0.0627 -1.946062,0.210322 0,0.115591 0.458859,1.524664 1.020236,3.131074 0.56139,1.606413 1.129039,3.277944 1.261438,3.714504 0.132402,0.43656 0.332668,1.093655 0.444641,1.460376 0.187456,0.613889 0.59996,0.768749 0.59996,0.225308 0,-0.128381 0.561346,-1.965261 1.247429,-4.08192 0.686095,-2.116661 1.247429,-3.980476 1.247429,-4.141867 0,-0.365659 -1.13832,-0.517797 -3.875071,-0.517797 z m 9.934971,1.384411 c -0.249274,0.0395 -1.394997,2.640184 -1.810843,4.163055 -0.206868,0.757578 -0.382149,2.416264 -0.447686,4.242633 -0.09215,2.565561 -0.04292,3.304471 0.339266,5.115451 0.590683,2.798879 1.797929,5.883714 2.387658,6.101435 0.240158,0.0887 2.026795,0.445063 3.970699,0.791683 1.943912,0.34661 4.095934,0.73618 4.782017,0.865579 6.114911,1.153293 8.225898,1.547625 8.939705,1.670183 0.457395,0.0785 2.584583,0.469252 4.726588,0.868682 2.142014,0.399429 4.254576,0.72657 4.694915,0.72657 0.440355,0 0.870064,0.0595 0.954455,0.132292 0.08443,0.0728 0.450328,0.225623 0.813751,0.339513 0.363433,0.11389 0.703042,0.213154 0.75467,0.220144 0.278342,0.0398 2.29512,-1.156496 2.478415,-1.470197 0.219753,-0.376079 1.066527,-2.686368 1.066527,-2.909898 0,-0.0679 -0.397821,-0.140748 -0.883798,-0.161748 -0.485983,-0.02101 -1.631856,-0.152865 -2.546633,-0.293005 -1.561236,-0.23918 -4.356067,-0.568645 -13.618176,-1.606103 -2.115425,-0.23696 -4.50115,-0.505446 -5.301575,-0.596347 -5.171396,-0.58743 -8.841215,-3.373323 -9.765033,-7.412984 -0.166394,-0.727599 -0.548435,-3.386839 -0.849081,-5.909199 -0.300647,-2.52236 -0.592699,-4.704831 -0.648686,-4.850349 -0.0081,-0.02119 -0.02052,-0.02999 -0.03716,-0.02739 z m 31.562155,5.068424 v 1.391648 l 0.234501,-0.132292 2.43395,0.293005 c 3.447468,0.415348 7.448242,1.016918 7.72334,1.161169 0.128404,0.0673 0.26477,0.415724 0.302723,0.774112 0.04849,0.458402 0.484817,1.160278 1.471577,2.367299 0.136138,0.166521 0.214296,0.256765 0.325255,0.390673 v -6.245614 h -1.628114 l -0.03289,0.0739 -3.175828,-0.02635 c -0.844294,-0.007 -1.706757,-0.02474 -2.435777,-0.04754 z M 20.306223,78.283077 c -0.155514,-1.1e-5 -0.630439,0.123933 -1.055563,0.275434 -0.425136,0.1515 -3.954298,1.267415 -7.842116,2.479437 C 2.2719725,83.886237 1.0690219,84.276834 0.74448498,84.502336 0.53304272,84.649026 0.48808296,85.714942 0.53617401,89.4395 l 0.0615187,4.750099 0.49093169,0.336928 c 0.4755829,0.326462 1.1157624,0.336931 20.6343576,0.336931 11.079056,0 20.144034,-0.03341 20.144034,-0.07441 0,-0.041 -1.747702,-1.410197 -3.8836,-3.042708 C 34.239588,88.884861 30.29601,85.83631 23.706199,80.708773 21.991854,79.374831 20.461725,78.283081 20.306223,78.283081 Z m 45.529343,6.76961 c -0.148725,0.126183 2.01103,3.46129 2.241474,3.46129 0.106493,0 0.193695,0.160099 0.193695,0.35605 0,0.19595 0.225835,0.659934 0.501894,1.030944 0.276056,0.371019 1.07204,1.639154 1.768817,2.818434 l 1.26692,2.144572 h 4.722322 c 4.651645,0 4.71629,-0.005 4.312404,-0.336931 -0.348354,-0.286009 -5.843028,-3.806399 -8.518212,-5.45755 -0.457385,-0.282308 -2.081326,-1.320985 -3.608897,-2.308383 -1.527586,-0.987402 -2.823959,-1.756323 -2.880417,-1.708426 z m -1.258391,7.165457 c -0.447332,0 -0.786863,0.152577 -1.147539,0.516247 -0.525273,0.529619 -0.897226,1.63881 -0.659042,1.965772 0.240109,0.329607 0.789146,0.0859 0.948973,-0.421164 0.08604,-0.272992 0.267549,-0.610007 0.40383,-0.749308 0.353235,-0.361111 1.530768,-0.313364 2.488768,0.101285 l 0.820453,0.355018 -0.217448,-0.405143 c -0.297687,-0.554302 -1.863005,-1.362707 -2.637995,-1.362707 z" />
    <text
       xml:space="preserve"
       id="text1637"
       style="font-size:6.34999999999999964px;line-height:1.25;font-family:ARKHAM;-inkscape-font-specification:ARKHAM;white-space:pre;shape-inside:url(#rect1639);" />
    <g
       transform="translate(-5.85e-6,-0.15819941)"
       aria-label="LIBERAL"
       id="text1645"
       style="font-size:18.3444px;line-height:1.25;font-family:ARKHAM;-inkscape-font-specification:ARKHAM;fill:#ffffff;stroke-width:0.264583">
      <path
         d="m 11.958721,112.73168 q -0.898875,0 -1.174041,0.0367 -1.1190089,0.14676 -1.3574861,0.1651 -0.733776,0.055 -1.9628508,-0.11006 -1.4675521,-0.20179 -1.9811953,-0.20179 -1.6326516,0 -2.8617265,0.51364 -0.2017884,0.0917 -0.2017884,-0.11006 0,-0.0734 0.055033,-0.11007 1.3758301,-0.75212 1.5225853,-2.97179 0.018344,-0.53199 0.073378,-1.88948 0.018344,-0.31185 0,-7.30107 0,-1.669338 -0.7888092,-1.926159 L 2.1811557,98.606488 4.7493718,98.331322 q 1.9078176,-0.201789 4.0908013,-1.045631 -1.2107304,0.935564 -1.5959629,1.37583 l -0.018344,0.01834 q -0.5686764,0.642054 -0.733776,2.714979 -0.055033,0.75212 -0.055033,2.88007 0,3.15523 0.1467552,4.43934 0.275166,2.49484 1.2290749,3.10021 0.5686764,0.36688 1.5409296,0.36688 0.7154321,0 1.1006641,-0.29351 1.761063,-1.33914 2.403117,-4.36596 0.128411,-0.14676 0.201788,-0.14676 0.07338,0 0.07338,0.20179 0,-0.055 -0.128411,0.89888 -0.09172,0.56867 -0.183444,1.46755 -0.03669,0.6604 0.03669,1.00894 0.256821,1.22907 0.990597,2.03623 -1.687684,-0.25682 -1.889473,-0.25682 z"
         style="font-size:18.3444px;fill:#ffffff;stroke-width:0.264583"
         id="path1647" />
      <path
         d="m 16.830879,112.52989 q -1.559274,0 -3.283647,0.47695 -0.128411,0.0367 -0.201789,-0.0917 -0.05503,-0.11007 0.110067,-0.18344 1.559274,-0.60537 1.83444,-1.83444 0.256821,-1.11901 0.256821,-2.43981 v -9.0071 q 0,-0.366888 -0.165099,-0.898875 -0.1651,-0.550332 -0.421922,-0.752121 -0.440265,-0.348543 -0.697087,-0.513643 -0.476954,-0.275166 -1.174041,-0.476954 1.320796,0.01834 2.641593,0.385232 0.403577,0.110066 0.91722,0.348544 0.440266,0.220132 0.733776,0.275166 0.770465,0.146755 1.907818,-0.146756 -1.247419,0.898876 -1.357486,1.926162 0,1.375835 -0.01834,2.219675 v 8.58518 q 0.01834,0.86218 0.183444,1.19238 0.330199,0.67875 1.742718,1.59597 -2.274706,-0.6604 -3.008482,-0.6604 z"
         style="font-size:18.3444px;fill:#ffffff;stroke-width:0.264583"
         id="path1649" />
      <path
         d="m 24.080644,98.349666 h 0.220133 l 0.29351,-0.03669 q 1.320797,-0.165099 2.127951,-0.165099 1.21073,0 1.852784,0.201788 0.843843,0.256822 1.339142,0.587021 0.513643,0.311855 1.229074,1.082324 0.715432,0.77046 0.715432,1.92616 0,1.04563 -0.403577,1.74272 -0.513643,0.88053 -1.339141,1.41252 1.724374,0.84384 2.384772,2.75166 0.09172,0.58702 0.09172,0.99059 0,1.87113 -1.229075,2.86173 -1.559274,1.24742 -3.412058,1.24742 -0.62371,0 -1.944507,-0.25682 -1.302452,-0.25682 -1.907817,-0.25682 -1.063976,0 -3.778947,0.7888 1.210731,-0.75212 1.669341,-1.74271 0.403576,-0.88053 0.403576,-2.38478 0,-0.69708 -0.05503,-1.99953 -0.05503,-1.37583 -0.05503,-2.01789 -0.01834,-4.27424 -0.07338,-4.51272 -0.12841,-1.706032 -1.595962,-3.467094 1.96285,1.247419 3.467091,1.247419 z m 4.677822,1.614307 q -0.935564,-1.063975 -1.761062,-1.063975 -2.494839,0 -2.494839,4.072462 0,0.7888 0.128411,2.07291 1.247419,-0.73377 2.806694,-0.73377 0.642054,0 1.100664,0.1651 1.008942,-0.6604 1.008942,-2.09127 0,-1.52258 -0.78881,-2.421457 z m -0.09172,5.961927 q -0.91722,-0.75212 -1.926162,-0.75212 -1.100664,0 -1.999539,0.78881 0.03669,0.51365 -0.01835,1.39418 -0.07338,1.02728 -0.07338,1.39417 0,1.55928 0.605365,2.36643 0.770465,0.77046 1.907817,0.77046 0.678743,0 1.375831,-0.25682 1.100664,-0.40357 1.540929,-1.68768 0.128411,-0.38524 0.128411,-0.95391 0,-1.79775 -1.54093,-3.06352 z"
         style="font-size:18.3444px;fill:#ffffff;stroke-width:0.264583"
         id="path1651" />
      <path
         d="m 36.49063,106.03597 v 0.0367 q 0,3.32034 2.586561,5.17312 0.898875,0.64205 1.797751,0.64205 0.862187,0 1.816096,-0.56867 2.072917,-1.24742 2.971792,-4.0908 0.03669,-0.14676 0.1651,-0.11007 0.128411,0.0183 0.110066,0.1651 -0.29351,2.20133 -0.29351,3.32034 0,1.33914 0.697087,2.45815 -1.229075,-0.80716 -1.706029,-0.71544 -0.110066,-0.0183 -0.348544,-0.0183 -0.550332,0 -1.83444,0.29351 -1.284108,0.27517 -1.944506,0.27517 -1.302452,0 -2.348083,-0.44027 -2.109606,-0.88053 -3.265304,-2.82504 -1.119008,-1.85278 -1.119008,-4.20087 0,-4.34762 3.522125,-6.640668 1.192386,-0.770465 2.971793,-0.770465 1.522585,0 3.063515,0.568676 0.29351,0.07338 0.58702,0.07338 0.843843,0 2.274706,-1.614307 -0.898876,2.513183 -0.843842,5.191464 0.01834,1.04563 -0.146756,2.25636 -0.495298,-2.54987 -0.807153,-3.22861 -0.495299,-1.06398 -1.504241,-1.706031 -1.008942,-0.660399 -2.164639,-0.660399 -2.641594,0 -3.742258,3.21027 -0.421921,1.22907 -0.513643,2.80669 l 5.063054,0.0183 v 1.10066 z"
         style="font-size:18.3444px;fill:#ffffff;stroke-width:0.264583"
         id="path1653" />
      <path
         d="m 57.949281,112.60327 q 0.238477,0.36688 0.678743,0.64205 0.256821,0.18344 1.357485,0.75212 -0.110066,-0.0367 -1.83444,-0.4953 -0.623709,-0.1651 -0.91722,-0.3302 -0.715431,-0.38523 -1.027286,-0.64205 -0.550332,-0.44027 -0.825498,-1.02729 -0.201788,-0.78881 -0.697087,-2.20133 -0.1651,-0.38523 -0.62371,-1.00894 -0.45861,-0.64205 -0.825498,-0.95391 -1.155697,-0.95391 -2.45815,-0.97225 v 0.53199 q 0,0.31185 -0.01834,1.79775 -0.01834,1.46755 -0.01834,1.70603 0,1.33914 0.935564,1.81609 0.07338,0.0734 1.412519,0.6604 l -0.238477,-0.0183 q -2.861727,-0.22014 -3.54047,-0.22014 -0.972253,0 -2.714971,0.22014 0.825498,-0.40358 1.247419,-1.08232 0.440266,-0.67875 0.45861,-1.99954 0.09172,-5.35657 0,-8.93373 -0.05503,-2.054568 -0.990597,-2.898411 -0.201789,-0.183444 -0.201789,-0.330199 0,-0.201788 0.1651,-0.201788 0.05503,0 0.403577,0.220133 1.082319,0.660398 1.889473,0.75212 0.440266,0.05503 1.761062,-0.183444 1.265764,-0.238477 2.146295,-0.09172 0.898876,0.146755 1.889474,0.733776 0.990597,0.568676 1.577618,1.284103 0.660398,0.78881 0.660398,2.34809 0,0.95391 -0.275166,1.41252 -1.155697,1.90781 -2.604904,2.20132 h 0.01834 q 2.164639,0.60537 2.604905,4.43935 0.128411,0.71543 0.220133,1.08232 0.183444,0.67874 0.385232,0.9906 z m -3.081859,-11.90552 q -0.238477,-0.40358 -0.550332,-0.917221 -0.678743,-0.935564 -1.889473,-0.935564 -0.531988,0 -1.008943,0.403577 -0.45861,0.385232 -0.623709,0.972258 -0.05503,0.18344 -0.05503,0.56867 0,0.20179 0.03669,1.08232 0.03669,0.88053 0.03669,1.59596 0,0.78881 -0.03669,1.57762 l -0.01834,0.34855 q 0.201788,0.0183 1.21073,0.0183 1.119009,0 1.265764,-0.0183 0.807154,-0.0183 1.724374,-1.30246 0.275166,-0.64205 0.275166,-1.46755 0,-1.04563 -0.366888,-1.92616 z"
         style="font-size:18.3444px;fill:#ffffff;stroke-width:0.264583"
         id="path1655" />
      <path
         d="m 68.464922,107.4118 h -5.96193 l -0.03669,0.42192 q -0.01834,1.30245 -0.03669,3.15524 0,0.78881 0.256821,1.02728 0.256822,0.22014 0.495299,0.44027 0.385232,0.31185 0.843842,0.53199 -0.843842,-0.055 -2.036228,-0.1651 -0.587021,-0.0734 -2.164639,0.0367 -0.678743,0.0734 -1.889474,0.1651 0.880532,-0.69709 1.24742,-1.74272 0.256821,-0.75212 0.330199,-2.77001 0.09172,-2.21967 0.311855,-3.57715 0.385232,-2.29305 1.284108,-5.209814 0.770465,-2.549871 1.540929,-3.320336 l -0.12841,0.733776 q -0.09172,0.605365 1.614307,1.797751 2.549871,1.761063 3.026826,2.201333 1.797751,1.68768 2.604905,2.97179 0.75212,1.22907 1.063975,2.88007 0.366888,1.98119 0.366888,3.06351 0,0.20179 -0.03669,0.62371 -0.03669,0.42192 -0.03669,0.62371 0,1.13736 0.62371,1.74272 -0.770465,-0.18344 -3.04517,-0.23848 -1.559275,-0.0183 -3.008482,0.20179 1.504241,-0.67874 2.164639,-1.52258 0.660399,-0.86219 0.660399,-2.75166 0,-0.56868 -0.05503,-1.3208 z m -0.165099,-1.10066 q -0.275166,-1.44921 -0.825498,-2.58656 -0.935565,-1.96286 -3.191926,-3.52213 -0.403577,-0.311854 -0.935564,-0.678742 -0.697088,3.485432 -0.752121,6.787432 z"
         style="font-size:18.3444px;fill:#ffffff;stroke-width:0.264583"
         id="path1657" />
      <path
         d="m 80.929371,112.73168 q -0.898876,0 -1.174042,0.0367 -1.119008,0.14676 -1.357485,0.1651 -0.733776,0.055 -1.962851,-0.11006 -1.467552,-0.20179 -1.981195,-0.20179 -1.632652,0 -2.861727,0.51364 -0.201788,0.0917 -0.201788,-0.11006 0,-0.0734 0.05503,-0.11007 1.37583,-0.75212 1.522585,-2.97179 0.01834,-0.53199 0.07338,-1.88948 0.01834,-0.31185 0,-7.30107 0,-1.669338 -0.78881,-1.926159 l -1.100664,-0.220133 2.568217,-0.275166 q 1.907817,-0.201789 4.090801,-1.045631 -1.210731,0.935564 -1.595963,1.37583 l -0.01834,0.01834 q -0.568677,0.642054 -0.733776,2.714979 -0.05503,0.75212 -0.05503,2.88007 0,3.15523 0.146756,4.43934 0.275166,2.49484 1.229074,3.10021 0.568677,0.36688 1.54093,0.36688 0.715432,0 1.100664,-0.29351 1.761062,-1.33914 2.403116,-4.36596 0.128411,-0.14676 0.201789,-0.14676 0.07338,0 0.07338,0.20179 0,-0.055 -0.12841,0.89888 -0.09172,0.56867 -0.183444,1.46755 -0.03669,0.6604 0.03669,1.00894 0.256822,1.22907 0.990598,2.03623 -1.687685,-0.25682 -1.889473,-0.25682 z"
         style="font-size:18.3444px;fill:#ffffff;stroke-width:0.264583"
         id="path1659" />
    </g>
  </g>
</svg>
