<?xml version="1.0" encoding="UTF-8" standalone="no"?>
<svg
   xmlns:dc="http://purl.org/dc/elements/1.1/"
   xmlns:cc="http://creativecommons.org/ns#"
   xmlns:rdf="http://www.w3.org/1999/02/22-rdf-syntax-ns#"
   xmlns:svg="http://www.w3.org/2000/svg"
   xmlns="http://www.w3.org/2000/svg"
   xmlns:sodipodi="http://sodipodi.sourceforge.net/DTD/sodipodi-0.dtd"
   xmlns:inkscape="http://www.inkscape.org/namespaces/inkscape"
   width="85mm"
   height="115mm"
   viewBox="0 0 85 115"
   version="1.1"
   id="svg848"
   inkscape:export-filename="/Users/leewayleaf/Desktop/test.png"
   inkscape:export-xdpi="96"
   inkscape:export-ydpi="96"
   inkscape:version="1.0 (4035a4f, 2020-05-01)"
   sodipodi:docname="liberal.svg">
  <defs
     id="defs842">
    <rect
       x="0.4491198"
       y="94.18953"
       width="83.706912"
       height="19.758965"
       id="rect1639" />
  </defs>
  <sodipodi:namedview
     id="base"
     pagecolor="#ffffff"
     bordercolor="#666666"
     borderopacity="1.0"
     inkscape:pageopacity="0.0"
     inkscape:pageshadow="2"
     inkscape:zoom="0.86144548"
     inkscape:cx="214.66983"
     inkscape:cy="577.5798"
     inkscape:document-units="mm"
     inkscape:current-layer="layer1"
     inkscape:document-rotation="0"
     showgrid="false"
     inkscape:window-width="1252"
     inkscape:window-height="777"
     inkscape:window-x="0"
     inkscape:window-y="25"
     inkscape:window-maximized="0" />
  <metadata
     id="metadata845">
    <rdf:RDF>
      <cc:Work
         rdf:about="">
        <dc:format>image/svg+xml</dc:format>
        <dc:type
           rdf:resource="http://purl.org/dc/dcmitype/StillImage" />
        <dc:title />
      </cc:Work>
    </rdf:RDF>
  </metadata>
  <g
     inkscape:label="Layer 1"
     inkscape:groupmode="layer"
     id="layer1">
    <path
       id="path1623"
       style="fill:#3a5077;fill-opacity:1;stroke-width:1"
       d="m 31.453949,0.841749 -8.710065,8.955008 c -8.849648,9.098887 -10.793322,11.060492 -12.571841,12.68915 -1.3782411,1.2621 -2.2228781,3.039301 -2.3512781,4.945952 -0.07894,1.172249 0.01556,1.873692 0.643888,4.774901 1.0299514,4.75561 1.5703281,7.12554 1.6407281,7.19594 0.0331,0.0331 0.295016,-0.14255 0.581875,-0.39067 1.850591,-1.60057 5.154202,-2.092441 7.659481,-1.140499 0.525121,0.19953 1.181997,0.619909 1.468128,0.939479 1.738651,1.94179 4.102629,4.19406 4.401798,4.19406 0.52836,0 1.380781,0.693 1.652612,1.34358 0.182821,0.43768 0.24443,1.54392 0.24443,4.3832 v 3.79822 l 0.396875,-0.0104 c 1.06036,-0.0279 4.218765,-0.47932 4.349604,-0.62167 0.11394,-0.12397 0.739304,-8.3847 0.724506,-9.57099 -0.0021,-0.17961 0.200239,-0.21261 0.835091,-0.13591 0.98892,0.11948 1.510461,0.17459 6.03994,0.6382 1.891271,0.19358 3.620302,0.35192 3.842144,0.35192 0.221824,0 0.430536,0.0994 0.463537,0.22066 0.84986,3.11966 1.329269,4.10454 2.17351,4.46536 1.46504,0.62615 4.806907,1.48776 5.770708,1.48776 0.37543,0 0.808707,0.18247 1.231966,0.51883 1.059558,0.84203 2.028708,1.1316 3.314009,0.98961 0.60968,-0.0674 1.362872,-0.13088 1.673283,-0.14108 0.310399,-0.0102 0.52454,-0.0832 0.475941,-0.16175 -0.04857,-0.0786 0.08591,-0.32254 0.299207,-0.54208 0.317457,-0.32673 0.367485,-0.34022 0.273883,-0.0754 -0.0764,0.21609 -0.04148,0.29909 0.105937,0.24959 0.12133,-0.0407 0.22231,-0.18632 0.225311,-0.32349 0.008,-0.42573 0.246568,-0.66111 0.581358,-0.57361 0.176461,0.0461 0.423984,-0.0405 0.550355,-0.19275 0.154249,-0.18585 0.164928,-0.27699 0.03204,-0.27699 -0.32013,0 -0.229492,-0.49339 0.248047,-1.34876 0.24539,-0.43953 0.530947,-1.19417 0.634587,-1.67741 0.14142,-0.65939 0.253609,-0.85376 0.44907,-0.77877 0.14324,0.055 0.377518,-0.0173 0.520898,-0.16071 0.207878,-0.20785 0.223874,-0.39436 0.07906,-0.91881 -0.14269,-0.51689 -0.125704,-0.7427 0.07906,-1.05523 0.302601,-0.46182 0.334994,-0.65366 0.08423,-0.49868 -0.10859,0.0671 -0.176215,-0.22952 -0.176215,-0.77256 0,-0.48507 0.08745,-0.93612 0.194818,-1.00252 0.136091,-0.0841 0.122907,-0.16663 -0.04392,-0.27234 -0.1392,-0.0881 -0.156321,-0.15251 -0.04134,-0.15451 0.10876,-0.002 0.250426,-0.40245 0.315225,-0.8909 0.09349,-0.70475 0.180123,-0.87758 0.419613,-0.83768 0.19766,0.0329 0.293169,-0.0584 0.276468,-0.26458 -0.02027,-0.250098 0.02474,-0.272768 0.220142,-0.110586 0.280561,0.232826 0.33865,0.591596 0.06873,0.424776 -0.0977,-0.0604 -0.231323,0.0294 -0.296622,0.19947 -0.06524,0.1701 -0.04257,0.33446 0.05013,0.36536 0.09266,0.0309 0.144005,0.35325 0.114205,0.71623 -0.06614,0.80569 0.21237,1.33779 0.483693,0.92449 0.122388,-0.18648 0.174214,-0.19801 0.176215,-0.0382 0.0021,0.17296 0.08769,0.18177 0.360701,0.0357 0.196741,-0.10529 0.305662,-0.27576 0.242364,-0.37827 -0.07632,-0.12352 -0.164034,-0.10711 -0.259932,0.0481 -0.07962,0.12883 -0.19825,0.18054 -0.263552,0.11524 -0.06533,-0.0653 0.0047,-0.24186 0.155546,-0.39274 0.169201,-0.1692 0.316256,-0.20625 0.383958,-0.0966 0.06041,0.0977 0.255635,0.17776 0.433565,0.17777 0.177919,0 0.3762,0.13872 0.440798,0.3085 0.09422,0.24751 0.0737,0.26516 -0.104386,0.0884 -0.48773,-0.48414 -0.662516,-0.17998 -0.227375,0.39584 0.219329,0.29024 0.293286,0.30789 0.420645,0.10181 0.227899,-0.36876 0.749716,0.93114 0.789618,1.9668 0.01765,0.45825 0.08731,0.8883 0.154511,0.9555 0.283869,0.28386 0.163523,-1.25412 -0.158647,-2.0283 -0.344789,-0.82855 -0.154884,-1.96525 0.328144,-1.96525 0.325941,0 0.346165,-0.0816 0.251667,-0.99684 -0.127381,-1.234154 0.289711,-2.190105 1.101741,-2.526464 0.45584,-0.18883 0.60421,-0.17876 0.977201,0.06563 1.8386,1.204698 2.278724,7.665384 0.713134,10.466544 -0.32608,0.58338 -0.397214,0.86224 -0.261482,1.02578 0.133188,0.16045 0.108423,0.41175 -0.08682,0.87901 -0.321868,0.77032 -0.323826,0.78807 -0.102836,0.78807 0.412351,0 1.460024,-1.18664 1.944585,-2.20193 1.719691,-3.60329 1.277813,-9.512944 -0.896586,-11.989452 -1.28116,-1.459161 -3.160821,-1.530366 -4.51962,-0.171567 -0.31972,0.319789 -0.515999,0.319093 -0.639239,-0.0021 -0.09452,-0.246312 0.0024,-1.098196 0.152448,-1.341004 0.04082,-0.06607 0.849624,-0.176898 1.797304,-0.246496 0.947682,-0.06956 1.823011,-0.209257 1.945103,-0.310576 0.239768,-0.19897 0.306795,-2.030341 0.08682,-2.369881 -0.07128,-0.110011 -1.137632,-0.534453 -2.369881,-0.943613 l -2.24069,-0.74414 -0.740524,0.414962 c -0.610439,0.34187 -1.098698,0.93668 -1.434536,1.747181 -0.02559,0.06175 -0.264962,0.165592 -0.531752,0.230992 -0.44917,0.110051 -0.485241,0.07923 -0.485241,-0.419095 0,-0.29601 -0.118155,-0.822182 -0.263032,-1.168921 -0.144902,-0.346739 -0.217432,-0.704818 -0.161232,-0.795817 0.142711,-0.23092 -0.265192,-0.680344 -0.611333,-0.673343 -0.254828,0.005 -0.252294,0.03179 0.0217,0.239776 0.483147,0.366771 0.367784,0.437489 -0.396875,0.243398 -0.541592,-0.137469 -1.699599,-0.07044 -4.98316,0.288354 -8.342739,0.911611 -7.928697,0.818475 -8.273397,1.862936 -0.11154,0.33796 -0.385281,0.757897 -0.608232,0.933276 -0.222948,0.175371 -1.128953,1.764813 -2.013312,3.532084 -1.254951,2.507826 -1.586603,3.322066 -1.510504,3.708816 0.09685,0.49213 0.09262,0.49452 -0.649573,0.39222 -0.80813,-0.11137 -7.516291,-0.79943 -7.79332,-0.79943 -0.09265,0 -0.07301,-0.0954 0.04341,-0.21187 0.331941,-0.33194 0.248476,-0.977295 -0.163814,-1.266074 -0.3615,-0.253201 -0.340249,-0.273238 0.57309,-0.532268 0.52184,-0.148 1.331172,-0.362458 1.798341,-0.476456 0.550069,-0.134242 0.946608,-0.355862 1.125511,-0.628904 0.253672,-0.387149 0.250635,-0.449691 -0.03876,-0.769462 -0.250341,-0.276658 -0.554453,-0.350699 -1.478462,-0.360701 -2.032702,-0.02167 -2.067902,-0.238646 -0.114721,-0.709517 2.031778,-0.48982 2.496113,-0.775092 2.331122,-1.43247 -0.136038,-0.54202 -0.516057,-0.662593 -2.100646,-0.665594 -0.654849,-0.0013 -1.191141,-0.06627 -1.191141,-0.144177 0,-0.07792 0.773911,-0.325926 1.719791,-0.551386 0.945889,-0.22547 1.81918,-0.4889 1.940449,-0.585494 0.30443,-0.242382 0.277718,-1.13108 -0.03772,-1.252122 -0.14211,-0.05454 -0.861295,-0.153958 -1.597835,-0.220657 -0.736539,-0.06675 -1.275125,-0.178782 -1.196826,-0.249081 0.07828,-0.07028 0.856998,-0.305287 1.730129,-0.522449 1.7277,-0.429699 2.028298,-0.588955 2.028298,-1.072285 0,-0.603779 -0.493183,-0.872815 -1.599901,-0.872815 -1.527741,0 -1.41006,-0.403458 0.233061,-0.798918 1.71459,-0.41266 1.896007,-0.522938 1.896007,-1.151869 0,-0.667303 -0.477449,-0.871265 -2.039668,-0.871262 -0.624271,-3e-6 -1.135332,-0.06652 -1.135332,-0.147796 0,-0.08127 0.902396,-0.364239 2.005047,-0.628902 1.102637,-0.264665 2.094486,-0.571587 2.204516,-0.681611 0.266329,-0.266383 0.254926,-0.924507 -0.02016,-1.145151 -0.267423,-0.214508 -5.37145,-0.748274 -7.15512,-0.748274 -0.963832,0 -1.465677,0.09449 -2.024165,0.37982 -0.408451,0.208677 -1.417622,0.527725 -2.242241,0.709518 -5.314262,1.171569 -7.068695,1.439002 -4.844666,0.737941 0.684559,-0.215792 1.06517,-0.444513 1.18804,-0.714169 0.337222,-0.740134 -0.05579,-0.919368 -2.13682,-0.974619 l -1.87947,-0.05012 1.058333,-0.39791 c 0.582089,-0.218728 1.177396,-0.464515 1.322917,-0.546735 0.391858,-0.221429 0.439134,-0.937151 0.07906,-1.200443 -0.284572,-0.208087 -0.276291,-0.23699 0.11524,-0.386541 0.23264,-0.08886 2.883683,-1.154551 5.891114,-2.36833 3.00744,-1.213779 6.116265,-2.380665 6.908104,-2.593123 l 1.439707,-0.38654 1.735293,0.361735 c 0.954411,0.198964 3.243242,0.677252 5.086512,1.062985 2.18059,0.456324 3.99824,0.955876 5.203301,1.429885 1.018648,0.400682 2.288995,0.883325 2.822567,1.072288 0.53358,0.188962 1.208092,0.453882 1.499132,0.58911 0.291039,0.135229 1.481664,0.603695 2.645833,1.040763 1.164169,0.43707 2.551843,0.966602 3.083533,1.176673 l 0.966349,0.381889 -0.349332,-0.411345 c -0.192141,-0.226385 -0.388684,-0.451718 -0.437182,-0.500227 -0.0485,-0.04851 -0.524261,-0.603959 -1.057301,-1.234551 -1.243,-1.470514 -1.840813,-2.03844 -3.837491,-3.645773 -0.897371,-0.722392 -1.629841,-1.36839 -1.628841,-1.435571 0.0078,-0.351229 0.420084,-0.508426 2.043285,-0.77928 3.455651,-0.576622 7.125615,-2.021367 9.128125,-3.593063 1.828061,-1.434788 3.132619,-3.45933 3.814238,-5.919018 0.19648,-0.70903 0.357084,-1.306928 0.357084,-1.329118 0,-0.0222 -8.482316,-0.04536 -18.849495,-0.05116 z M 11.032455,24.660452 c 0.145521,0 0.264583,0.114448 0.264583,0.254246 0,0.29469 -0.251902,0.493789 -0.416512,0.329178 -0.21081,-0.210809 -0.11375,-0.583424 0.151929,-0.583424 z m 0.270269,1.453657 c 0.209114,0.006 0.404527,0.250706 0.2682,0.471289 -0.06518,0.105461 -0.188285,0.19172 -0.273886,0.19172 -0.272399,0 -0.39991,-0.37628 -0.196371,-0.57981 0.06083,-0.06083 0.13235,-0.0852 0.202057,-0.0832 z m 49.088992,6.743774 c 0.05105,-0.0067 0.04379,0.07411 -0.0047,0.259416 -0.104769,0.400659 -0.162004,0.439047 -0.305924,0.206188 -0.05316,-0.08602 0.01511,-0.249217 0.151929,-0.362768 0.07623,-0.06326 0.128019,-0.09879 0.158647,-0.102836 z m 0.249597,0.692981 c 0.01376,0.0019 0.02838,0.0076 0.04444,0.01757 0.09699,0.05996 0.176734,0.307296 0.176734,0.549836 0,0.249061 0.07662,0.393364 0.176215,0.331764 0.09699,-0.05993 0.176218,-0.02931 0.176218,0.0677 0,0.298048 -0.252595,0.348888 -0.484725,0.09767 -0.245821,-0.266044 -0.29537,-1.093018 -0.08888,-1.064535 z m -0.45217,0.95808 c 0.09671,0.03034 0.127474,0.299096 0.04548,0.625803 -0.06374,0.253979 -0.19549,0.461987 -0.292489,0.461987 -0.160769,0 -0.04529,-0.857496 0.14056,-1.043348 0.02164,-0.02164 0.04227,-0.03561 0.06098,-0.04237 0.01638,-0.0059 0.03166,-0.0064 0.04547,-0.0021 z m -5.092195,1.491382 c 0.665348,0.0053 1.346592,0.304795 1.983341,0.941547 1.302631,1.302627 1.926233,3.411417 1.793174,6.063197 -0.132422,2.63891 -1.114036,4.7113 -2.587956,5.46323 -0.38549,0.19666 -0.922033,0.35488 -1.192694,0.35088 C 52.648,48.78488 50.73965,44.8292 51.32457,41.00829 c 0.476652,-3.113703 2.072044,-5.02155 3.772378,-5.007964 z m 7.017142,2.776054 c -0.01315,10e-4 0.0098,0.0779 0.05788,0.231 0.05587,0.17771 0.110757,0.45517 0.121957,0.61702 0.01847,0.26496 0.02855,0.2643 0.100253,-0.009 0.04378,-0.16673 -0.01162,-0.44472 -0.122473,-0.61754 -0.09553,-0.14886 -0.144457,-0.22287 -0.157615,-0.22169 z m 0.858864,0.62891 c 0.06611,0.017 0.122349,0.23219 0.130225,0.524 0.0095,0.33349 -0.05419,0.60616 -0.141594,0.60616 -0.196879,0 -0.212085,-1.00447 -0.01704,-1.125 0.0097,-0.006 0.01897,-0.008 0.02842,-0.005 z m -47.118055,0.97823 c -1.31105,-0.0338 -2.275705,0.33766 -3.171899,1.20148 -0.965409,0.93053 -1.113536,1.5994 -0.508495,2.29701 0.322289,0.37161 0.408091,0.38712 1.13688,0.20361 1.34692,-0.33915 1.391706,-0.31561 2.038636,1.08004 1.156811,2.49565 1.806977,3.92998 1.958536,4.3217 0.08446,0.21828 0.194548,0.39687 0.244948,0.39687 0.200168,0 0.78019,-1.55007 0.8909,-2.38125 0.120631,-0.90569 0.317362,-1.26095 1.651063,-2.97863 l 0.772563,-0.99477 -1.213364,-1.24126 c -1.45755,-1.49035 -1.860838,-1.72442 -3.215822,-1.86604 -0.202256,-0.0211 -0.396653,-0.0339 -0.583946,-0.0388 z m 49.132918,1.10226 c -0.02109,-10e-4 -0.04448,0.006 -0.06873,0.0207 -0.09699,0.06 -0.176218,0.18362 -0.176218,0.27492 0,0.0913 0.07922,0.16588 0.176218,0.16588 0.09698,0 0.176733,-0.12367 0.176733,-0.27492 0,-0.11346 -0.04476,-0.18376 -0.108005,-0.18655 z m -3.808037,0.54932 0.01498,0.4408 c 0.0082,0.24254 -0.06206,0.55986 -0.156062,0.70538 -0.152109,0.23518 -0.169262,0.23518 -0.156062,0 0.0082,-0.14552 0.07836,-0.46284 0.156062,-0.70538 z m 5.258594,1.56735 c -0.06325,0.003 -0.108003,0.0731 -0.108003,0.18655 0,0.15124 0.07922,0.27492 0.176218,0.27492 0.09698,0 0.176733,-0.0746 0.176733,-0.16588 0,-0.0913 -0.07973,-0.21492 -0.176733,-0.27492 -0.02426,-0.015 -0.04713,-0.0216 -0.06821,-0.0207 z m -5.46013,0.16381 c 0.06553,0.002 0.132874,0.0736 0.183968,0.22686 0.03162,0.0949 -0.05175,0.32246 -0.185518,0.50539 -0.224872,0.30745 -0.241528,0.29005 -0.222726,-0.22737 0.01169,-0.32134 0.115059,-0.50893 0.224276,-0.50488 z m 5.77019,0.47387 c -0.05172,0 0.07091,0.26754 0.272851,0.59428 0.4206,0.68055 0.495372,1.05356 0.108522,0.54209 -0.248891,-0.32903 -0.259586,-0.32451 -0.264584,0.12351 -0.0031,0.25641 0.113377,0.51202 0.258898,0.56792 0.145521,0.0559 0.264583,0.0248 0.264583,-0.0692 0,-0.34135 0.273474,-0.15253 0.673344,0.46457 l 0.40876,0.63045 -0.37982,-0.1204 c -0.341162,-0.10829 -0.359511,-0.0828 -0.181901,0.24908 0.2668,0.49852 0.696103,0.48009 0.638204,-0.0274 -0.04383,-0.38417 -1.608818,-2.95486 -1.798857,-2.95486 z m -6.256465,2.35852 c -0.07044,-0.012 -0.161533,0.12868 -0.341582,0.46405 -0.182301,0.33955 -0.334997,0.76088 -0.338997,0.93638 -0.0041,0.17548 0.07198,0.2698 0.168981,0.2098 0.09699,-0.06 0.176218,-0.25887 0.176218,-0.44235 0,-0.18348 0.131461,-0.40732 0.29197,-0.49712 0.197551,-0.11057 0.249865,-0.26974 0.162264,-0.49352 -0.04217,-0.10772 -0.0766,-0.17006 -0.118854,-0.17724 z m 0.01757,1.16943 c -0.09699,0 -0.176216,0.12366 -0.176216,0.27492 0,0.15128 0.07922,0.22588 0.176216,0.16588 0.09699,-0.06 0.176217,-0.18361 0.176217,-0.27491 0,-0.0913 -0.07922,-0.16589 -0.176217,-0.16589 z m 7.501868,0 c -0.157361,0 -0.219014,0.10345 -0.157615,0.26355 0.05563,0.14498 0.172101,0.21958 0.2589,0.16588 0.24905,-0.15391 0.184005,-0.42943 -0.101285,-0.42943 z m -2.210202,1.23404 c -0.09699,0 -0.176215,0.12367 -0.176215,0.27492 0,0.15128 0.07922,0.22639 0.176215,0.16639 0.09699,-0.06 0.176218,-0.18362 0.176218,-0.27492 0,-0.0913 -0.07922,-0.16639 -0.176218,-0.16639 z m 2.248959,5.3e-4 c -0.137441,0 -0.250114,0.12153 -0.250114,0.26975 0,0.30495 0.323348,0.25986 0.429948,-0.0599 0.0384,-0.11516 -0.04239,-0.20981 -0.179834,-0.20981 z m -4.674132,0.0124 c -1.065152,0.007 -1.745732,0.0713 -1.552879,0.14676 0.327702,0.12824 0.32535,0.13894 -0.04444,0.23564 -0.263361,0.0689 -0.387056,0.0219 -0.387056,-0.14676 0,-0.32627 -0.164997,-0.31323 -0.559657,0.0439 -0.497531,0.45021 -0.385893,0.61598 0.338997,0.50333 l 0.661458,-0.10284 -0.705382,0.26717 c -0.388051,0.14705 -0.824965,0.23137 -0.970483,0.18707 -0.38059,-0.11578 -1.66596,0.36354 -1.72806,0.6444 -0.03054,0.13812 -0.258739,0.30714 -0.559657,0.45941 h 0.568957 c 0.09835,-0.24114 1.55535,-1.06155 1.675868,-0.94103 0.04167,0.0417 -0.155863,0.1953 -0.438735,0.34158 -0.282868,0.14628 -0.617026,0.39017 -0.743106,0.54209 -0.01778,0.0214 -0.03612,0.0384 -0.05426,0.0574 h 5.245158 c -0.03688,-0.0192 -0.02339,-0.0455 0.05788,-0.078 0.127331,-0.051 0.279369,-0.0452 0.337963,0.0134 v 5.3e-4 c 0.02582,0.0258 0.01598,0.0476 -0.01447,0.0641 h 1.052648 c -0.0087,-0.087 0.0035,-0.31045 0.03462,-0.57671 0.05747,-0.49223 0.01857,-0.59905 -0.189134,-0.51935 -0.14654,0.0562 -0.307288,-0.0201 -0.366388,-0.17415 -0.06914,-0.18013 -0.330292,-0.27492 -0.758092,-0.27492 -0.87858,0 -0.664855,-0.16896 0.259416,-0.20516 0.48115,-0.0189 0.734838,-0.11027 0.734838,-0.26458 0,-0.18277 -0.425317,-0.23324 -1.896007,-0.22324 z m -0.827858,0.34003 c 0.13979,0 0.254249,0.0792 0.254249,0.17622 0,0.097 -0.163536,0.17673 -0.363286,0.17673 -0.199771,0 -0.313732,-0.0797 -0.25373,-0.17673 0.05996,-0.097 0.222967,-0.17622 0.362767,-0.17622 z m 5.677689,0.43615 c -0.05051,-0.004 -0.154162,0.0378 -0.307991,0.13384 -0.19403,0.12117 -0.352949,0.2808 -0.352949,0.3545 0,0.2057 0.175667,0.15971 0.453718,-0.11834 0.227595,-0.22759 0.291402,-0.36296 0.207222,-0.37 z m -1.43247,0.45682 c -0.07228,0.014 -0.06697,0.0938 0.04858,0.23306 0.162843,0.19623 0.06331,0.29933 -0.511082,0.52916 -0.293034,0.11725 -0.511741,0.19909 -0.63872,0.24288 h 0.701249 c 0.02278,-0.10038 0.07118,-0.13776 0.14211,-0.13952 0.129791,-0.003 0.394002,-0.12504 0.587563,-0.2713 0.301884,-0.22813 0.314595,-0.29003 0.08837,-0.43305 -0.195665,-0.12369 -0.345784,-0.17525 -0.418063,-0.16123 z m -1.540992,0.26458 c 0.04145,0.002 0.07725,0.0279 0.108522,0.0785 0.068,0.10928 0.09498,0.21568 0.06098,0.23668 -0.03397,0.021 -0.20075,0.14445 -0.37052,0.2744 -0.36595,0.28011 -0.397065,0.0601 -0.0553,-0.39068 0.102783,-0.13553 0.18723,-0.20151 0.256315,-0.19895 z m -47.718016,3.25198 c -1.159989,0 -1.651061,0.0627 -1.651061,0.21032 0,0.11559 0.3893,1.52466 0.865579,3.13107 0.47629,1.60641 0.95789,3.27795 1.070219,3.71451 0.112331,0.43656 0.282238,1.09365 0.377237,1.46037 0.159041,0.61389 0.509013,0.76875 0.509013,0.22531 0,-0.12838 0.476253,-1.96526 1.058334,-4.08192 0.582091,-2.11666 1.058333,-3.98047 1.058333,-4.14186 0,-0.36566 -0.965763,-0.5178 -3.287654,-0.5178 z m 8.428942,1.38441 c -0.211487,0.0395 -1.183531,2.64018 -1.53634,4.16305 -0.175509,0.75759 -0.32422,2.41627 -0.379823,4.24264 -0.07818,2.56556 -0.03641,3.30447 0.287838,5.11545 0.501142,2.79888 1.525386,5.88371 2.025719,6.10143 0.203753,0.0887 1.719556,0.44507 3.368786,0.79169 1.649238,0.34661 3.475035,0.73617 4.057115,0.86557 5.187961,1.15329 6.978949,1.54763 7.584551,1.67019 0.388059,0.0785 2.19279,0.46925 4.010091,0.86868 1.81731,0.39943 3.609629,0.72657 3.983218,0.72657 0.373602,0 0.738171,0.0595 0.80977,0.13229 0.07163,0.0728 0.382067,0.22562 0.690399,0.33951 0.30834,0.11389 0.596468,0.21315 0.64027,0.22014 0.236149,0.0398 1.947204,-1.15649 2.102713,-1.47019 0.186441,-0.37609 0.904856,-2.68637 0.904856,-2.9099 0,-0.0679 -0.337516,-0.14074 -0.749826,-0.16174 -0.412311,-0.021 -1.384483,-0.15287 -2.16059,-0.29301 -1.324571,-0.23918 -3.695737,-0.56864 -11.553817,-1.6061 -1.794751,-0.23696 -3.818827,-0.50545 -4.497917,-0.59635 -4.387472,-0.58743 -7.500988,-3.37332 -8.284765,-7.41298 -0.141172,-0.7276 -0.465302,-3.38684 -0.720371,-5.9092 -0.255079,-2.52236 -0.502854,-4.70483 -0.550354,-4.85035 -0.0069,-0.0212 -0.01741,-0.03 -0.03152,-0.0274 z m 52.89393,0.3731 c -0.49861,-0.0148 -0.96203,0.0446 -1.35858,0.19482 -1.01079,0.38297 -1.24258,0.81392 -2.542992,4.7315 -0.695909,2.09647 -1.282496,3.83321 -1.303795,3.85971 -0.0213,0.0265 -0.948066,-0.30706 -2.059308,-0.74156 -2.019498,-0.78964 -4.981604,-1.6675 -6.893634,-2.04277 -0.497945,-0.0977 -0.79272,-0.19672 -0.92656,-0.31264 h -0.366384 v -0.99374 h -1.448491 l -0.02791,0.0739 -2.694409,-0.0264 c -0.716309,-0.007 -1.448032,-0.0247 -2.066541,-0.0475 h -4.427638 v 1.39165 l 0.198956,-0.13229 2.064988,0.293 c 2.924871,0.41535 6.319174,1.01692 6.552573,1.16117 0.10894,0.0673 0.224632,0.41573 0.256831,0.77412 0.04114,0.4584 0.411324,1.16027 1.248503,2.36729 1.043681,1.50468 1.177573,1.63956 1.090374,1.09813 -0.336701,-2.09032 -0.496726,-3.55875 -0.398425,-3.65714 0.171609,-0.1716 4.637138,1.36686 7.42642,2.5585 1.635789,0.69884 2.689709,1.26398 3.12229,1.67431 1.04022,0.98673 2.772132,1.83196 4.373892,2.13424 0.73303,0.13833 2.30852,-0.0548 2.70991,-0.33228 0.27423,-0.18955 0.80173,-1.49949 1.93374,-4.80281 0.85609,-2.49815 1.59938,-4.80239 1.65158,-5.12062 0.29193,-1.77826 -3.42294,-4.0224 -6.11539,-4.10259 z M 17.170066,78.28301 c -0.13194,-1e-5 -0.534874,0.12393 -0.895554,0.27543 -0.36069,0.1515 -3.354869,1.26741 -6.6533387,2.47943 C 1.8696008,83.88616 0.84900183,84.27676 0.57366083,84.50226 0.3942708,84.64895 0.3561288,85.71487 0.3969298,89.43943 l 0.05219,4.7501 0.41651203,0.33693 c 0.40348997,0.32646 0.94662597,0.33693 17.50642617,0.33693 9.399598,0 17.090429,-0.0334 17.090429,-0.0744 0,-0.041 -1.48277,-1.41019 -3.29489,-3.0427 -3.17632,-2.86148 -6.522085,-5.91003 -12.112956,-11.03757 -1.45447,-1.33394 -2.752648,-2.42569 -2.884577,-2.42569 z m 38.627616,6.76961 c -0.12618,0.12618 1.706181,3.46128 1.901692,3.46128 0.09035,0 0.16433,0.16011 0.16433,0.35606 0,0.19595 0.191604,0.65993 0.425815,1.03094 0.23421,0.37102 0.909532,1.63915 1.500683,2.81843 l 1.074869,2.14457 h 4.006475 c 3.946509,0 4.001352,-0.005 3.65869,-0.33692 -0.295548,-0.28601 -4.957289,-3.8064 -7.226948,-5.45755 -0.388049,-0.28232 -1.765819,-1.32099 -3.061827,-2.30839 -1.296022,-0.9874 -2.395879,-1.75632 -2.443779,-1.70842 z m -1.067637,7.16545 c -0.37952,0 -0.667583,0.15258 -0.973584,0.51625 -0.445648,0.52962 -0.761217,1.63881 -0.559139,1.96577 0.203711,0.32962 0.66952,0.0859 0.805119,-0.42116 0.073,-0.27299 0.226994,-0.61001 0.342615,-0.74931 0.29969,-0.36111 1.29872,-0.31336 2.111499,0.10129 l 0.696082,0.35501 -0.184484,-0.40514 c -0.25256,-0.5543 -1.580597,-1.36271 -2.238108,-1.36271 z"
       sodipodi:nodetypes="ccsssscscscsccssssscssssssssscssssssssssscccssssscssscssssssscsssssssssssssssscssssscccscssccssssssssssssssscsscsscscssssssssscsssssscccssssccsssssscccssscssssccssssssssssssssssscssssssssssssscsssccsssscssssssssssscccsssssssscccsccsssssssscssssscsscccssssscsssssssssssscssssssssssccsssscccsccssscccccccsssssscssssssssssssscccsssscssssssssssssssscssssssscscssssscsssssssssscccccccccccscsccssssscssssccccsssssssssccsssssssssscccs" />
    <text
       xml:space="preserve"
       id="text1637"
       style="line-height:1.25;font-family:ARKHAM;font-size:6.34999999999999964px;-inkscape-font-specification:ARKHAM;white-space:pre;shape-inside:url(#rect1639);" />
    <g
       aria-label="LIBERAL"
       id="text1645"
       style="font-size:18.3444px;line-height:1.25;font-family:ARKHAM;-inkscape-font-specification:ARKHAM;fill:#ffffff;stroke-width:0.264583">
      <path
         d="m 11.958721,112.73168 q -0.898875,0 -1.174041,0.0367 -1.1190089,0.14676 -1.3574861,0.1651 -0.733776,0.055 -1.9628508,-0.11006 -1.4675521,-0.20179 -1.9811953,-0.20179 -1.6326516,0 -2.8617265,0.51364 -0.2017884,0.0917 -0.2017884,-0.11006 0,-0.0734 0.055033,-0.11007 1.3758301,-0.75212 1.5225853,-2.97179 0.018344,-0.53199 0.073378,-1.88948 0.018344,-0.31185 0,-7.30107 0,-1.669338 -0.7888092,-1.926159 L 2.1811557,98.606488 4.7493718,98.331322 q 1.9078176,-0.201789 4.0908013,-1.045631 -1.2107304,0.935564 -1.5959629,1.37583 l -0.018344,0.01834 q -0.5686764,0.642054 -0.733776,2.714975 -0.055033,0.75212 -0.055033,2.88007 0,3.15523 0.1467552,4.43934 0.275166,2.49484 1.2290749,3.10021 0.5686764,0.36688 1.5409296,0.36688 0.7154317,0 1.1006637,-0.29351 1.761063,-1.33914 2.403117,-4.36596 0.128411,-0.14676 0.201788,-0.14676 0.07338,0 0.07338,0.20179 0,-0.055 -0.128411,0.89888 -0.09172,0.56867 -0.183444,1.46755 -0.03669,0.6604 0.03669,1.00894 0.256821,1.22907 0.990597,2.03623 -1.687684,-0.25682 -1.889473,-0.25682 z"
         style="font-size:18.3444px;fill:#ffffff;stroke-width:0.264583"
         id="path1647" />
      <path
         d="m 16.830879,112.52989 q -1.559274,0 -3.283647,0.47695 -0.128411,0.0367 -0.201789,-0.0917 -0.05503,-0.11007 0.110067,-0.18344 1.559274,-0.60537 1.83444,-1.83444 0.256821,-1.11901 0.256821,-2.43981 v -9.0071 q 0,-0.366888 -0.165099,-0.898875 -0.1651,-0.550332 -0.421922,-0.752121 -0.440265,-0.348543 -0.697087,-0.513643 -0.476954,-0.275166 -1.174041,-0.476954 1.320796,0.01834 2.641593,0.385232 0.403577,0.110066 0.91722,0.348544 0.440266,0.220132 0.733776,0.275166 0.770465,0.146755 1.907818,-0.146756 -1.247419,0.898876 -1.357486,1.926162 0,1.375835 -0.01834,2.219675 v 8.58518 q 0.01834,0.86218 0.183444,1.19238 0.330199,0.67875 1.742718,1.59597 -2.274706,-0.6604 -3.008482,-0.6604 z"
         style="font-size:18.3444px;fill:#ffffff;stroke-width:0.264583"
         id="path1649" />
      <path
         d="m 24.080644,98.349666 h 0.220133 l 0.29351,-0.03669 q 1.320797,-0.165099 2.127951,-0.165099 1.21073,0 1.852784,0.201788 0.843843,0.256822 1.339142,0.587021 0.513643,0.311855 1.229074,1.082323 0.715432,0.77046 0.715432,1.92616 0,1.04563 -0.403577,1.74272 -0.513643,0.88053 -1.339141,1.41252 1.724374,0.84384 2.384772,2.75166 0.09172,0.58702 0.09172,0.99059 0,1.87113 -1.229075,2.86173 -1.559274,1.24742 -3.412058,1.24742 -0.62371,0 -1.944507,-0.25682 -1.302452,-0.25682 -1.907817,-0.25682 -1.063976,0 -3.778947,0.7888 1.210731,-0.75212 1.669341,-1.74271 0.403576,-0.88053 0.403576,-2.38478 0,-0.69708 -0.05503,-1.99953 -0.05503,-1.37583 -0.05503,-2.01789 -0.01834,-4.27424 -0.07338,-4.51272 -0.12841,-1.706031 -1.595962,-3.467093 1.96285,1.247419 3.467091,1.247419 z m 4.677822,1.614307 q -0.935564,-1.063975 -1.761062,-1.063975 -2.494839,0 -2.494839,4.072462 0,0.7888 0.128411,2.07291 1.247419,-0.73377 2.806694,-0.73377 0.642054,0 1.100664,0.1651 1.008942,-0.6604 1.008942,-2.09127 0,-1.52258 -0.78881,-2.421457 z m -0.09172,5.961927 q -0.91722,-0.75212 -1.926162,-0.75212 -1.100664,0 -1.999539,0.78881 0.03669,0.51365 -0.01835,1.39418 -0.07338,1.02728 -0.07338,1.39417 0,1.55928 0.605365,2.36643 0.770465,0.77046 1.907817,0.77046 0.678743,0 1.375831,-0.25682 1.100664,-0.40357 1.540929,-1.68768 0.128411,-0.38524 0.128411,-0.95391 0,-1.79775 -1.54093,-3.06352 z"
         style="font-size:18.3444px;fill:#ffffff;stroke-width:0.264583"
         id="path1651" />
      <path
         d="m 36.49063,106.03597 v 0.0367 q 0,3.32034 2.586561,5.17312 0.898875,0.64205 1.797751,0.64205 0.862187,0 1.816096,-0.56867 2.072917,-1.24742 2.971792,-4.0908 0.03669,-0.14676 0.1651,-0.11007 0.128411,0.0183 0.110066,0.1651 -0.29351,2.20133 -0.29351,3.32034 0,1.33914 0.697087,2.45815 -1.229075,-0.80716 -1.706029,-0.71544 -0.110066,-0.0183 -0.348544,-0.0183 -0.550332,0 -1.83444,0.29351 -1.284108,0.27517 -1.944506,0.27517 -1.302452,0 -2.348083,-0.44027 -2.109606,-0.88053 -3.265304,-2.82504 -1.119008,-1.85278 -1.119008,-4.20087 0,-4.34762 3.522125,-6.640668 1.192386,-0.770465 2.971793,-0.770465 1.522585,0 3.063515,0.568676 0.29351,0.07338 0.58702,0.07338 0.843843,0 2.274706,-1.614307 -0.898876,2.513183 -0.843842,5.191466 0.01834,1.04563 -0.146756,2.25636 -0.495298,-2.54987 -0.807153,-3.22861 -0.495299,-1.06398 -1.504241,-1.706033 -1.008942,-0.660399 -2.164639,-0.660399 -2.641594,0 -3.742258,3.210272 -0.421921,1.22907 -0.513643,2.80669 l 5.063054,0.0183 v 1.10066 z"
         style="font-size:18.3444px;fill:#ffffff;stroke-width:0.264583"
         id="path1653" />
      <path
         d="m 57.949281,112.60327 q 0.238477,0.36688 0.678743,0.64205 0.256821,0.18344 1.357485,0.75212 -0.110066,-0.0367 -1.83444,-0.4953 -0.623709,-0.1651 -0.91722,-0.3302 -0.715431,-0.38523 -1.027286,-0.64205 -0.550332,-0.44027 -0.825498,-1.02729 -0.201788,-0.78881 -0.697087,-2.20133 -0.1651,-0.38523 -0.62371,-1.00894 -0.45861,-0.64205 -0.825498,-0.95391 -1.155697,-0.95391 -2.45815,-0.97225 v 0.53199 q 0,0.31185 -0.01834,1.79775 -0.01834,1.46755 -0.01834,1.70603 0,1.33914 0.935564,1.81609 0.07338,0.0734 1.412519,0.6604 l -0.238477,-0.0183 q -2.861727,-0.22014 -3.54047,-0.22014 -0.972253,0 -2.714971,0.22014 0.825498,-0.40358 1.247419,-1.08232 0.440266,-0.67875 0.45861,-1.99954 0.09172,-5.35657 0,-8.93373 -0.05503,-2.054568 -0.990597,-2.898411 -0.201789,-0.183444 -0.201789,-0.330199 0,-0.201788 0.1651,-0.201788 0.05503,0 0.403577,0.220133 1.082319,0.660398 1.889473,0.75212 0.440266,0.05503 1.761062,-0.183444 1.265764,-0.238477 2.146295,-0.09172 0.898876,0.146755 1.889474,0.733776 0.990597,0.568676 1.577618,1.284105 0.660398,0.78881 0.660398,2.34809 0,0.95391 -0.275166,1.41252 -1.155697,1.90781 -2.604904,2.20132 h 0.01834 q 2.164639,0.60537 2.604905,4.43935 0.128411,0.71543 0.220133,1.08232 0.183444,0.67874 0.385232,0.9906 z m -3.081859,-11.90552 q -0.238477,-0.40358 -0.550332,-0.917221 -0.678743,-0.935564 -1.889473,-0.935564 -0.531988,0 -1.008943,0.403577 -0.45861,0.385232 -0.623709,0.972258 -0.05503,0.18344 -0.05503,0.56867 0,0.20179 0.03669,1.08232 0.03669,0.88053 0.03669,1.59596 0,0.78881 -0.03669,1.57762 l -0.01834,0.34855 q 0.201788,0.0183 1.21073,0.0183 1.119009,0 1.265764,-0.0183 0.807154,-0.0183 1.724374,-1.30246 0.275166,-0.64205 0.275166,-1.46755 0,-1.04563 -0.366888,-1.92616 z"
         style="font-size:18.3444px;fill:#ffffff;stroke-width:0.264583"
         id="path1655" />
      <path
         d="m 68.464922,107.4118 h -5.96193 l -0.03669,0.42192 q -0.01834,1.30245 -0.03669,3.15524 0,0.78881 0.256821,1.02728 0.256822,0.22014 0.495299,0.44027 0.385232,0.31185 0.843842,0.53199 -0.843842,-0.055 -2.036228,-0.1651 -0.587021,-0.0734 -2.164639,0.0367 -0.678743,0.0734 -1.889474,0.1651 0.880532,-0.69709 1.24742,-1.74272 0.256821,-0.75212 0.330199,-2.77001 0.09172,-2.21967 0.311855,-3.57715 0.385232,-2.29305 1.284108,-5.209814 0.770465,-2.549871 1.540929,-3.320336 l -0.12841,0.733776 q -0.09172,0.605365 1.614307,1.797751 2.549871,1.761063 3.026826,2.201333 1.797751,1.68768 2.604905,2.97179 0.75212,1.22907 1.063975,2.88007 0.366888,1.98119 0.366888,3.06351 0,0.20179 -0.03669,0.62371 -0.03669,0.42192 -0.03669,0.62371 0,1.13736 0.62371,1.74272 -0.770465,-0.18344 -3.04517,-0.23848 -1.559275,-0.0183 -3.008482,0.20179 1.504241,-0.67874 2.164639,-1.52258 0.660399,-0.86219 0.660399,-2.75166 0,-0.56868 -0.05503,-1.3208 z m -0.165099,-1.10066 q -0.275166,-1.44921 -0.825498,-2.58656 -0.935565,-1.96286 -3.191926,-3.52213 -0.403577,-0.311854 -0.935564,-0.678742 -0.697088,3.485432 -0.752121,6.787432 z"
         style="font-size:18.3444px;fill:#ffffff;stroke-width:0.264583"
         id="path1657" />
      <path
         d="m 80.929371,112.73168 q -0.898876,0 -1.174042,0.0367 -1.119008,0.14676 -1.357485,0.1651 -0.733776,0.055 -1.962851,-0.11006 -1.467552,-0.20179 -1.981195,-0.20179 -1.632652,0 -2.861727,0.51364 -0.201788,0.0917 -0.201788,-0.11006 0,-0.0734 0.05503,-0.11007 1.37583,-0.75212 1.522585,-2.97179 0.01834,-0.53199 0.07338,-1.88948 0.01834,-0.31185 0,-7.30107 0,-1.669338 -0.78881,-1.926159 l -1.100664,-0.220133 2.568217,-0.275166 q 1.907817,-0.201789 4.090801,-1.045631 -1.210731,0.935564 -1.595963,1.37583 l -0.01834,0.01834 q -0.568677,0.642054 -0.733776,2.714975 -0.05503,0.75212 -0.05503,2.88007 0,3.15523 0.146756,4.43934 0.275166,2.49484 1.229074,3.10021 0.568677,0.36688 1.54093,0.36688 0.715432,0 1.100664,-0.29351 1.761062,-1.33914 2.403116,-4.36596 0.128411,-0.14676 0.201789,-0.14676 0.07338,0 0.07338,0.20179 0,-0.055 -0.12841,0.89888 -0.09172,0.56867 -0.183444,1.46755 -0.03669,0.6604 0.03669,1.00894 0.256822,1.22907 0.990598,2.03623 -1.687685,-0.25682 -1.889473,-0.25682 z"
         style="font-size:18.3444px;fill:#ffffff;stroke-width:0.264583"
         id="path1659" />
    </g>
  </g>
</svg>
