<svg xmlns="http://www.w3.org/2000/svg" width="85mm" height="115mm" viewBox="0 0 85 115"><defs><path id="a" d="M.449 94.19h83.707v19.759H.449z"/></defs><path style="fill:#3a5077;fill-opacity:1;stroke-width:1" d="M37.142.842 26.876 9.797c-10.43 9.099-12.722 11.06-14.818 12.689-1.625 1.262-2.62 3.04-2.772 4.946-.093 1.172.019 1.874.76 4.775 1.213 4.755 1.85 7.125 1.933 7.196.04.033.348-.143.686-.39 2.181-1.601 6.075-2.093 9.028-1.141.62.2 1.393.62 1.73.94 2.05 1.94 4.836 4.193 5.189 4.193.623 0 1.627.693 1.948 1.344.215.437.288 1.544.288 4.383v3.798l.468-.01c1.25-.028 4.972-.48 5.126-.622.135-.124.872-8.385.854-9.57-.002-.18.236-.213.985-.137 1.165.12 1.78.175 7.119.638 2.229.194 4.267.352 4.528.352.262 0 .508.1.547.221l.008.024 6.87.421-.029.353.118-.035 3.744 5.647c.035.022.07.038.104.062 1.25.842 2.392 1.132 3.907.99.718-.068 1.606-.131 1.972-.142.366-.01.618-.083.56-.161-.056-.079.102-.323.354-.542.374-.327.433-.34.322-.076-.09.216-.049.3.125.25.143-.04.262-.187.266-.324.01-.425.29-.66.685-.573.208.046.5-.04.649-.193.181-.186.194-.277.037-.277-.377 0-.27-.493.293-1.349.289-.44.626-1.194.748-1.677.166-.66.299-.854.53-.779.168.055.444-.017.613-.16.245-.209.264-.395.093-.92-.168-.516-.148-.742.093-1.055.357-.462.395-.653.1-.498-.128.067-.208-.23-.208-.773 0-.485.103-.936.23-1.002.16-.085.145-.167-.052-.273-.164-.088-.184-.152-.049-.154.128-.002.295-.403.372-.891.11-.705.212-.878.494-.838.233.033.346-.058.326-.265-.024-.25.03-.272.26-.11.33.233.399.592.08.425-.115-.06-.272.03-.349.2-.077.17-.05.334.06.365.108.03.169.353.134.716-.078.805.25 1.338.57.924.144-.186.205-.198.208-.038.002.173.103.182.425.036.232-.106.36-.276.285-.379-.09-.123-.193-.107-.306.048-.094.13-.234.181-.31.116-.078-.066.005-.242.183-.393.2-.17.372-.206.452-.097.071.098.302.178.511.178.21 0 .444.139.52.309.11.247.087.265-.123.088-.575-.484-.781-.18-.268.396.258.29.345.308.496.102.268-.37.883.93.93 1.966.021.459.103.889.182.956.335.284.193-1.254-.187-2.028-.406-.829-.182-1.966.387-1.966.384 0 .408-.081.297-.996-.15-1.235.341-2.19 1.298-2.527.538-.189.713-.179 1.152.066 2.167 1.204 2.686 7.665.84 10.466-.384.584-.467.862-.307 1.026.157.16.127.412-.103.879-.38.77-.381.788-.121.788.486 0 1.72-1.187 2.292-2.202 2.027-3.603 1.506-9.513-1.057-11.99-1.51-1.458-3.725-1.53-5.327-.17-.377.319-.608.318-.753-.003-.112-.246.002-1.098.18-1.341.047-.066 1-.177 2.118-.246 1.117-.07 2.148-.21 2.292-.311.283-.199.362-2.03.103-2.37-.084-.11-1.341-.534-2.794-.944l-2.64-.744-.873.415c-.72.342-1.295.937-1.691 1.747-.03.062-.313.166-.627.231-.53.11-.572.08-.572-.419 0-.296-.14-.822-.31-1.169-.17-.346-.256-.704-.19-.795.168-.231-.313-.68-.72-.674-.301.005-.298.032.025.24.57.367.433.438-.468.243-.638-.137-2.003-.07-5.873.289-9.834.911-9.346.818-9.752 1.863-.131.338-.454.758-.717.933a1.721 1.721 0 0 0-.256.284l8.037.063-5.209 8.74-.256-.397-13.438-1.413.17-.188c-1.608-.138-3.023-.255-3.153-.255-.109 0-.086-.096.051-.212.392-.332.293-.977-.193-1.266-.426-.253-.4-.273.676-.533a82.585 82.585 0 0 1 2.12-.476c.648-.134 1.115-.356 1.326-.629.3-.387.295-.45-.046-.77-.295-.276-.653-.35-1.742-.36-2.396-.022-2.438-.239-.135-.71 2.394-.49 2.942-.775 2.747-1.432-.16-.542-.608-.663-2.476-.666-.772 0-1.404-.066-1.404-.144 0-.078.912-.326 2.027-.551 1.115-.226 2.145-.49 2.287-.586.36-.242.328-1.13-.044-1.252-.167-.054-1.015-.154-1.883-.22-.868-.067-1.503-.18-1.411-.25.092-.07 1.01-.305 2.04-.522 2.036-.43 2.39-.589 2.39-1.072 0-.604-.581-.873-1.886-.873-1.8 0-1.662-.404.275-.799 2.02-.413 2.235-.523 2.235-1.152 0-.667-.563-.871-2.404-.871-.736 0-1.339-.067-1.339-.148 0-.081 1.064-.364 2.364-.629 1.3-.264 2.468-.571 2.598-.681.314-.267.3-.925-.024-1.146-.315-.214-6.33-.748-8.433-.748-1.136 0-1.728.095-2.386.38-.481.209-1.671.528-2.643.71-6.264 1.171-8.332 1.438-5.71.737.807-.215 1.255-.444 1.4-.714.398-.74-.066-.92-2.518-.974l-2.216-.05 1.248-.398c.686-.22 1.387-.465 1.559-.547.462-.222.518-.937.093-1.2-.335-.209-.326-.238.136-.387.274-.089 3.399-1.155 6.944-2.368 3.544-1.214 7.209-2.381 8.142-2.594l1.697-.386 2.045.362 5.996 1.063c2.57.456 4.712.955 6.133 1.43 1.2.4 2.698.883 3.327 1.072.628.189 1.424.454 1.767.589.343.135 1.746.604 3.118 1.04 1.372.438 3.008.967 3.635 1.177l1.139.382-.412-.411a16.563 16.563 0 0 0-.515-.5 77.741 77.741 0 0 1-1.247-1.235c-1.465-1.47-2.17-2.038-4.523-3.646-1.058-.722-1.92-1.368-1.92-1.435.01-.351.495-.509 2.409-.78 4.073-.576 8.398-2.02 10.759-3.593a11.176 11.176 0 0 0 4.496-5.919c.231-.709.42-1.307.42-1.329 0-.022-9.997-.045-22.217-.05zM13.072 24.66c.172 0 .312.114.312.254 0 .294-.297.494-.491.329-.249-.21-.134-.583.179-.583zm.319 1.453c.246.006.476.25.316.471-.077.106-.222.192-.323.192-.321 0-.472-.376-.232-.58a.35.35 0 0 1 .239-.083zm57.86 6.744c.06-.007.051.074-.006.26-.124.4-.191.438-.36.206-.063-.086.017-.25.178-.363a.549.549 0 0 1 .187-.103zm.294.693a.15.15 0 0 1 .052.017c.114.06.208.308.208.55 0 .25.09.394.208.332.114-.06.208-.03.208.068 0 .298-.298.349-.572.097-.29-.266-.348-1.093-.104-1.064zm-.533.958c.114.03.15.3.053.626-.075.254-.23.462-.344.462-.19 0-.054-.858.165-1.044a.21.21 0 0 1 .072-.042.097.097 0 0 1 .054-.002zM65.01 36c.784.006 1.587.305 2.337.942 1.536 1.303 2.27 3.411 2.114 6.063-.156 2.639-1.313 4.711-3.05 5.463-.455.197-1.087.355-1.406.351-2.882-.034-5.131-3.99-4.442-7.81.562-3.114 2.442-5.022 4.447-5.009zm8.27 2.776c-.015.002.012.078.069.231.066.178.13.456.144.617.021.265.033.264.118-.009.051-.167-.014-.445-.145-.617-.112-.149-.17-.222-.185-.222zm1.013.63c.078.016.144.232.153.523.012.334-.064.607-.167.607-.232 0-.25-1.005-.02-1.125a.045.045 0 0 1 .034-.006zm-55.537.978c-1.545-.034-2.682.337-3.739 1.201-1.137.93-1.312 1.6-.599 2.297.38.372.481.387 1.34.204 1.588-.34 1.64-.316 2.403 1.08 1.363 2.495 2.13 3.93 2.308 4.321.1.219.23.397.29.397.235 0 .919-1.55 1.05-2.381.141-.906.373-1.26 1.945-2.979l.91-.994-1.43-1.242c-1.717-1.49-2.193-1.724-3.79-1.866a10.439 10.439 0 0 0-.688-.038zm57.912 1.102a.164.164 0 0 0-.081.02c-.115.06-.208.184-.208.275 0 .092.093.166.208.166.114 0 .208-.123.208-.275 0-.113-.053-.183-.127-.186zm-4.489.55.018.44c.01.243-.073.56-.184.705-.18.236-.2.236-.184 0 .01-.145.092-.462.184-.705zm6.198 1.567c-.074.003-.127.073-.127.186 0 .151.094.275.208.275.114 0 .208-.075.208-.166 0-.091-.094-.215-.208-.275a.16.16 0 0 0-.08-.02zm-6.435.163c.077.002.156.074.217.227.037.095-.061.323-.22.506-.264.307-.284.29-.262-.228.014-.321.136-.509.265-.505zm6.8.474c-.06 0 .085.268.323.594.495.681.583 1.054.127.543-.293-.33-.306-.325-.311.123-.004.256.133.512.305.568.171.056.312.025.312-.07 0-.34.322-.152.793.465l.482.63-.448-.12c-.402-.108-.423-.082-.214.25.314.498.82.48.752-.028-.051-.384-1.896-2.955-2.12-2.955zM71.37 46.6c-.083-.012-.19.128-.403.464-.215.34-.395.76-.4.936-.004.176.085.27.2.21.114-.06.207-.259.207-.442 0-.184.155-.408.344-.498.233-.11.295-.27.192-.493-.05-.108-.09-.17-.14-.177zm.02 1.17c-.114 0-.207.123-.207.274 0 .151.093.226.207.166.115-.06.208-.184.208-.275 0-.091-.093-.166-.208-.166zm8.843 0c-.186 0-.259.103-.186.263.065.145.203.22.305.166.293-.154.217-.43-.12-.43zm-2.606 1.233c-.114 0-.207.124-.207.275 0 .151.093.226.207.166.115-.06.208-.183.208-.274 0-.092-.093-.167-.208-.167zm2.651 0c-.162 0-.295.122-.295.27 0 .305.382.26.507-.06.045-.115-.05-.21-.212-.21zm-5.509.013c-1.256.007-2.058.071-1.83.147.386.128.383.139-.053.236-.31.068-.456.021-.456-.147 0-.327-.194-.313-.66.044-.586.45-.454.616.4.503l.78-.103-.832.267c-.457.147-.972.232-1.144.187-.448-.115-1.963.364-2.037.645-.036.138-.304.307-.66.46h.671c.116-.242 1.834-1.062 1.976-.942.049.042-.184.196-.517.342-.334.146-.728.39-.876.542-.021.021-.043.038-.064.057h6.182c-.043-.019-.027-.045.068-.078.15-.05.33-.045.399.014.03.026.019.048-.017.064h1.24c-.01-.087.004-.31.041-.576.068-.493.022-.6-.223-.52-.172.056-.362-.02-.432-.174-.081-.18-.389-.275-.893-.275-1.036 0-.784-.169.306-.205.567-.019.866-.11.866-.265 0-.182-.502-.233-2.235-.223zm-.976.34c.165 0 .3.08.3.176 0 .097-.193.177-.428.177-.236 0-.37-.08-.3-.177.071-.097.263-.176.428-.176zm6.692.436c-.06-.004-.181.038-.363.134-.228.121-.416.28-.416.355 0 .205.207.16.535-.119.268-.227.344-.363.244-.37zm-1.688.457c-.085.014-.079.094.057.233.192.196.075.3-.602.53-.346.117-.603.198-.753.242h.826c.027-.1.084-.138.168-.14.153-.002.464-.124.693-.27.355-.229.37-.29.104-.434-.231-.123-.408-.175-.493-.16zm-1.816.265c.048.002.09.028.128.078.08.11.111.216.071.237-.04.02-.236.144-.436.274-.432.28-.468.06-.066-.39.122-.136.221-.202.303-.2zm-56.244 3.252c-1.368 0-1.946.062-1.946.21 0 .116.458 1.525 1.02 3.131.561 1.606 1.129 3.278 1.261 3.715l.445 1.46c.187.614.6.769.6.225 0-.128.561-1.965 1.247-4.082.686-2.116 1.248-3.98 1.248-4.142 0-.365-1.139-.517-3.875-.517zm9.935 1.384c-.25.04-1.395 2.64-1.811 4.163-.207.758-.382 2.416-.448 4.243-.092 2.565-.043 3.304.34 5.115.59 2.8 1.797 5.884 2.387 6.102.24.088 2.027.445 3.97.791 1.945.347 4.097.737 4.783.866 6.115 1.153 8.226 1.548 8.94 1.67.457.079 2.584.47 4.726.869 2.142.4 4.255.726 4.695.726.44 0 .87.06.954.133.085.072.45.225.814.34.364.113.703.212.755.22.278.04 2.295-1.157 2.478-1.47.22-.377 1.067-2.687 1.067-2.91 0-.069-.398-.142-.884-.163-.486-.02-1.632-.152-2.547-.293-1.56-.239-4.356-.568-13.618-1.606a4959.07 4959.07 0 0 1-5.301-.596c-5.172-.587-8.842-3.373-9.765-7.413-.167-.728-.549-3.387-.85-5.91-.3-2.522-.592-4.704-.648-4.85-.008-.02-.02-.03-.037-.027zm31.562 5.069v1.391l.234-.132 2.434.293c3.448.415 7.448 1.017 7.724 1.161.128.067.264.416.302.774.049.459.485 1.16 1.472 2.367.136.167.214.257.325.391v-6.245h-1.628l-.033.073-3.176-.026c-.844-.007-1.706-.025-2.435-.047zM20.306 78.283c-.155 0-.63.124-1.055.276-.425.151-3.955 1.267-7.842 2.479-9.137 2.848-10.34 3.239-10.665 3.464-.211.147-.256 1.213-.208 4.938l.062 4.75.49.337c.476.326 1.116.336 20.635.336 11.079 0 20.144-.033 20.144-.074 0-.041-1.748-1.41-3.884-3.043-3.743-2.861-7.687-5.91-14.277-11.037-1.714-1.334-3.244-2.426-3.4-2.426Zm45.53 6.77c-.15.126 2.01 3.461 2.241 3.461.107 0 .194.16.194.356 0 .196.226.66.502 1.031.276.371 1.072 1.64 1.768 2.818l1.267 2.145h4.723c4.651 0 4.716-.005 4.312-.337-.348-.286-5.843-3.806-8.518-5.458a335.44 335.44 0 0 1-3.609-2.308c-1.528-.987-2.824-1.756-2.88-1.708zm-1.259 7.165c-.447 0-.787.153-1.147.516-.526.53-.898 1.64-.66 1.966.24.33.79.086.95-.421.086-.273.267-.61.403-.75.354-.36 1.531-.313 2.49.102l.82.355-.218-.405c-.298-.554-1.863-1.363-2.638-1.363z"/><g aria-label="LIBERAL" style="font-size:18.3444px;line-height:1.25;font-family:ARKHAM;-inkscape-font-specification:ARKHAM;fill:#fff;stroke-width:.264583"><path d="M11.959 112.732q-.9 0-1.174.036-1.12.147-1.358.165-.734.055-1.963-.11-1.467-.201-1.98-.201-1.634 0-2.863.513-.201.092-.201-.11 0-.073.055-.11 1.375-.752 1.522-2.972.019-.532.074-1.89.018-.311 0-7.3 0-1.67-.79-1.926l-1.1-.22 2.568-.276q1.908-.201 4.091-1.045-1.21.935-1.596 1.376l-.018.018q-.569.642-.734 2.715-.055.752-.055 2.88 0 3.155.147 4.44.275 2.494 1.229 3.1.569.366 1.54.366.716 0 1.101-.293 1.762-1.34 2.404-4.366.128-.147.201-.147.074 0 .074.202 0-.055-.129.899-.091.568-.183 1.467-.037.66.037 1.01.256 1.228.99 2.035-1.687-.256-1.89-.256z" style="font-size:18.3444px;fill:#fff;stroke-width:.264583" transform="translate(0 -.158)"/><path d="M16.83 112.53q-1.558 0-3.283.477-.128.037-.202-.092-.055-.11.11-.183 1.56-.606 1.835-1.835.257-1.119.257-2.44V99.45q0-.367-.165-.899-.165-.55-.422-.752-.44-.348-.697-.513-.477-.275-1.174-.477 1.32.018 2.641.385.404.11.917.349.44.22.734.275.77.146 1.908-.147-1.247.899-1.357 1.926 0 1.376-.019 2.22v8.585q.019.862.184 1.192.33.68 1.742 1.596-2.274-.66-3.008-.66zM24.08 98.35h.22l.294-.037q1.321-.165 2.128-.165 1.211 0 1.853.202.844.256 1.34.587.513.312 1.228 1.082.716.77.716 1.926 0 1.046-.404 1.743-.514.88-1.339 1.412 1.724.844 2.385 2.752.091.587.091.99 0 1.872-1.229 2.862-1.559 1.248-3.412 1.248-.623 0-1.944-.257-1.303-.257-1.908-.257-1.064 0-3.779.789 1.21-.752 1.67-1.743.403-.88.403-2.385 0-.697-.055-2-.055-1.375-.055-2.017-.018-4.274-.073-4.513-.129-1.706-1.596-3.467 1.962 1.248 3.467 1.248zm4.678 1.614q-.935-1.064-1.76-1.064-2.495 0-2.495 4.072 0 .79.128 2.073 1.247-.733 2.807-.733.642 0 1.1.165 1.01-.66 1.01-2.092 0-1.522-.79-2.421zm-.091 5.962q-.917-.752-1.926-.752-1.101 0-2 .789.037.513-.018 1.394-.074 1.027-.074 1.394 0 1.56.606 2.366.77.77 1.907.77.68 0 1.376-.256 1.101-.404 1.541-1.688.129-.385.129-.954 0-1.797-1.541-3.063zM36.49 106.036v.037q0 3.32 2.587 5.173.9.642 1.798.642.862 0 1.816-.569 2.073-1.247 2.972-4.09.037-.147.165-.11.128.018.11.164-.294 2.202-.294 3.32 0 1.34.698 2.459-1.23-.807-1.706-.716-.11-.018-.349-.018-.55 0-1.834.294-1.285.275-1.945.275-1.302 0-2.348-.44-2.11-.881-3.265-2.825-1.12-1.853-1.12-4.201 0-4.348 3.523-6.641 1.192-.77 2.972-.77 1.522 0 3.063.568.294.074.587.074.844 0 2.275-1.615-.9 2.513-.844 5.192.018 1.045-.147 2.256-.495-2.55-.807-3.229-.495-1.064-1.504-1.706-1.01-.66-2.165-.66-2.641 0-3.742 3.21-.422 1.23-.514 2.807l5.063.018v1.101zM57.95 112.603q.238.367.678.642.257.184 1.358.752-.11-.036-1.835-.495-.624-.165-.917-.33-.716-.385-1.027-.642-.55-.44-.826-1.027-.202-.79-.697-2.202-.165-.385-.624-1.009-.458-.642-.825-.954-1.156-.953-2.458-.972v.532q0 .312-.019 1.798-.018 1.467-.018 1.706 0 1.34.936 1.816.073.073 1.412.66l-.238-.018q-2.862-.22-3.54-.22-.973 0-2.716.22.826-.403 1.248-1.082.44-.679.458-2 .092-5.356 0-8.933-.055-2.055-.99-2.899-.202-.183-.202-.33 0-.202.165-.202.055 0 .403.22 1.083.66 1.89.752.44.055 1.761-.183 1.266-.239 2.146-.092.9.147 1.89.734.99.569 1.577 1.284.66.789.66 2.348 0 .954-.274 1.413-1.156 1.908-2.605 2.201h.018q2.165.605 2.605 4.44.128.715.22 1.082.183.678.385.99zm-3.083-11.905q-.238-.404-.55-.917-.679-.936-1.89-.936-.531 0-1.008.404-.459.385-.624.972-.055.183-.055.568 0 .202.037 1.083.036.88.036 1.596 0 .789-.036 1.577l-.019.349q.202.018 1.211.018 1.119 0 1.266-.018.807-.018 1.724-1.303.275-.642.275-1.467 0-1.046-.367-1.926z" style="font-size:18.3444px;fill:#fff;stroke-width:.264583" transform="translate(0 -.158)"/><path d="M68.465 107.412h-5.962l-.037.422q-.018 1.302-.036 3.155 0 .789.256 1.027.257.22.496.44.385.312.844.533-.844-.056-2.037-.166-.587-.073-2.164.037-.679.074-1.89.165.88-.697 1.248-1.743.256-.752.33-2.77.092-2.22.312-3.577.385-2.293 1.284-5.21.77-2.55 1.54-3.32l-.128.734q-.091.605 1.615 1.798 2.55 1.76 3.026 2.201 1.798 1.688 2.605 2.972.752 1.229 1.064 2.88.367 1.981.367 3.063 0 .202-.036.624-.037.422-.037.624 0 1.137.624 1.743-.77-.184-3.046-.239-1.559-.018-3.008.202 1.504-.679 2.165-1.523.66-.862.66-2.751 0-.57-.055-1.321zm-.165-1.1q-.275-1.45-.826-2.587-.935-1.963-3.192-3.523-.403-.311-.935-.678-.697 3.485-.752 6.787z" style="font-size:18.3444px;fill:#fff;stroke-width:.264583" transform="translate(0 -.158)"/><path d="M80.93 112.732q-.9 0-1.175.036-1.119.147-1.357.165-.734.055-1.963-.11-1.468-.201-1.981-.201-1.633 0-2.862.513-.202.092-.202-.11 0-.073.055-.11 1.376-.752 1.523-2.972.018-.532.073-1.89.019-.311 0-7.3 0-1.67-.789-1.926l-1.1-.22 2.568-.276q1.908-.201 4.09-1.045-1.21.935-1.595 1.376l-.018.018q-.57.642-.734 2.715-.055.752-.055 2.88 0 3.155.146 4.44.276 2.494 1.23 3.1.568.366 1.54.366.716 0 1.101-.293 1.761-1.34 2.403-4.366.129-.147.202-.147.073 0 .073.202 0-.055-.128.899-.092.568-.183 1.467-.037.66.036 1.01.257 1.228.99 2.036-1.687-.257-1.889-.257z" style="font-size:18.3444px;fill:#fff;stroke-width:.264583" transform="translate(0 -.158)"/></g></svg>