<?xml version="1.0" encoding="UTF-8" standalone="no"?>
<svg
   xmlns:dc="http://purl.org/dc/elements/1.1/"
   xmlns:cc="http://creativecommons.org/ns#"
   xmlns:rdf="http://www.w3.org/1999/02/22-rdf-syntax-ns#"
   xmlns:svg="http://www.w3.org/2000/svg"
   xmlns="http://www.w3.org/2000/svg"
   xmlns:sodipodi="http://sodipodi.sourceforge.net/DTD/sodipodi-0.dtd"
   xmlns:inkscape="http://www.inkscape.org/namespaces/inkscape"
   sodipodi:docname="liberal.svg"
   inkscape:version="1.0 (4035a4f, 2020-05-01)"
   id="svg8"
   version="1.1"
   viewBox="0 0 60 75"
   height="75mm"
   width="60mm">
  <defs
     id="defs2" />
  <sodipodi:namedview
     inkscape:window-maximized="0"
     inkscape:window-y="25"
     inkscape:window-x="0"
     inkscape:window-height="781"
     inkscape:window-width="1252"
     showgrid="false"
     inkscape:document-rotation="0"
     inkscape:current-layer="layer1"
     inkscape:document-units="mm"
     inkscape:cy="300.51362"
     inkscape:cx="305.04947"
     inkscape:zoom="0.90271608"
     inkscape:pageshadow="2"
     inkscape:pageopacity="0.0"
     borderopacity="1.0"
     bordercolor="#666666"
     pagecolor="#ffffff"
     id="base" />
  <metadata
     id="metadata5">
    <rdf:RDF>
      <cc:Work
         rdf:about="">
        <dc:format>image/svg+xml</dc:format>
        <dc:type
           rdf:resource="http://purl.org/dc/dcmitype/StillImage" />
        <dc:title></dc:title>
      </cc:Work>
    </rdf:RDF>
  </metadata>
  <g
     id="layer1"
     inkscape:groupmode="layer"
     inkscape:label="Layer 1">
    <path
       d="m 22.743072,1.0084285 c -0.709089,0.6540288 -2.354083,2.2919108 -4.234884,4.2250651 -2.46689,2.5355602 -5.819819,5.9579114 -7.450708,7.6052204 -1.6308915,1.647319 -3.0814442,3.220014 -3.2235757,3.494877 -0.657688,1.271816 -0.6416958,2.08249 0.1095542,5.583121 0.9356381,4.359798 0.7839218,3.997198 1.4608926,3.499528 0.3087688,-0.226989 0.8243459,-0.51658 1.1456669,-0.64337 0.783799,-0.30926 2.796663,-0.28866 3.561023,0.03669 0.549639,0.233961 3.1722,2.716225 3.321761,3.143993 0.03233,0.09247 0.243908,0.168465 0.469738,0.168465 0.24194,0 0.598041,0.222817 0.867131,0.542603 0.445352,0.529283 0.456303,0.605761 0.456303,3.10162 l 5.29e-4,2.559534 1.367358,-0.122991 c 0.751858,-0.0675 1.433237,-0.184431 1.514637,-0.259932 0.08136,-0.0755 0.24106,-1.489723 0.3545,-3.142443 0.113429,-1.652731 0.254892,-3.053173 0.314193,-3.112471 0.05934,-0.05936 0.812799,-0.02739 1.674316,0.07131 0.861521,0.09873 3.114125,0.340736 5.005896,0.537435 4.915979,0.511127 4.510159,0.395372 4.75113,1.352373 0.443241,1.760259 1.423504,3.004446 2.773993,3.520196 0.651121,0.248682 0.876667,0.258947 1.55236,0.06976 0.90255,-0.2527 1.87529,-1.114163 2.383833,-2.110983 0.190261,-0.37293 0.511164,-1.539015 0.713136,-2.591573 0.201978,-1.05256 0.442333,-2.051559 0.534334,-2.220019 0.09202,-0.168457 0.167431,-0.431758 0.167431,-0.584978 0,-0.15321 0.08484,-0.437059 0.188619,-0.630969 0.241591,-0.451419 0.621147,-0.177633 0.784447,0.565857 0.06264,0.285181 0.176832,0.479513 0.253733,0.432015 0.07692,-0.04753 0.355021,0.112807 0.618051,0.356567 0.464129,0.430159 0.481158,0.432509 0.572058,0.08475 0.05153,-0.197069 0.163896,-0.358118 0.249595,-0.358118 0.08572,0 0.155548,-0.306642 0.155546,-0.681612 0,-0.83965 0.57744,-1.655365 1.116729,-1.577165 1.293929,0.18755 1.937298,3.944887 1.081588,6.317443 -0.303181,0.840509 -0.433774,2.115245 -0.216525,2.115116 0.07139,-5e-5 0.3237,-0.297656 0.56069,-0.661459 1.541901,-2.36697 1.239022,-6.948429 -0.564306,-8.531778 -0.534742,-0.469551 -0.722398,-0.534135 -1.318266,-0.454236 -0.38205,0.05125 -0.865097,0.252849 -1.073838,0.447518 -0.375118,0.349859 -0.384257,0.349999 -0.795816,0.01447 -0.669981,-0.5462 -1.745544,-0.454412 -2.562635,0.219108 -0.638749,0.52651 -0.689002,0.539733 -0.863513,0.227893 -0.21858,-0.39057 -1.20328,-1.315682 -1.400431,-1.315682 -0.07539,0 -0.137399,-0.05949 -0.137459,-0.132291 -5.9e-5,-0.0728 0.379915,-0.106092 0.843875,-0.0739 0.724789,0.05028 0.910979,-0.0092 1.322917,-0.421163 0.511728,-0.511731 0.57968,-0.85038 0.31161,-1.555461 -0.322469,-0.848147 -0.607976,-0.875879 -4.739246,-0.461471 -2.10023,0.21068 -3.957807,0.457286 -4.127912,0.548287 -0.170112,0.09104 -0.362032,0.375386 -0.426332,0.631486 -0.08999,0.35854 -0.025,0.539862 0.282152,0.788583 0.337529,0.27332 0.728115,0.323312 2.539897,0.324011 l 2.141471,0.001 -0.641821,0.395841 c -1.157988,0.714811 -2.078005,2.156902 -2.362647,3.703133 -0.06697,0.363799 -0.172609,0.661137 -0.234609,0.660425 -0.09617,-0.0011 -2.297059,-0.204418 -8.79688,-0.811837 -1.21103,-0.113171 -1.270657,-0.13922 -1.176156,-0.515731 0.05478,-0.21817 0.01392,-0.449895 -0.09095,-0.514697 -0.40269,-0.24887 -0.148056,-0.422374 1.053165,-0.716752 1.09283,-0.267811 1.237724,-0.350718 1.190625,-0.680579 -0.0465,-0.325959 -0.187334,-0.382497 -1.067635,-0.428397 -0.557829,-0.02909 -1.014408,-0.119837 -1.014408,-0.201538 0,-0.08172 0.556656,-0.284496 1.236617,-0.451135 0.679958,-0.166629 1.281902,-0.377073 1.337903,-0.467672 0.231169,-0.374042 -0.339741,-0.678512 -1.272791,-0.678512 -0.5217,0 -0.948779,-0.0762 -0.948779,-0.169498 0,-0.157101 0.281787,-0.254162 1.94045,-0.668693 0.439898,-0.10994 0.617017,-0.252712 0.617017,-0.496094 0,-0.292569 -0.147047,-0.34921 -1.025778,-0.394808 -1.34266,-0.06969 -1.241244,-0.377464 0.244947,-0.743624 0.910799,-0.224401 1.13378,-0.346998 1.13378,-0.623218 0,-0.27573 -0.154269,-0.361316 -0.779797,-0.432015 -1.130612,-0.127788 -1.083032,-0.445359 0.110588,-0.735829 0.80559,-0.19604 1.033403,-0.327596 1.075903,-0.620117 0.04818,-0.331401 -0.0605,-0.38434 -1.014408,-0.495061 -0.587502,-0.06819 -1.068152,-0.180931 -1.068152,-0.25063 0,-0.06975 0.590177,-0.266077 1.311548,-0.436149 2.196757,-0.51789 2.165406,-1.033328 -0.07648,-1.247469 -2.943981,-0.28117 -3.607176,-0.283048 -4.233334,-0.01292 -0.554461,0.239199 -5.19085,1.328601 -5.653918,1.328601 -0.428361,0 0.05547,-0.319606 0.798401,-0.527616 0.582531,-0.163099 0.798401,-0.312756 0.798401,-0.553455 0,-0.290762 -0.146022,-0.329695 -1.23455,-0.329695 -1.377902,0 -1.59794,-0.230051 -0.5271,-0.550871 0.892821,-0.267481 1.183251,-0.583203 0.876432,-0.952913 -0.12269,-0.14786 -0.192095,-0.290376 -0.153995,-0.316777 0.28593,-0.198577 7.588584,-3.0629727 8.732283,-3.4251132 0.302162,-0.095671 2.882194,-0.189357 5.732984,-0.2082562 3.05449,-0.020259 5.206942,-0.1025054 5.241541,-0.2005044 0.03234,-0.09145 0.240491,-0.1663981 0.462503,-0.1663983 0.738949,0 3.700031,-0.8332047 4.907711,-1.3807943 2.28743,-1.0371704 4.117487,-3.3983364 4.463279,-5.6244611 h -0.858861 c -0.09004,0.085643 -0.229807,0.090202 -0.559139,0 z M 9.4317397,16.301034 c 0.094869,-0.016 0.1813843,0.04926 0.1813843,0.208773 0,0.113191 -0.1066654,0.241237 -0.237195,0.284737 -0.1483915,0.04946 -0.2148334,-0.03105 -0.1767332,-0.214974 0.034234,-0.165288 0.1376723,-0.262532 0.2325439,-0.278536 z m 0.1813843,1.034562 c 0.09216,4e-6 0.1956763,0.08536 0.2304767,0.189653 0.034769,0.10432 -0.068787,0.189653 -0.2304767,0.189653 -0.1616789,0 -0.2657943,-0.08536 -0.2309937,-0.189653 0.034769,-0.10432 0.1387941,-0.189653 0.2309937,-0.189653 z m 34.116263,2.319755 c -1.215959,0 -1.717061,1.442615 -0.78083,2.247925 0.468289,0.40281 0.574799,0.418619 2.012281,0.303858 0.834699,-0.06664 1.582512,-0.181163 1.661914,-0.254765 0.0792,-0.07363 0.11875,-0.435376 0.08785,-0.803568 -0.05527,-0.659179 -0.07483,-0.675747 -1.281059,-1.081588 -0.673741,-0.226679 -1.438754,-0.41186 -1.700155,-0.411861 z m -5.76037,3.907256 c 0.166055,-0.002 0.32495,0.08227 0.636135,0.25063 2.272551,1.22954 2.591884,6.005633 0.518316,7.750433 -1.058191,0.890407 -2.333154,0.418499 -3.104203,-1.148768 -0.41239,-0.838272 -0.476975,-1.187392 -0.476975,-2.569869 0,-1.431301 0.05579,-1.708535 0.529167,-2.629814 0.394311,-0.767399 0.704688,-1.120792 1.217496,-1.385962 0.340937,-0.176283 0.514009,-0.264631 0.680064,-0.26665 z m 5.338691,9.145177 c -1.03704,0 -2.505816,0.530923 -2.672705,0.965832 -0.0723,0.188412 -0.349345,0.268653 -0.922425,0.266652 -0.99841,-0.0027 -3.939862,0.863222 -3.784782,1.114142 0.06033,0.0977 0.02596,0.125828 -0.07648,0.06253 -0.10242,-0.0633 -0.689943,0.04096 -1.305864,0.232029 -1.356399,0.420799 -2.907905,1.618359 -2.839103,2.191081 0.03533,0.294206 0.0096,0.317074 -0.123505,0.110585 -0.28661,-0.444532 -1.105726,1.604225 -1.190625,2.978113 -0.10268,1.66198 -0.07527,1.683031 1.904275,1.425755 1.510255,-0.196294 1.760233,-0.286763 2.938322,-1.063503 l 1.287262,-0.849043 2.834452,0.461986 c 2.591048,0.422363 2.84803,0.497139 2.989479,0.8692 0.172331,0.45326 0.692465,0.55767 0.692465,0.139009 0,-0.200728 0.121909,-0.241014 0.485243,-0.160713 1.948286,0.430599 6.156891,2.106867 6.881749,2.740917 0.686861,0.60081 1.463043,1.021432 2.422591,1.312582 h 5.29e-4 c 0.388059,0.117739 0.965684,0.191415 1.283645,0.163814 0.683591,-0.05939 1.450041,-0.519491 1.450041,-0.87023 0,-0.136631 0.397047,-1.473772 0.882115,-2.971912 0.485072,-1.498131 0.882116,-2.88604 0.882116,-3.084049 0,-0.205863 -0.341913,-0.660593 -0.797883,-1.061951 -1.38036,-1.215043 -3.792143,-1.612233 -4.570264,-0.752409 -0.165658,0.183048 -0.643176,1.375549 -1.060916,2.649966 -0.417729,1.274421 -0.806963,2.365007 -0.865063,2.423107 -0.05813,0.05813 -0.762518,-0.140655 -1.56528,-0.441316 -1.287039,-0.482028 -3.106716,-1.01446 -4.590418,-1.34307 -0.329768,-0.07304 -0.48524,-0.219268 -0.48524,-0.456819 0,-0.33332 -0.126013,-0.349332 -2.733686,-0.349332 -1.705089,0 -2.734199,-0.06621 -2.734199,-0.176218 0,-0.09698 0.08381,-0.176733 0.186553,-0.176733 0.1027,0 0.129749,-0.09887 0.05994,-0.220142 -0.0698,-0.1212 -0.06186,-0.161935 0.01704,-0.09043 0.07895,0.07147 0.388956,-0.01955 0.689364,-0.202057 0.522105,-0.317169 2.46458,-0.49739 4.3186,-0.400491 l 0.597379,0.03152 -0.105936,0.771529 -0.105937,0.771529 0.655257,0.108521 c 1.348322,0.222912 1.368089,0.210773 1.584399,-0.952396 0.173609,-0.933519 0.145105,-1.318078 -0.232027,-3.130558 -0.236489,-1.1366 -0.430617,-2.066542 -0.431498,-2.066542 -7.94e-4,0 -0.338608,0.0054 -0.750858,0.01344 -1.014079,0.01865 -1.170361,-0.103113 -0.49506,-0.387056 0.78616,-0.33056 0.517446,-0.596863 -0.603064,-0.596863 z m -29.692761,2.685108 c -0.536541,3.4e-5 -0.91519,0.02418 -0.91519,0.06408 0,0.05317 0.213925,0.89444 0.475423,1.869652 0.354621,1.322419 0.512267,1.689055 0.620117,1.443323 0.104702,-0.238469 0.118997,-0.197654 0.05219,0.147796 -0.05077,0.262509 0.0038,0.835586 0.120923,1.273308 0.11708,0.437729 0.228114,0.778676 0.247013,0.757576 0.01891,-0.02114 0.323867,-1.149657 0.677478,-2.507859 0.353599,-1.358188 0.677785,-2.588678 0.720886,-2.734198 0.06465,-0.21847 -0.182335,-0.271608 -1.417484,-0.305409 -0.205732,-0.0056 -0.402512,-0.0083 -0.58136,-0.0083 z m 31.341239,2.274797 c 0.127884,7.94e-4 0.248986,0.01252 0.333312,0.03462 v -5.3e-4 c 0.16864,0.0441 -0.01087,0.07848 -0.398942,0.07648 -0.38803,-0.0021 -0.525851,-0.0379 -0.30644,-0.0801 0.109704,-0.02085 0.244189,-0.03118 0.37207,-0.03049 z M 13.372068,51.228617 c -0.127098,-1.96e-4 -2.017451,0.667202 -4.2002608,1.483632 -2.1828177,0.81643 -4.5241991,1.680737 -5.2032999,1.920296 l -1.23455,0.435631 -0.048576,3.145544 c -0.026501,1.73011 -0.00904,3.247366 0.038757,3.371887 0.069461,0.181023 2.3336787,0.226343 11.2897507,0.226343 h 11.202933 l -1.539957,-1.360122 c -0.847021,-0.748059 -1.579824,-1.40561 -1.628324,-1.461411 -0.59371,-0.68286 -8.506562,-7.761435 -8.676473,-7.7618 z m 25.316801,4.56148 c -0.06699,0.01238 -0.01974,0.13998 0.07131,0.342614 0.161189,0.35868 0.4753,0.90506 0.698148,1.213879 0.222861,0.308819 0.40482,0.626184 0.404111,0.705385 -5.29e-4,0.07923 0.416081,0.957077 0.926042,1.950267 l 0.927073,1.806091 2.527496,0.0021 2.526977,0.0016 -0.498678,-0.401523 c -0.274231,-0.22107 -0.935064,-0.726223 -1.468644,-1.122413 -0.53358,-0.3962 -2.177556,-1.639787 -3.653007,-2.763655 -1.587675,-1.209358 -2.232515,-1.691788 -2.425176,-1.732711 -0.01445,-0.0031 -0.02609,-0.0033 -0.03566,-0.0016 z m -1.189594,4.651912 c -0.05003,0.01381 -0.137194,0.107117 -0.287319,0.287322 -0.190799,0.229028 -0.346749,0.566544 -0.346749,0.749823 0,0.183281 0.08381,0.332797 0.186552,0.332797 0.102701,0 0.137496,-0.07986 0.077,-0.177766 -0.15412,-0.249359 0.07906,-0.907412 0.278021,-0.784447 0.09002,0.05564 0.161129,-0.04206 0.158128,-0.217559 -0.0024,-0.138099 -0.01561,-0.203967 -0.06563,-0.190169 z m 0.447003,0.02635 c -0.03214,-0.0019 -0.06154,-0.0011 -0.08733,0.0021 -0.06879,0.0083 -0.112139,0.03455 -0.112139,0.08268 0,0.09681 0.178597,0.210699 0.396875,0.252699 0.700262,0.134861 0.741064,0.132619 0.564825,-0.03204 -0.179202,-0.167457 -0.537268,-0.293277 -0.762228,-0.305408 z m 6.003251,1.343586 c -0.3556,0.355601 -0.711002,1.121702 -1.066602,2.298569 -0.414867,1.3462 -0.711033,2.548684 -0.888833,3.607017 -0.1016,0.626533 -0.173675,1.451867 -0.216009,2.476333 -0.03387,0.931334 -0.109876,1.57058 -0.228409,1.917713 -0.148307,0.422675 -0.393314,0.780243 -0.723472,1.079522 -0.0483,-0.05277 -0.09325,-0.107165 -0.130741,-0.164849 -0.09313,-0.143933 -0.181983,-0.37248 -0.26665,-0.685748 -0.04233,-0.169332 -0.09318,-0.419107 -0.152444,-0.749308 -0.2032,-1.769532 -0.804442,-2.794314 -1.803509,-3.073715 h -0.01241 c 0.668867,-0.135467 1.270106,-0.643403 1.803506,-1.523936 0.127,-0.211667 0.190169,-0.537451 0.190169,-0.977718 0,-0.719666 -0.152535,-1.261676 -0.457335,-1.625743 -0.270933,-0.3302 -0.634722,-0.626366 -1.091925,-0.888833 -0.457197,-0.270933 -0.893061,-0.440245 -1.307928,-0.507979 -0.4064,-0.06773 -0.902014,-0.04651 -1.486214,0.06356 -0.6096,0.110067 -1.015847,0.152009 -1.219047,0.126609 -0.372533,-0.04233 -0.808397,-0.215583 -1.307931,-0.520383 -0.160866,-0.1016 -0.254169,-0.152445 -0.279569,-0.152445 -0.0762,0 -0.114205,0.04639 -0.114205,0.139525 0,0.06773 0.04639,0.144262 0.139526,0.228928 0.4318,0.389468 0.660347,1.058329 0.685747,2.006596 0.04233,1.650999 0.04233,3.712368 0,6.184635 -0.0085,0.6096 -0.114094,1.071145 -0.317294,1.384411 -0.194733,0.313266 -0.482513,0.563041 -0.863513,0.749308 0.804334,-0.1016 1.430737,-0.152445 1.879471,-0.152445 0.313266,0 1.130212,0.05084 2.451012,0.152445 l 0.165365,0.01241 c -0.618067,-0.270934 -0.944367,-0.422954 -0.978233,-0.456819 -0.4318,-0.220134 -0.647507,-0.639223 -0.647507,-1.25729 0,-0.110067 0.0039,-0.503989 0.01241,-1.181322 0.0085,-0.6858 0.01291,-1.100434 0.01291,-1.24437 v -0.368451 c 0.601134,0.0085 1.168308,0.233077 1.701708,0.673344 0.169333,0.143933 0.359873,0.363574 0.57154,0.659908 0.211666,0.287866 0.355814,0.520864 0.432014,0.698664 0.2286,0.651933 0.389525,1.159872 0.482658,1.523939 0.127,0.270933 0.317026,0.508383 0.571026,0.711583 0.143934,0.118534 0.381384,0.266618 0.711584,0.444418 0.135467,0.0762 0.347237,0.15221 0.635103,0.22841 0.795867,0.211666 1.218891,0.326199 1.269691,0.343133 -0.508,-0.262467 -0.821463,-0.436232 -0.939996,-0.520899 -0.0864,-0.054 -0.162468,-0.112501 -0.232026,-0.174151 0.415419,-0.03302 0.806915,-0.06504 1.060918,-0.0925 0.728133,-0.0508 1.227682,-0.05919 1.498616,-0.02532 0.550333,0.0508 1.020265,0.08881 1.409731,0.114205 -0.211666,-0.1016 -0.406659,-0.22452 -0.584459,-0.368453 -0.110067,-0.1016 -0.224081,-0.20329 -0.342614,-0.30489 -0.118533,-0.110067 -0.178284,-0.347001 -0.178284,-0.711068 0.0085,-0.855133 0.01738,-1.58323 0.02585,-2.184363 l 0.02532,-0.29197 h 4.127397 c 0.0254,0.34713 0.03824,0.651686 0.03824,0.914153 0,0.872067 -0.152537,1.507376 -0.457337,1.90531 -0.3048,0.389469 -0.80435,0.740933 -1.498616,1.054201 0.668866,-0.1016 1.362895,-0.148511 2.082562,-0.140044 0.858509,0.02077 1.472287,0.06259 1.86655,0.122991 -0.0028,0.0093 -0.0062,0.01826 -0.0062,0.02946 0,0.09313 0.0464,0.118814 0.139528,0.07648 0.567267,-0.237067 1.227741,-0.356053 1.981274,-0.356053 0.237067,0 0.694158,0.04691 1.371492,0.140044 0.567266,0.0762 1.020423,0.101365 1.35909,0.07597 0.110067,-0.0085 0.423529,-0.04647 0.939996,-0.114205 0.127,-0.01693 0.398002,-0.02532 0.812869,-0.02532 0.09313,0 0.528997,0.05923 1.30793,0.177766 -0.338666,-0.372533 -0.567213,-0.842465 -0.685747,-1.409732 -0.03387,-0.160866 -0.04225,-0.393866 -0.02532,-0.698666 0.04233,-0.414867 0.08427,-0.753491 0.126608,-1.015958 0.05927,-0.440267 0.08888,-0.647584 0.08888,-0.622184 0,-0.09313 -0.01677,-0.139528 -0.05064,-0.139528 -0.03387,0 -0.08026,0.03355 -0.139528,0.101285 -0.296333,1.397 -0.85118,2.404489 -1.66398,3.022555 -0.1778,0.135467 -0.431509,0.203605 -0.761709,0.203605 -0.448734,0 -0.804654,-0.08491 -1.06712,-0.254246 -0.440267,-0.2794 -0.723593,-0.994656 -0.850593,-2.146123 -0.06773,-0.592666 -0.101804,-1.617448 -0.101804,-3.073714 0,-0.982134 0.01283,-1.646545 0.03824,-1.993678 0.0762,-0.956733 0.245512,-1.583137 0.507979,-1.87947 l 0.01291,-0.01291 c 0.1778,-0.2032 0.546045,-0.520597 1.104845,-0.952397 -1.007534,0.389467 -1.951853,0.630854 -2.832386,0.723987 l -1.777669,0.19017 0.761709,0.152445 c 0.364066,0.118533 0.546221,0.563303 0.546221,1.33377 0.0085,3.2258 0.0085,4.910537 0,5.05447 -0.0254,0.626533 -0.04218,1.062397 -0.05064,1.30793 -0.06454,0.976146 -0.389895,1.641261 -0.969449,2.002462 -0.203462,-0.267774 -0.306959,-0.621151 -0.306959,-1.062466 0,-0.09313 0.0089,-0.237283 0.02585,-0.432017 0.01693,-0.194733 0.02532,-0.338365 0.02532,-0.431498 0,-0.499533 -0.08492,-1.2064 -0.254249,-2.1208 -0.143933,-0.762 -0.389255,-1.426927 -0.736388,-1.994193 -0.372534,-0.592668 -0.973775,-1.278305 -1.803509,-2.057239 -0.220133,-0.2032 -0.918612,-0.711139 -2.095479,-1.523939 -0.7874,-0.550333 -1.160094,-0.965483 -1.117761,-1.244883 z m -34.3116003,0.27957 c 0.3217333,0.09313 0.5927363,0.203213 0.8128703,0.330213 0.118533,0.0762 0.279458,0.194668 0.482658,0.355534 0.118533,0.09313 0.215772,0.266898 0.291972,0.520899 0.0762,0.245533 0.114721,0.452849 0.114721,0.622183 v 6.235795 c 0,0.6096 -0.05975,1.172321 -0.178283,1.688788 -0.121103,0.540922 -0.514603,0.949692 -1.1746057,1.228865 C 9.7449807,72.741101 9.5747184,72.344844 9.4782484,71.883167 9.4443814,71.722301 9.4359934,71.4893 9.4529274,71.1845 c 0.042333,-0.414866 0.084274,-0.75349 0.1266074,-1.015957 0.059266,-0.440267 0.088883,-0.647583 0.088883,-0.622184 0,-0.09313 -0.016777,-0.139528 -0.050643,-0.139528 -0.033867,0 -0.08026,0.03355 -0.1395265,0.101285 -0.2963333,1.397001 -0.8511809,2.404488 -1.6639812,3.022555 -0.1778,0.135468 -0.4315105,0.203605 -0.7617105,0.203605 -0.4487331,0 -0.8046516,-0.08491 -1.0671183,-0.254246 -0.4402667,-0.279399 -0.7235941,-0.994656 -0.850594,-2.146123 -0.067733,-0.592666 -0.1018026,-1.617448 -0.1018026,-3.073714 0,-0.982134 0.012841,-1.646545 0.03824,-1.993678 0.0762,-0.956734 0.2455127,-1.583137 0.5079794,-1.879471 l 0.01292,-0.01291 c 0.1778,-0.2032 0.5460423,-0.520597 1.104842,-0.952397 -1.007533,0.389468 -1.9518518,0.630854 -2.8323851,0.723987 l -1.7776693,0.190169 0.7617107,0.152445 c 0.3640666,0.118534 0.5462198,0.563304 0.5462198,1.33377 0.00847,3.225801 0.00847,4.910538 0,5.054472 -0.0254,0.626532 -0.042176,1.062397 -0.050643,1.30793 -0.067733,1.024467 -0.4191992,1.710623 -1.0541992,2.057756 -0.0254,0.01693 -0.038241,0.0421 -0.038241,0.07596 0,0.09313 0.046393,0.118814 0.1395263,0.07648 0.5672667,-0.237066 1.2277411,-0.356052 1.9812744,-0.356052 0.2370667,0 0.6941592,0.04691 1.3714926,0.140044 0.5672666,0.0762 1.0204235,0.101364 1.3590899,0.07596 0.110067,-0.0085 0.4235278,-0.04647 0.9399945,-0.114204 0.127,-0.01693 0.3980037,-0.02532 0.8128701,-0.02532 0.07533,0 0.4356436,0.04906 0.9596316,0.126606 0,0 0,5.29e-4 0,5.29e-4 0.033867,0.05927 0.080776,0.08049 0.1400429,0.06356 0.037337,-0.01032 0.073419,-0.01754 0.1105867,-0.02739 0.03979,0.006 0.05591,0.0081 0.09767,0.01447 -0.0093,-0.01021 -0.01775,-0.02117 -0.02687,-0.03152 0.729256,-0.187579 1.427538,-0.285771 2.091862,-0.285771 0.338667,0 1.032694,0.152022 2.08256,0.456822 -0.651933,-0.423333 -1.053728,-0.791578 -1.206128,-1.104845 -0.0762,-0.1524 -0.118657,-0.427339 -0.127123,-0.825271 v -5.943822 c 0.0085,-0.389467 0.0124,-0.901856 0.0124,-1.536856 0.0508,-0.474134 0.36426,-0.918388 0.939994,-1.333254 -0.524934,0.135466 -0.96525,0.169537 -1.32085,0.101804 -0.135466,-0.0254 -0.304779,-0.08909 -0.507979,-0.190686 -0.237067,-0.110066 -0.448837,-0.190529 -0.635103,-0.241329 -0.6096,-0.169333 -1.219229,-0.258185 -1.8288289,-0.266652 z m 22.9200463,0.164848 c -0.6604,0.745067 -1.185629,1.117762 -1.575096,1.117762 -0.135467,0 -0.270711,-0.01678 -0.406178,-0.05064 -0.7112,-0.262467 -1.418066,-0.393774 -2.1208,-0.393774 -0.821267,0 -1.507422,0.177702 -2.057755,0.533302 -1.6256,1.058333 -2.438094,2.591051 -2.438094,4.597652 0,1.083732 0.258163,2.053217 0.774629,2.908349 0.5334,0.897468 1.286661,1.549036 2.260327,1.955435 0.4826,0.2032 1.024608,0.304894 1.625741,0.304894 0.3048,0 0.753506,-0.06369 1.346172,-0.190688 0.592664,-0.135467 1.016207,-0.203086 1.270207,-0.203086 0.110066,0 0.190529,0.0044 0.241329,0.01291 0.220133,-0.04233 0.613539,0.122529 1.180806,0.495062 -0.321733,-0.516466 -0.482658,-1.083638 -0.482658,-1.701704 0,-0.516467 0.06814,-1.282568 0.203605,-2.298568 0.0085,-0.06773 -0.01722,-0.105738 -0.07648,-0.114205 -0.05927,-0.01693 -0.09727,0.0082 -0.114204,0.07596 -0.414867,1.312332 -1.100508,2.256648 -2.057239,2.832383 -0.440269,0.262466 -0.859356,0.393258 -1.257289,0.393258 -0.414867,0 -0.830018,-0.148082 -1.244885,-0.444418 -1.1938,-0.855133 -1.790588,-2.048709 -1.790588,-3.581175 v -0.02532 h 3.492292 v -0.762227 l -3.505212,-0.01291 c 0.04233,-0.728133 0.161318,-1.375767 0.356051,-1.943034 0.508,-1.481666 1.371339,-2.222087 2.590539,-2.222087 0.533401,0 1.032951,0.152019 1.498617,0.456819 0.465667,0.296333 0.812681,0.690258 1.041281,1.181325 0.143934,0.313266 0.330539,1.058137 0.559139,2.235004 0.0762,-0.5588 0.109752,-1.079577 0.101285,-1.562177 -0.0254,-1.236133 0.169593,-2.434164 0.584459,-3.594097 z m -17.710545,0.03824 c 0.677333,0.812801 1.046092,1.612972 1.105359,2.400371 0.0254,0.110068 0.04218,1.151624 0.05064,3.124357 0,0.296333 0.01284,0.761815 0.03824,1.396815 0.0254,0.601133 0.03772,1.062678 0.03772,1.384411 0,0.694267 -0.09279,1.244661 -0.279053,1.651061 -0.211667,0.4572 -0.597202,0.858996 -1.156002,1.206129 1.253067,-0.364066 2.125311,-0.545703 2.616378,-0.545703 0.2794,0 0.719716,0.05923 1.32085,0.177766 0.6096,0.118533 1.058304,0.177768 1.346171,0.177768 0.855133,0 1.642463,-0.287779 2.362129,-0.863513 0.567267,-0.4572 0.851111,-1.117674 0.851111,-1.981274 0,-0.186266 -0.02123,-0.414813 -0.06356,-0.685747 -0.3048,-0.880533 -0.855195,-1.515843 -1.651062,-1.905309 0.381,-0.245534 0.690009,-0.57132 0.927075,-0.97772 0.186267,-0.321735 0.27957,-0.724043 0.27957,-1.206643 0,-0.5334 -0.165377,-0.977654 -0.495577,-1.333254 -0.3302,-0.355598 -0.613528,-0.605375 -0.850594,-0.749308 -0.2286,-0.1524 -0.538125,-0.28816 -0.927592,-0.406694 -0.296333,-0.09313 -0.723809,-0.139525 -1.282609,-0.139525 -0.372533,0 -0.863695,0.038 -1.473295,0.114205 l -0.203089,0.02532 H 17.2478 c -0.694267,0 -1.494437,-0.287779 -2.40037,-0.863513 z m 22.025529,1.206646 c 0.5588,0 0.994664,0.215704 1.307931,0.647503 0.143933,0.237071 0.270788,0.44884 0.380854,0.635107 0.169334,0.406399 0.254249,0.850651 0.254249,1.33325 0,0.381 -0.06369,0.720141 -0.190688,1.016477 -0.423333,0.592664 -0.82119,0.89277 -1.193723,0.901234 -0.06773,0.0085 -0.359966,0.01291 -0.876433,0.01291 -0.465666,0 -0.745058,-0.0044 -0.838192,-0.01291 l 0.01291,-0.24081 c 0.01693,-0.364066 0.02532,-0.728375 0.02532,-1.09244 0,-0.330201 -0.0084,-0.698442 -0.02532,-1.104843 -0.01693,-0.4064 -0.02532,-0.656174 -0.02532,-0.749308 0,-0.177799 0.01283,-0.309106 0.03824,-0.393773 0.0762,-0.270933 0.219831,-0.495028 0.431498,-0.672829 0.220133,-0.186266 0.453133,-0.279569 0.698667,-0.279569 z m -17.605644,0.03824 c 0.381,0 0.787247,0.245322 1.219047,0.736389 0.364067,0.414866 0.54622,0.97365 0.54622,1.676384 0,0.6604 -0.232999,1.143174 -0.698666,1.447974 -0.211666,-0.0762 -0.465377,-0.114723 -0.76171,-0.114723 -0.719667,0 -1.367301,0.169831 -1.943034,0.508497 -0.05927,-0.592666 -0.08888,-1.071504 -0.08888,-1.435571 0,-1.8796 0.575559,-2.81895 1.727026,-2.81895 z m 25.164872,0.431499 c 0.245533,0.169333 0.461756,0.325805 0.648023,0.469738 1.0414,0.719666 1.777883,1.532678 2.209683,2.438612 0.254,0.524933 0.444542,1.121722 0.571542,1.790589 h -3.949631 c 0.0254,-1.524 0.198649,-3.090273 0.520383,-4.698939 z m -25.342639,3.911907 c 0.465667,0 0.909918,0.173246 1.333252,0.520379 0.7112,0.5842 1.067118,1.291069 1.067118,2.120802 0,0.262467 -0.02962,0.482624 -0.08888,0.660424 -0.2032,0.592667 -0.559119,0.982139 -1.067119,1.168406 -0.321733,0.118533 -0.63913,0.177765 -0.952396,0.177765 -0.524933,0 -0.96525,-0.177699 -1.32085,-0.533299 -0.2794,-0.372534 -0.419096,-0.918478 -0.419096,-1.638144 0,-0.169334 0.01729,-0.491183 0.05116,-0.965317 0.0254,-0.4064 0.02934,-0.728247 0.0124,-0.965313 0.414867,-0.364067 0.876412,-0.545703 1.384412,-0.545703 z"
       style="fill:#3a5077;fill-opacity:1;stroke-width:1"
       id="path897" />
    <g
       style="font-size:12.7px;line-height:1.25;font-family:'Latin Modern Sans';-inkscape-font-specification:'Latin Modern Sans';stroke-width:0.264583"
       id="text911"
       aria-label="LIBERAL" />
    <text
       id="text915"
       y="90.566963"
       x="17.878916"
       style="font-size:6.35px;line-height:1.25;font-family:'Latin Modern Sans';-inkscape-font-specification:'Latin Modern Sans';stroke-width:0.264583"
       xml:space="preserve"><tspan
         style="stroke-width:0.264583"
         y="90.566963"
         x="17.878916"
         id="tspan913"
         sodipodi:role="line" /></text>
  </g>
</svg>
