<svg xmlns="http://www.w3.org/2000/svg" viewBox="0 0 73 87" height="87mm" width="73mm"><g style="fill:#fff"><path style="opacity:1;fill:#fff;stroke:none;stroke-width:.767225;stroke-miterlimit:4;stroke-dasharray:none;stroke-opacity:1;fill-opacity:1" d="M204.143 60.182c-11.223 0-22.536 1.34-33.616 4.117a131.83 131.83 0 0 0-22.33 7.763c-25.548 11.603-46.574 31.003-60.273 53.842-14.596 24.355-20.782 52.16-19.358 78.356 1.574 28.763 12.125 55.129 27.414 75.7 17.654 23.74 41.168 39.556 64.18 48.11 47.89 17.836 89.042 3.98 109.48-8.453 17.483-10.655 24.177-20.094 23.739-20.523-.438-.43-7.99 8.095-25.473 17.502-20.46 11.03-60.13 22.751-105.252 4.967-21.686-8.564-43.716-23.953-60.006-46.49-14.112-19.513-23.755-44.43-24.986-71.272-1.13-24.436 4.83-50.407 18.486-72.94 12.795-21.128 32.398-39.14 56.1-49.861 6.61-3 13.533-5.397 20.664-7.182 29.991-7.503 61.851-3.756 88.037 9.026 35.664 17.355 60.252 50.447 69.541 84.308 3.964 14.496 5.36 29.073 3.742 42.905-1.745 14.913-6.907 28.707-14.878 39.8-6.084 8.481-13.69 15.341-22.05 20.086-9.106 5.172-19.081 7.852-28.556 8.036-15.594.34-29.106-6.035-38.748-14.397l-.094.102c-6.617-6.108-15.41-15.506-23.767-28.455-4.51-.627-10.618-2.154-17.21-5.653-5.698-3.025-11.198-7.237-15.804-12.65-1.94-2.811-3.512-5.809-4.418-7.207.977 1.508 3.11 3.807 5.72 6.037 4.73 4.978 10.214 8.71 15.757 11.314a54.314 54.314 0 0 0 13.545 4.307 156.018 156.018 0 0 1-14.323-30.863c-4.614-.9-10.964-3.296-16.545-8.68-.891-1.216-1.663-2.49-2.146-3.03.508.568 1.684 1.367 2.978 2.102 5.2 4.32 10.667 6.146 14.854 6.983a152.392 152.392 0 0 1-3.465-12.819c-2.19-11.87-2.483-20.908-2.857-27.351.35 6.024 1.88 15.821 5.162 26.797a150.26 150.26 0 0 0 3.842 12.57c1.885-.532 4.7-1.59 7.214-4.19a15.184 15.184 0 0 0 4.061-8.189c.573-3.5-.22-6.48-1.041-8.195.808 1.69 2.008 4.543 1.945 8.275a16.73 16.73 0 0 1-3.302 9.514c-2.427 3.245-5.53 4.935-7.817 5.683a155.397 155.397 0 0 0 15.815 30.91c1.99-.37 4.562-1.064 7.355-2.615 2.3-1.276 4.634-3.076 6.6-5.484 1.796-2.2 3.216-4.832 4.105-7.736a23.024 23.024 0 0 0 .924-8.897c-.263-4.544-1.867-8.138-3.248-10.164 1.368 2.007 3.52 5.288 4.611 9.965.61 3.09.623 6.384-.015 9.658a25.378 25.378 0 0 1-3.711 9.121 25.48 25.48 0 0 1-7.078 7.088 24.82 24.82 0 0 1-6.725 3.174c7.742 10.928 15.53 18.97 21.508 24.545 5.15-1.881 9.892-4.415 13.822-7.522 5.205-4.114 10.646-11.89 13.078-18.691 2.78-7.77 2.77-18.523-.025-26.014-4.5-12.06-11.228-19.588-31.026-34.709-7.064-5.395-15.959-12.49-19.765-15.767-14.301-12.311-23.767-25.423-26.393-36.56l-.969-4.11-4.966 7.556c-9.977 15.183-20.118 38.722-23.553 54.668-1.94 9.009-2.34 24.3-.858 32.791 4.545 26.04 23.052 45.743 47.956 51.053 6.918 1.475 14.534 1.46 21.9.178 10.134 11.747 26.66 21.909 47.168 21.998 10.58.023 21.718-2.681 31.96-8.256 9.389-5.112 17.946-12.519 24.802-21.781 8.96-12.127 14.875-27.1 16.943-43.315 1.915-15.012.63-30.719-3.477-46.213-9.605-36.346-35.467-71.727-73.836-90.666-18.528-9.119-39.624-14.007-61.048-14.007Zm119.51 249.72c-2.7.116-5.498 1.511-8.288 3.93l-9.056 7.854c-1.305 1.13-1.39 1.9-.215 3.226l18.988 21.43c1.143 1.29 1.923 1.373 3.264.21l1.847-1.6c1.377-1.194 1.327-1.975.215-3.23l-6.986-7.882 5.506-4.774c5.687-4.931 6.996-10.25 2.424-15.41-2.398-2.705-5-3.87-7.7-3.754zm-231.356.662c-.506.035-.992.374-1.572 1.043l-18.75 21.633c-1.13 1.303-1.104 2.08.25 3.227l12.691 10.762c1.39 1.178 2.162 1.018 3.26-.249l.283-.324c.721-.832 1.467-1.768-.215-3.195l-9.23-7.578 17.088-19.715c1.003-1.158 1.249-1.955-.25-3.227l-1.866-1.582c-.658-.558-1.184-.829-1.69-.795zm229.728 4.86c1.742.02 3.041 1.189 4.291 2.6 2.128 2.4 3.763 5.038-1.091 9.247l-4.42 3.833-8.287-9.352 4.455-3.863c2.076-1.8 3.698-2.48 5.052-2.465zm-203.351 14.951c-.669-.04-1.186.37-1.764 1.313l-14.953 24.357c-.9 1.466-.746 2.225.777 3.14l2.1 1.262c1.565.94 2.3.658 3.176-.767l14.953-24.356c.8-1.303.913-2.128-.775-3.142l-2.102-1.262c-.556-.334-1.011-.52-1.412-.545zm168.246 4.014c-.616.035-1.136.31-1.56.535l-3.739 1.978c-.85.45-2.08 1.103-1.74 3.246l4.77 30.12c.083.658.128.743.242.953.613 1.134 1.676.572 2.271.258l1.53-.811c.764-.405 2.08-1.1 1.765-3.096l-.867-5.54 11.763-6.23 3.627 3.268c1.306 1.2 2.058 1.884 4.096.805l2.295-1.215c.595-.315 1.655-.877 1.041-2.012-.114-.21-.158-.292-.666-.726l-22.693-20.631c-.808-.735-1.52-.938-2.135-.902zm-155.324 4.941c-.444.034-.865.26-1.088.914 0 0-.076.225-.11.918l-1.832 29.768c-.145 2.064 1.134 2.492 2.092 2.812l3.012 1.006c.958.32 2.237.749 3.494-1.144l10.82-16.051c1.518-2.21 2.27-3.365 3.467-5.38l.045.015c-.347 2.8-.458 4.021-.639 7.23l-1.16 18.576c-.145 2.064 1.132 2.49 2.045 2.795l3.285 1.1c.959.32 2.237.747 3.387-.98l16.8-24.766c.4-.571.475-.797.475-.797.448-1.31-.784-1.72-1.423-1.934l-.96-.32c-.912-.305-2.19-.733-3.415 1.07l-10.914 16.17c-1.426 2.089-2.347 3.44-3.436 5.29l-.045-.015c.188-1.295.219-1.385.48-5.724l1.319-19.932c.1-1.928-.737-2.458-2.06-2.9l-3.012-1.008c-.959-.32-2.237-.747-3.463 1.057l-9.074 13.464-2.668 4.088c-1.227 1.954-2.086 3.275-2.424 3.967l-.045-.015c.437-2.47.699-6.807.894-9.91l1.01-15.758c.116-2.125-1.207-2.568-2.074-2.858l-1.553-.517c-.32-.107-.786-.265-1.23-.23zm154.441 2.1c.758.896.803.979 1.666 1.765l10.424 9.668-9.217 4.881-1.762-10.525c-.363-2.186-.673-4.076-1.152-5.768zm-18.375 3.021c-.373-.04-.792.075-1.117.164l-2.275.625c-.975.267-2.414.662-3.178 2.75l-2.748 7.676c-.982 2.741-1.518 4.222-1.844 6.092-1.095-1.233-2.397-2.31-3.686-3.342l-7.328-6c-1.492-1.223-2.617-1.312-4.289-.853l-3.062.84c-.65.177-1.673.457-1.377 1.513.09.321.294.514.676.805l16.914 13.808 2.959 10.56c.463 1.654 1.128 2.065 2.845 1.595l2.229-.612c1.625-.445 2.099-1.068 1.623-2.767l-2.96-10.563 7.321-20.449c.122-.28.237-.757.147-1.078-.148-.528-.476-.724-.85-.764zm-42.96 9.559c-.2-.004-.421.005-.667.03l-2.443.241c-1.726.172-2.249.752-2.07 2.506l2.878 28.352c.174 1.707.758 2.225 2.532 2.049l2.443-.245c1.821-.18 2.239-.844 2.07-2.504l-2.879-28.353c-.134-1.328-.467-2.047-1.865-2.076zm-39.296.14c-1.278.039-1.76.602-1.867 2.141l-1.95 28.287c-.117 1.712.373 2.318 2.151 2.438l19.61 1.322c1.826.123 2.348-.463 2.463-2.127l.046-.664c.158-2.282-.949-2.358-2.535-2.465l-7.455-.406-7.023-.38.672-9.745 12.638.853c1.49.1 2.33-.178 2.461-2.08.121-1.759-.47-2.275-2.152-2.388l-12.64-.854.607-8.795 2.355.158 11.283.905c1.682.113 2.788.188 2.946-2.094l.025-.379c.105-1.521-.178-2.305-2.148-2.438l-18.89-1.275a6.158 6.158 0 0 0-.597-.014zm148.008 9.893c-.48 0-.64.147-.64.64v7.973c0 .48.147.64.64.64h.36c.506 0 .64-.173.64-.64v-6.892h.014c.146.6.746 2.08 1.066 2.867l1.547 3.799c.24.573.558.574 1.012.574.453 0 .773-.001 1.013-.574l1.707-4.186c.134-.32.854-2.134.948-2.48h.013v6.892c0 .427.092.64.64.64h.36c.507 0 .64-.173.64-.64v-7.972c0-.427-.093-.641-.64-.641h-1.12c-.334 0-.667.028-.893.574l-1.76 4.32c-.28.68-.774 1.907-.88 2.374h-.015c-.12-.48-.665-1.8-.945-2.506l-1.707-4.215c-.227-.547-.654-.547-.894-.547zm-10.445.08c-.48 0-.64.147-.64.64v.108c0 .64.32.639.692.639l2.68-.04v7.186c0 .48.147.64.64.64h.68c.507 0 .641-.173.641-.64v-7.185l2.666.039c.373 0 .693 0 .693-.639v-.107c0-.427-.093-.64-.64-.64z" transform="matrix(.26458 0 0 .26458 -17.992 -15.875)"/></g></svg>