<svg xmlns="http://www.w3.org/2000/svg" width="37.5mm" height="37.5mm" viewBox="0 0 37.5 37.5"><path d="M18.194 36.194c-.047-.047-.587-.119-1.2-.16-1.554-.106-2.426-.257-2.54-.442-.053-.086-.326-.157-.605-.157-.28 0-.558-.08-.618-.176-.06-.097-.293-.176-.518-.176-.225 0-.507-.12-.628-.265-.12-.146-.399-.265-.617-.265-.22 0-.497-.119-.618-.264a.817.817 0 0 0-.55-.265c-.18 0-.428-.159-.55-.353-.12-.194-.358-.352-.528-.352-.17 0-.408-.16-.53-.353-.12-.194-.32-.353-.44-.353-.122 0-.32-.159-.441-.353-.122-.194-.3-.353-.399-.355-.155-.001-1.175-1.05-2.639-2.713-.247-.281-.45-.6-.45-.71 0-.11-.158-.336-.352-.502-.194-.166-.353-.412-.353-.547 0-.135-.119-.344-.264-.464-.146-.121-.265-.409-.265-.64 0-.23-.078-.419-.173-.419-.095 0-.226-.213-.292-.473a5.08 5.08 0 0 0-.347-.913c-.125-.242-.188-.506-.139-.585.05-.08-.028-.313-.172-.518-.144-.205-.219-.484-.167-.62.052-.136-.003-.364-.122-.508-.12-.144-.179-.462-.132-.707.047-.246.021-.486-.058-.535-.078-.049-.146-.384-.15-.746l-.009-.965a54.773 54.773 0 0 1 0-1.147l.01-.965c.003-.362.07-.697.15-.746.078-.048.104-.29.057-.534-.047-.246.01-.562.127-.703.117-.14.16-.342.094-.447-.065-.106.01-.39.169-.63.158-.241.237-.52.176-.618-.06-.098.015-.371.17-.606.153-.235.279-.579.279-.764 0-.186.119-.436.264-.557.146-.121.265-.36.265-.53 0-.17.12-.408.265-.529a.817.817 0 0 0 .264-.549c0-.181.159-.429.353-.55.194-.121.353-.357.353-.524 0-.168.159-.39.353-.493.194-.104.352-.305.352-.446 0-.141.16-.356.353-.477.194-.121.353-.29.353-.375 0-.189 1.316-1.524 1.502-1.524.073 0 .31-.179.528-.397.703-.707 1.346-1.19 1.582-1.19.127 0 .276-.12.332-.266.056-.145.274-.264.485-.264.21 0 .47-.118.579-.261.107-.144.375-.288.595-.32.22-.032.493-.153.608-.268.115-.115.382-.21.594-.21.21 0 .485-.121.609-.27.123-.15.351-.257.506-.238.155.018.48-.048.723-.147.242-.1.541-.142.664-.095.122.046.34-.013.482-.131.146-.121.45-.168.693-.108.238.06.478.036.533-.053.227-.368 6.048.073 6.842.518.168.094.45.172.628.172.176 0 .475.116.663.259.189.142.472.261.63.264.158.003.386.125.507.27.12.146.41.265.644.265.234 0 .47.12.527.265.055.145.239.264.408.264.168 0 .45.16.625.353.176.194.426.353.555.353.13 0 .335.159.457.353.12.194.318.352.438.352s.348.199.507.441c.159.243.406.441.55.441.143 0 .301.155.35.345.05.19.28.47.513.621.233.153.423.39.423.526 0 .137.155.298.344.358.189.06.395.271.458.47.063.198.266.512.45.696.184.185.335.446.335.581 0 .136.12.292.265.348.145.056.264.294.264.529 0 .235.12.473.265.529.146.056.265.293.265.526 0 .234.119.524.264.645.146.12.265.404.265.629 0 .224.08.458.176.518.097.06.177.337.177.617 0 .28.08.558.178.618.098.061.178.324.179.584 0 .26.046.791.102 1.18.143.985.23 3.85.123 4.024-.049.08-.123.633-.165 1.231-.041.598-.152 1.164-.246 1.258-.094.094-.171.389-.171.655s-.08.532-.177.592c-.097.06-.176.287-.176.505 0 .217-.094.489-.21.604-.115.115-.236.385-.268.6-.033.214-.177.519-.32.677-.143.158-.26.423-.26.588 0 .165-.12.346-.265.402-.146.056-.265.251-.265.434s-.158.432-.352.553c-.194.12-.353.355-.353.52 0 .166-.146.404-.325.531-.179.127-.42.41-.535.628-.116.218-.318.396-.449.396-.13 0-.28.165-.333.366a.71.71 0 0 1-.456.46c-.198.052-.408.245-.466.428-.058.184-.176.334-.261.334-.086 0-.37.198-.631.44-.262.243-.581.442-.709.442s-.318.159-.421.353c-.104.194-.319.352-.478.352-.158 0-.427.125-.595.278-.17.153-.414.295-.543.316-.13.02-.451.18-.714.355-.262.174-.55.27-.641.215-.09-.056-.262.017-.382.161-.12.145-.402.263-.627.263-.225 0-.458.08-.518.176-.06.097-.338.177-.618.177-.28 0-.562.087-.628.194-.068.11-.338.15-.62.094-.276-.055-.549-.024-.607.07-.057.093-.358.164-.668.157-.31-.007-.976.025-1.48.07-.503.045-.954.043-1-.003zm2.504-.815c.226-.031.474-.159.551-.284.099-.16.176-.169.261-.031.197.318.485.222.375-.126-.067-.208.058-.47.358-.75.534-.498 1.036-1.422 1.21-2.23.101-.468.283-.639 1.065-.997 8.344-3.82 10.37-15.393 3.744-21.383-2.76-2.494-4.328-2.211-1.92.346 5.891 6.26 5.093 14.803-1.724 18.437l-1.068.569v-.647c0-.502-.059-.624-.264-.545-.384.147-.34-.47.059-.832.231-.209.59-.281 1.254-.252 1.752.076 3.105-3.015 1.835-4.192l-.467-.434.155-2.16c.508-7.092.241-7.234-4.59-2.45l-3.626 3.59v.837c0 .916-.096 1.063-1.48 2.26-1.604 1.388-2.95.679-3.266-1.722-.1-.763-1.075-1.394-1.075-.697 0 .115-.238.48-.53.812-.627.714-.63.754-.174 2.23.524 1.696.816 1.985 1.962 1.937 1.157-.048 1.746.283 1.727.97-.008.264-.054.38-.103.26-.162-.4-.59-.24-.59.22 0 1.256-3.336-1.58-4.729-4.019-3.293-5.769.108-14.74 5.602-14.776 3.096-.021 3.54-.338 1.57-1.121-1.436-.572-1.48-.595-1.354-.722.049-.049.558.075 1.132.275 1.998.695 3.806.436 4.645-.667.204-.27.722-.938 1.15-1.486.871-1.114.868-1.51-.004-.665l-.567.55-.127-.59c-.157-.73-.245-.887-.433-.77-.08.05-.035.462.102.917.667 2.217-1.935 3.352-5.107 2.228l-1.032-.366 1.16-.828c1.27-.906 1.413-.91 1.605-.056l.129.577.164-.58c.173-.607-.184-1.513-.67-1.7-.217-.083-5.306.966-5.932 1.223-.46.189-.83 1.02-.83 1.859 0 .655-.094.815-.89 1.531-6.78 6.095-5.202 17.463 3.017 21.739 1.247.649 1.37.762 1.483 1.362.185.987.724 1.92 1.415 2.446.34.26.619.59.619.735 0 .153.103.222.25.166.137-.052.474-.023.749.065.437.14 1.947.11 3.204-.063zm-4.793-3.088c-.397-.438-.368-.723.06-.611.229.06.353.24.353.513 0 .505-.037.514-.413.098zm5.881-.185c0-.216.113-.375.265-.375.145 0 .264.07.264.155 0 .085-.119.254-.264.374-.221.184-.265.158-.265-.154zm-4.895-.767c-.663-.14-.931-.425-.657-.7.13-.13 1.672.398 1.672.573 0 .257-.248.288-1.015.127zm1.72-.049c0-.2.216-.264.882-.264.667 0 .882.064.882.264s-.215.265-.882.265c-.666 0-.882-.065-.882-.265zm2.368-.11c-.134-.216-.033-.318.83-.833l.641-.383.084.442c.12.626-1.23 1.3-1.555.775zm-5.597-.62c-.067-.067-.122-.365-.122-.661 0-.538 0-.538.274-.148.263.376.13 1.09-.152.81zm2.383-2.921c-.267-.266-.278-1.315-.016-1.476.108-.067.387-.554.621-1.083.48-1.083.727-1.122 1.058-.166.126.363.39.865.588 1.116.398.506.452.964.177 1.48-.242.451-.616.431-.954-.052l-.275-.392-.275.392c-.306.438-.608.497-.924.18zm3.465-3.764c-1.91-1.63-1.864-1.974.408-3.085 2.173-1.063 2.144-1.062 2.602-.116 1.338 2.765-.825 5.066-3.01 3.2zm2.334-.42c.64-.64.657-1.23.059-1.941-.889-1.056-2.719-.394-2.719.984 0 .64.897 1.472 1.588 1.472.38 0 .72-.164 1.072-.516zm-1.593-.445c-.283-.34-.17-.986.212-1.226.691-.433 1.394.766.733 1.25-.408.299-.683.291-.945-.024zm.962-.537c0-.39-.549-.583-.836-.295-.297.296-.004.765.438.702.26-.037.398-.178.398-.407zm-10.018-15.9c-.304-.303-.099-.53.412-.455.296.044.508.169.472.278-.077.234-.702.36-.884.178zm3.227 28.51a.177.177 0 0 0-.177-.177.177.177 0 0 0-.176.176c0 .097.08.177.176.177.097 0 .177-.08.177-.177zm-1.411-.364c0-.091-.08-.166-.177-.166-.097 0-.176.124-.176.275 0 .152.08.226.176.166.097-.06.177-.183.177-.275zm.705.187a.177.177 0 0 0-.176-.176.177.177 0 0 0-.177.176.177.177 0 0 0 .353 0zm7.232 0a.177.177 0 0 0-.176-.176.177.177 0 0 0-.177.176.177.177 0 0 0 .353 0zm-8.643-.265c0-.145-.08-.264-.176-.264-.097 0-.177.119-.177.264 0 .146.08.265.177.265.097 0 .176-.119.176-.265zm9.349.089a.177.177 0 0 0-.177-.177.177.177 0 0 0-.176.177c0 .097.08.176.176.176.097 0 .177-.08.177-.176zm.672-.19c-.035-.104-.14-.19-.231-.19-.092 0-.196.086-.231.19-.035.104.07.19.23.19.162 0 .266-.086.232-.19zm-10.55-.163c0-.097-.12-.176-.265-.176-.145 0-.264.079-.264.176 0 .097.119.176.264.176.146 0 .265-.08.265-.176zm11.255-.013c-.035-.105-.139-.19-.23-.19-.093 0-.197.085-.231.19-.035.104.069.19.23.19.162 0 .266-.086.231-.19zm-12.11-.252c0-.092-.086-.196-.19-.23-.104-.035-.19.069-.19.23 0 .162.086.266.19.231.104-.035.19-.139.19-.23zm12.85-.088c0-.097-.12-.176-.265-.176-.146 0-.265.08-.265.176 0 .097.12.177.265.177.145 0 .264-.08.264-.177zm-13.44-.19c-.035-.104-.139-.19-.23-.19-.093 0-.197.086-.231.19-.035.105.069.19.23.19.162 0 .266-.085.231-.19zm13.995-.074c0-.093-.085-.196-.19-.231-.104-.035-.19.069-.19.23 0 .162.086.266.19.231.105-.034.19-.138.19-.23zm-14.667-.265c0-.097-.074-.176-.166-.176-.09 0-.215.079-.275.176-.06.097.015.176.166.176.152 0 .275-.079.275-.176zm15.346-.088c0-.146-.075-.265-.166-.265-.222 0-.382.276-.24.417.198.198.406.12.406-.152zm-15.875-.275c0-.092-.119-.166-.264-.166-.273 0-.35.208-.152.407.14.14.416-.019.416-.241zm16.43-.078c0-.092-.085-.196-.189-.23-.104-.036-.19.068-.19.23s.086.266.19.23c.104-.034.19-.138.19-.23zm-17.135-.265c0-.097-.111-.176-.246-.176s-.293-.124-.352-.276c-.058-.151-.185-.226-.283-.166-.268.166-.213.442.087.442.145 0 .264.08.264.176 0 .097.12.177.265.177.146 0 .265-.08.265-.177zm17.815-.088c0-.145-.075-.264-.166-.264-.223 0-.382.275-.24.416.198.199.406.121.406-.152zm.617-.44c-.06-.098-.183-.177-.275-.177-.091 0-.166.08-.166.176 0 .097.124.177.275.177.152 0 .226-.08.166-.177zM8.91 31.995c0-.146-.08-.265-.177-.265-.097 0-.176.12-.176.265 0 .145.08.264.176.264.097 0 .177-.119.177-.264zm20.25-.102c-.034-.104-.138-.19-.23-.19s-.196.086-.23.19c-.036.105.068.19.23.19s.266-.085.23-.19zm-20.813-.353c-.035-.104-.139-.19-.23-.19-.093 0-.197.086-.232.19-.034.105.07.19.231.19.162 0 .266-.085.23-.19zm21.377-.163c0-.097-.12-.176-.265-.176-.145 0-.264.08-.264.176 0 .097.119.177.264.177.146 0 .265-.08.265-.177zm-21.872-.363c0-.091-.12-.166-.265-.166a.265.265 0 0 1-.265-.264c0-.273-.208-.35-.406-.152-.146.146.619.944.799.833a.327.327 0 0 0 .137-.25zm22.4-.078c0-.145-.074-.264-.165-.264-.222 0-.382.275-.24.416.198.199.406.121.406-.152zm.53-.529c0-.145-.075-.264-.166-.264-.222 0-.382.275-.24.416.198.199.406.12.406-.152zm-23.989-.353c0-.145-.074-.264-.166-.264-.222 0-.381.275-.24.416.198.199.406.121.406-.152zm24.518-.157c0-.135.124-.293.276-.352.152-.058.226-.185.166-.283-.16-.26-.442-.217-.442.068 0 .135-.124.293-.275.351-.152.059-.227.186-.166.284.16.26.441.217.441-.068zm-25.047-.372c0-.145-.08-.264-.176-.264-.097 0-.177.119-.177.264 0 .146.08.265.177.265.097 0 .176-.12.176-.265zm-.353-.628c0-.09-.119-.166-.264-.166-.273 0-.35.209-.152.407.14.141.416-.018.416-.24zm26.238-.268c-.168-.169-.505.104-.38.306.075.12.173.118.3-.009.104-.104.14-.238.08-.297zm-26.767-.25a.177.177 0 0 0-.176-.177.177.177 0 0 0-.177.177.177.177 0 0 0 .353 0zm27.252-.177c.06-.097-.015-.176-.166-.176-.151 0-.275.08-.275.176 0 .097.075.177.166.177.091 0 .215-.08.275-.177zM5.03 27.88c0-.23-.21-.383-.38-.277-.182.113-.025.424.214.424.092 0 .166-.066.166-.147zm27.896-.294c0-.092-.085-.196-.19-.23-.104-.036-.189.068-.189.23s.085.265.19.23c.104-.034.19-.138.19-.23zm-28.248-.451c0-.092-.12-.166-.265-.166-.273 0-.35.208-.152.406.141.141.417-.018.417-.24zm28.75-.166c0-.097-.118-.177-.264-.177-.145 0-.264.08-.264.177 0 .097.119.176.264.176.146 0 .265-.08.265-.176zM4.29 26.603c-.035-.105-.139-.19-.23-.19-.093 0-.197.085-.232.19-.034.104.07.19.231.19.162 0 .266-.086.231-.19zm29.49-.35c0-.092-.118-.166-.264-.166-.273 0-.35.208-.152.406.141.141.417-.018.417-.24zm-29.882-.387a7.242 7.242 0 0 1-.212-.529c-.133-.378-.42-.408-.42-.044 0 .145.076.264.17.264.094 0 .125.12.07.265-.066.17.004.265.196.265.176 0 .256-.09.196-.22zm30.072-.18c-.021-.212-.263-.17-.34.057-.038.116.025.18.142.14.116-.038.206-.127.198-.198zm.34-.658a.177.177 0 0 0-.177-.176.177.177 0 0 0-.176.176c0 .097.08.177.176.177.097 0 .177-.08.177-.177zm-31.018-.44c0-.093-.085-.197-.19-.231-.104-.035-.19.069-.19.23 0 .162.086.266.19.231.105-.035.19-.139.19-.23zm31.37-.265c0-.097-.118-.177-.264-.177-.145 0-.265.08-.265.177 0 .097.12.176.265.176.146 0 .265-.08.265-.176zM3.09 23.882c0-.146-.08-.265-.176-.265-.097 0-.177.12-.177.265 0 .145.08.264.177.264.097 0 .176-.119.176-.264zm31.75-.275c0-.092-.119-.166-.265-.166-.272 0-.35.208-.151.407.14.14.416-.019.416-.241zm-31.926-.43c0-.146-.075-.265-.166-.265-.223 0-.382.275-.241.416.199.199.407.121.407-.152zM35.015 23c0-.146-.079-.265-.176-.265-.097 0-.176.12-.176.265 0 .145.079.264.176.264.097 0 .176-.119.176-.264zm-32.279-.53c0-.145-.074-.264-.166-.264-.222 0-.381.276-.24.416.198.2.406.121.406-.151zm32.456-.176c0-.145-.075-.264-.166-.264-.223 0-.382.275-.241.416.199.199.407.121.407-.152zM2.56 21.765c0-.145-.075-.264-.166-.264-.223 0-.382.275-.24.416.198.199.406.12.406-.152zm32.808-.176a.265.265 0 0 0-.264-.265c-.276 0-.35.209-.147.412.203.203.411.128.411-.147zm-32.958-.53c0-.092-.085-.195-.19-.23-.104-.035-.19.069-.19.23 0 .162.086.266.19.231.105-.034.19-.138.19-.23zm11.255-.623c.696-1.128 3.375-1.302 3.78-.245.192.5.57.195 4.103-3.311 3.97-3.94 3.762-3.644 3.14-4.46-1.595-2.09-4.827-3.094-5.749-1.786-.63.896-.648 1.098-.089 1.025 1.78-.234 2.184.616 1.135 2.384-1.022 1.72-1.387 1.645-.504-.103.296-.585.465-1.109.378-1.163-.343-.212-1.729-.285-2.507-.133l-.818.16.271-.81c.15-.447.418-1.023.598-1.28.459-.658.416-.735-.335-.595-2.736.507-5.1 3.308-5.29 6.266-.102 1.605.207 4.415.507 4.605.509.322.948.146 1.38-.554zm21.88.349c0-.092-.12-.166-.265-.166-.273 0-.35.208-.152.406.141.141.417-.018.417-.24zm-33.162-.431c0-.146-.074-.265-.165-.265-.223 0-.382.276-.241.417.198.198.406.12.406-.152zm33.162-.265c0-.097-.12-.176-.265-.176-.146 0-.265.08-.265.176 0 .097.12.177.265.177.146 0 .265-.08.265-.177zm-33.162-.54c0-.09-.119-.165-.264-.165-.273 0-.35.208-.152.407.141.14.416-.019.416-.241zm33.162-.165a.177.177 0 0 0-.177-.177.177.177 0 0 0-.176.177c0 .097.08.176.176.176.097 0 .177-.08.177-.176zm-33.32-.582c-.226-.226-.456-.051-.288.22.065.105.199.141.298.08.12-.074.117-.173-.01-.3zm33.435-.335c-.086-.56-.468-.617-.468-.068 0 .287.098.456.263.456.172 0 .243-.135.205-.388zM2.383 18.14c0-.092-.119-.166-.264-.166-.273 0-.35.208-.152.407.141.14.416-.019.416-.241zm0-.706c0-.091-.119-.166-.264-.166-.273 0-.35.208-.152.407.141.14.416-.018.416-.24zm33.162.01a.177.177 0 0 0-.177-.176.177.177 0 0 0-.176.177c0 .097.08.176.176.176.097 0 .177-.08.177-.176zm-33.162-.705a.177.177 0 0 0-.176-.176.177.177 0 0 0-.176.176c0 .097.08.176.176.176.097 0 .176-.079.176-.176zm33.162 0c0-.097-.12-.176-.265-.176-.146 0-.265.079-.265.176 0 .097.12.176.265.176.146 0 .265-.079.265-.176zM2.56 16.032c0-.097-.12-.176-.265-.176-.145 0-.264.08-.264.176 0 .097.119.177.264.177.146 0 .265-.08.265-.177zm32.808 0a.177.177 0 0 0-.176-.176.177.177 0 0 0-.177.176.177.177 0 0 0 .353 0zm-32.72-.705c.06-.097-.015-.176-.166-.176-.151 0-.275.079-.275.176 0 .097.075.176.166.176.091 0 .215-.08.275-.176zm32.686-.013c-.034-.105-.138-.19-.23-.19-.093 0-.196.085-.231.19-.035.104.069.19.23.19.162 0 .266-.086.231-.19zM2.736 14.62a.177.177 0 0 0-.176-.176.177.177 0 0 0-.177.176.177.177 0 0 0 .353 0zm32.456 0c0-.097-.12-.176-.265-.176-.145 0-.264.08-.264.176 0 .097.119.177.264.177.146 0 .265-.08.265-.177zm-32.103-.705c0-.097-.119-.177-.265-.177-.145 0-.264.08-.264.177 0 .097.119.176.264.176.146 0 .265-.08.265-.176zm31.926 0c0-.097-.119-.177-.264-.177-.146 0-.265.08-.265.177 0 .097.12.176.265.176.145 0 .264-.08.264-.176zM3.265 13.2c0-.091-.119-.166-.264-.166-.273 0-.35.208-.152.407.141.14.416-.019.416-.241zm31.398.01a.177.177 0 0 0-.177-.176.177.177 0 0 0-.176.176c0 .097.08.177.176.177.097 0 .177-.08.177-.177zm-31.221-.617c0-.146-.075-.265-.166-.265-.223 0-.382.276-.241.417.199.198.407.12.407-.152zm31.044-.099c0-.091-.119-.166-.264-.166-.273 0-.35.208-.152.407.14.141.416-.018.416-.24zM3.795 11.79c0-.092-.12-.166-.265-.166-.273 0-.35.208-.152.407.141.14.417-.019.417-.241zm30.338.098c0-.145-.074-.264-.165-.264-.223 0-.382.275-.241.416.198.199.406.121.406-.152zm-30.149-.666c-.022-.21-.264-.17-.34.058-.038.116.025.18.142.14.116-.038.205-.127.198-.198zm29.81 0c-.022-.21-.264-.17-.34.058-.038.116.025.18.142.14.116-.038.205-.127.198-.198zm-29.382-.657c-.06-.097-.184-.176-.275-.176-.091 0-.166.08-.166.176 0 .097.124.177.275.177.151 0 .226-.08.166-.177zm29.192 0c0-.097-.119-.176-.264-.176-.146 0-.265.08-.265.176 0 .097.12.177.265.177.145 0 .264-.08.264-.177zM4.703 9.947c0-.092-.085-.196-.19-.23-.104-.035-.19.068-.19.23s.086.266.19.23c.105-.034.19-.138.19-.23zm28.399 0c0-.092-.086-.196-.19-.23-.104-.035-.19.068-.19.23s.086.266.19.23c.104-.034.19-.138.19-.23zM5.206 9.319c0-.091-.12-.166-.265-.166-.273 0-.35.208-.152.407.141.141.417-.018.417-.24zm27.516.01a.177.177 0 0 0-.176-.176.177.177 0 0 0-.176.177c0 .097.079.176.176.176.097 0 .176-.08.176-.176zm-27.164-.5c0-.229-.21-.382-.38-.276-.182.113-.025.424.215.424.09 0 .165-.066.165-.147zm26.778-.042c-.035-.104-.139-.19-.231-.19s-.196.086-.23.19c-.036.105.068.19.23.19s.266-.085.23-.19zM5.938 8.183c0-.092-.086-.196-.19-.23-.104-.035-.19.068-.19.23s.086.266.19.23c.104-.034.19-.138.19-.23zm25.929 0c0-.092-.085-.196-.19-.23-.104-.035-.19.068-.19.23s.086.266.19.23c.105-.034.19-.138.19-.23zM6.44 7.654c0-.146-.079-.265-.176-.265-.097 0-.176.12-.176.265 0 .146.079.265.176.265.097 0 .176-.12.176-.265zm25.048-.099c0-.09-.12-.166-.265-.166a.265.265 0 0 1-.265-.264c0-.273-.208-.35-.406-.152-.146.146.62.944.799.833a.327.327 0 0 0 .137-.25zM6.97 7.125c0-.146-.075-.265-.166-.265-.223 0-.382.276-.241.417.198.198.407.12.407-.152zm.529-.53c0-.145-.075-.264-.166-.264-.223 0-.382.276-.241.416.199.2.407.121.407-.151zm22.93 0c0-.145-.074-.264-.166-.264-.222 0-.381.276-.24.416.198.2.406.121.406-.151zm-22.401-.41c0-.23-.21-.383-.38-.278-.183.113-.025.424.214.424.091 0 .166-.066.166-.147zm21.838-.044c-.034-.104-.138-.19-.23-.19-.093 0-.196.086-.231.19-.035.105.069.19.23.19.162 0 .266-.085.231-.19zM8.557 5.626c0-.098-.075-.177-.166-.177-.091 0-.215.08-.275.177-.06.097.015.176.166.176.151 0 .275-.08.275-.176zm20.814 0c0-.098-.12-.177-.265-.177-.145 0-.264.08-.264.177 0 .097.119.176.264.176.146 0 .265-.08.265-.176zM9.113 5.185c0-.093-.086-.196-.19-.231-.104-.035-.19.069-.19.23 0 .162.086.266.19.231.104-.034.19-.138.19-.23zm19.579 0c0-.093-.085-.196-.19-.231-.104-.035-.19.069-.19.23 0 .162.086.266.19.231.105-.034.19-.138.19-.23zm-18.9-.452c0-.091-.12-.166-.265-.166-.273 0-.35.208-.152.407.141.14.417-.018.417-.24zm18.344.01a.177.177 0 0 0-.176-.176.177.177 0 0 0-.177.177.177.177 0 0 0 .353 0zm-17.815-.352a.177.177 0 0 0-.176-.177.177.177 0 0 0-.177.177.177.177 0 0 0 .353 0zm17.286 0c0-.097-.119-.177-.264-.177-.146 0-.265.08-.265.177 0 .097.119.176.265.176.145 0 .264-.08.264-.176zm-16.58-.353c0-.097-.12-.176-.265-.176-.146 0-.265.079-.265.176 0 .097.12.176.265.176.145 0 .265-.079.265-.176zm15.875 0a.177.177 0 0 0-.177-.176.177.177 0 0 0-.176.176c0 .097.08.176.176.176.097 0 .177-.079.177-.176zm-15.258-.353c-.06-.097-.184-.176-.275-.176-.091 0-.166.08-.166.176 0 .097.124.177.275.177.151 0 .226-.08.166-.177zm14.728 0c0-.097-.119-.176-.264-.176-.146 0-.265.08-.265.176 0 .097.12.177.265.177.145 0 .264-.08.264-.177zm-14.11-.264c0-.146-.075-.265-.167-.265-.222 0-.381.276-.24.416.198.2.406.121.406-.151zm13.405-.099c0-.091-.12-.166-.265-.166-.273 0-.35.208-.152.407.141.14.417-.019.417-.241zm-12.734-.18c-.035-.103-.139-.189-.23-.189-.093 0-.197.086-.232.19-.034.104.07.19.231.19.162 0 .266-.086.231-.19zm11.994 0c-.034-.103-.138-.189-.23-.189s-.196.086-.231.19c-.035.104.069.19.23.19.162 0 .266-.086.231-.19zm-11.255-.35c0-.09-.119-.165-.264-.165-.273 0-.35.208-.152.407.14.14.416-.019.416-.241zm10.584.1c0-.146-.075-.265-.166-.265-.223 0-.382.275-.241.416.199.199.407.121.407-.152zm-9.878-.276c0-.09-.12-.165-.265-.165-.272 0-.35.208-.151.406.14.141.416-.018.416-.24zm9.172.1c0-.146-.08-.265-.176-.265-.097 0-.177.119-.177.264 0 .146.08.265.177.265.097 0 .176-.12.176-.265zm-8.467-.276c0-.091-.119-.166-.264-.166-.273 0-.35.208-.152.407.141.14.416-.018.416-.24zm.706-.176c0-.092-.119-.166-.265-.166-.272 0-.35.208-.151.407.14.14.416-.019.416-.241zm6.35.098c0-.145-.08-.264-.176-.264-.097 0-.177.119-.177.264 0 .146.08.265.177.265.097 0 .176-.12.176-.265zm.706.089a.177.177 0 0 0-.177-.177.177.177 0 0 0-.176.177c0 .097.08.176.176.176.097 0 .177-.08.177-.176zm-6.514-.225c-.021-.211-.263-.17-.34.057-.038.116.026.18.142.141.116-.039.206-.128.198-.198zm5.102-.04c0-.146-.079-.265-.176-.265-.097 0-.176.12-.176.265 0 .145.08.265.176.265.097 0 .176-.12.176-.265zM17.2 2.098c0-.097-.119-.177-.264-.177-.146 0-.265.08-.265.177 0 .097.12.176.265.176.145 0 .264-.08.264-.176zm.672-.014c-.035-.104-.139-.19-.23-.19-.093 0-.197.086-.232.19-.034.105.07.19.231.19.162 0 .266-.085.23-.19zm.74-.074c0-.146-.075-.265-.167-.265-.222 0-.381.275-.24.416.198.199.406.121.406-.151zm.705 0c0-.146-.075-.265-.166-.265-.223 0-.382.275-.241.416.199.199.407.121.407-.151zm.705 0c0-.146-.074-.265-.166-.265-.222 0-.381.275-.24.416.198.199.406.121.406-.151zm.706.088a.177.177 0 0 0-.176-.177.177.177 0 0 0-.177.177.177.177 0 0 0 .353 0z" style="fill:#c93b1b;fill-opacity:1;stroke-width:1"/></svg>